<?xml version="1.0" encoding="utf-8"?>
<!-- Generator: Adobe Illustrator 27.3.1, SVG Export Plug-In . SVG Version: 6.00 Build 0)  -->
<!DOCTYPE svg PUBLIC "-//W3C//DTD SVG 1.1//EN" "http://www.w3.org/Graphics/SVG/1.1/DTD/svg11.dtd" [
	<!ENTITY ns_extend "http://ns.adobe.com/Extensibility/1.0/">
	<!ENTITY ns_ai "http://ns.adobe.com/AdobeIllustrator/10.0/">
	<!ENTITY ns_graphs "http://ns.adobe.com/Graphs/1.0/">
	<!ENTITY ns_vars "http://ns.adobe.com/Variables/1.0/">
	<!ENTITY ns_imrep "http://ns.adobe.com/ImageReplacement/1.0/">
	<!ENTITY ns_sfw "http://ns.adobe.com/SaveForWeb/1.0/">
	<!ENTITY ns_custom "http://ns.adobe.com/GenericCustomNamespace/1.0/">
	<!ENTITY ns_adobe_xpath "http://ns.adobe.com/XPath/1.0/">
]>
<svg version="1.1" id="Layer_1"
     xmlns="http://www.w3.org/2000/svg" x="0px" y="0px" viewBox="0 0 841.9 595.3"
     style="enable-background:new 0 0 841.9 595.3;" xml:space="preserve">
<style type="text/css">
	.st0{fill:#FED12D;}
</style>
<metadata>
	<sfw  xmlns="&ns_sfw;">
		<slices></slices>
		<sliceSourceBounds  bottomLeftOrigin="true" height="153.6" width="453.8" x="194" y="-374.4"></sliceSourceBounds>
	</sfw>
</metadata>
<g>
	<g>
		<path class="st0" d="M285.1,346.3c41.1-14.9,88.8-23.5,139.6-23.5c50,0,97,8.3,137.7,22.8c-40.8-21.5-87.9-33.7-138-33.7
			C373.7,311.9,326.2,324.4,285.1,346.3z"/>
		<path class="st0" d="M254.3,351.9c-0.8-2.1-2-4.4-3.6-6.8c-11.4-17.9-22.8-35.7-34.1-53.6c-0.7-1.2-1.2-2.1-1.5-2.9
			c-0.3-0.8-0.3-1.5-0.3-2c0.1-0.6,0.3-1,0.6-1.4c0.3-0.4,0.8-0.7,1.2-1c0.9-0.6,1.9-1.1,2.8-1.7c-0.9-1.4-1.7-2.9-2.6-4.3
			c-7.7,4.7-15.3,9.7-22.8,15c1,1.4,1.9,2.7,2.9,4.1c0.9-0.6,1.8-1.3,2.7-1.9c0.4-0.3,0.9-0.5,1.4-0.7c0.5-0.2,1-0.2,1.5-0.1
			c0.5,0.1,1.1,0.4,1.7,1c0.6,0.5,1.3,1.3,2,2.3c12,17.6,24.1,35.2,36.1,52.9c1.8,2.6,3.1,5,4,7.1c0.9,2.1,1.4,3.8,1.6,5.4
			c0.2,1.5,0,2.8-0.4,3.8c-0.4,1-1,1.8-1.8,2.4c-0.3,0.2-0.6,0.4-0.9,0.6c1.1,1.5,2.2,3,3.3,4.5c0.6-0.4,1.2-0.8,1.8-1.3
			c1.1-0.8,2.1-1.7,3-2.7c0.9-1,1.6-2.2,2.2-3.4c0.6-1.3,1-2.6,1.2-4.2c0.2-1.5,0.2-3.2-0.1-5C255.7,356,255.1,354,254.3,351.9z
			 M219.3,306.3c-0.8,0.5-1.9,0.1-2.6-0.9c-0.7-1-0.6-2.2,0.2-2.7c0.8-0.5,2-0.1,2.6,0.9C220.2,304.6,220.1,305.8,219.3,306.3z
			 M226.4,317c-1.4,0.9-3.4,0.2-4.7-1.6c-1.2-1.8-1.1-4,0.3-4.9c1.4-0.9,3.5-0.2,4.7,1.7C227.9,313.9,227.7,316.1,226.4,317z
			 M231.5,324.8c-0.7,0.5-1.9,0.1-2.5-0.9c-0.7-1-0.6-2.2,0.1-2.7c0.7-0.5,1.9-0.1,2.5,0.9C232.3,323.1,232.2,324.3,231.5,324.8z"/>
		<path class="st0" d="M286.6,312.2c-0.3,0.3-0.5,0.5-0.8,0.6c-0.8,0.3-1.5,0.7-2.3,1.1c0.7,1.5,1.4,3.1,2.1,4.6
			c6.4-3,12.9-5.7,19.4-8.2c-0.6-1.6-1.2-3.2-1.8-4.7c-0.4,0.1-0.7,0.3-1.1,0.4c-0.5,0.2-1,0.3-1.5,0.2s-1.1-0.2-1.6-0.5
			c-0.6-0.3-1.2-0.8-1.8-1.5c-0.7-0.7-1.4-1.6-2.2-2.7c-11.3-15.6-23.3-30.9-35.9-45.7c-3.2,1.5-6.5,3-9.7,4.5
			c3.1,19.3,7,38.3,11.7,57.1c0.3,1.4,0.6,2.7,0.7,3.6c0.1,1,0.1,1.8,0,2.4c-0.1,0.7-0.3,1.2-0.7,1.6c-0.3,0.4-0.7,0.7-1.3,1
			c-0.2,0.1-0.5,0.3-0.7,0.4c0.8,1.5,1.7,2.9,2.5,4.4c4.9-2.8,9.8-5.4,14.8-7.9c-0.8-1.5-1.5-3-2.3-4.5c-0.8,0.4-1.6,0.8-2.5,1.2
			c-0.3,0.2-0.7,0.3-1.1,0.3s-0.8,0-1.1-0.2c-0.4-0.1-0.8-0.4-1.1-0.7c-0.4-0.3-0.7-0.8-1-1.3c-0.4-0.7-0.7-1.5-1-2.5
			c-0.3-1-0.6-1.9-0.8-2.7c-0.7-2.7-1.4-5.5-2-8.2c5-2.5,10-5,15.1-7.2c2,2.6,4.1,5.2,6.1,7.8c0.3,0.4,0.7,0.9,1.1,1.5
			c0.4,0.6,0.8,1.3,1.1,2c0.3,0.6,0.4,1.1,0.4,1.6c0,0.5,0,0.9-0.1,1.3C287,311.6,286.8,312,286.6,312.2z M268.6,275.1
			c0.6-0.7,1.7-0.6,2.5,0.3c0.7,0.9,0.8,2.2,0.2,2.9c-0.6,0.7-1.7,0.6-2.5-0.3C268.1,277.2,268,275.8,268.6,275.1z M262.2,298.4
			c-1.2-5.4-2.3-10.9-3.4-16.3c-0.2-1.1-0.5-2.3-0.7-3.5c-0.2-1.2-0.5-2.5-0.7-3.7c-0.2-1.2-0.5-2.4-0.7-3.6
			c-0.2-1.2-0.5-2.2-0.7-3.2c0.7,0.9,1.4,1.9,2.1,2.9c0.8,1,1.5,2,2.3,3c0.8,1,1.6,2,2.3,3c0.8,1,1.5,1.9,2.2,2.8
			c3.4,4.2,6.7,8.4,10,12.6C270.7,294.3,266.4,296.3,262.2,298.4z M279.1,288.1c-1.1,1.3-3,1-4.4-0.7c-1.3-1.6-1.5-4-0.4-5.3
			c1.1-1.3,3.1-1,4.4,0.7C280.1,284.5,280.2,286.9,279.1,288.1z M284.7,295.3c-0.6,0.7-1.6,0.5-2.3-0.4c-0.7-0.9-0.8-2.2-0.2-2.9
			c0.6-0.7,1.6-0.5,2.4,0.4C285.2,293.3,285.3,294.6,284.7,295.3z"/>
		<path class="st0" d="M289.1,248.9c0.3-0.1,0.8-0.2,1.2-0.2c0.5,0,1,0.1,1.5,0.2c0.5,0.2,1.1,0.5,1.6,0.9c0.6,0.4,1.1,1.1,1.6,1.8
			c11.4,16.7,22.1,33.7,32.1,51c2-0.6,4.1-1.2,6.1-1.8c-0.9-19.2-1.1-38.4-0.5-57.8c0-1.5,0.1-2.7,0.2-3.7c0.1-0.9,0.2-1.7,0.3-2.3
			c0.1-0.6,0.3-1,0.6-1.2c0.2-0.2,0.5-0.4,0.8-0.5c1.2-0.3,2.4-0.5,3.6-0.8c-0.4-1.6-0.7-3.3-1.1-4.9c-6.4,1.4-12.8,3-19.2,4.7
			c0.4,1.6,0.9,3.2,1.3,4.9c1.3-0.3,2.5-0.7,3.8-1c0.9-0.2,1.7-0.1,2.3,0.3c0.7,0.4,1.1,1.1,1.4,2.1c0.1,0.2,0.1,0.6,0.2,1
			c0,0.4,0.1,0.8,0.1,1.3c0,0.4,0,0.9,0,1.3c0,0.4,0,0.8,0,1.2c-0.1,10,0.1,20,0.4,29.9c0,0.9,0.1,1.9,0.2,3
			c0.1,1.1,0.1,2.2,0.2,3.3c0.1,1.1,0.2,2.1,0.3,3c0.1,0.9,0.2,1.7,0.3,2.2c-0.3-0.8-0.7-1.7-1.1-2.7c-0.4-1-0.9-1.9-1.3-2.9
			c-0.5-1-0.9-1.9-1.4-2.8c-0.4-0.9-0.9-1.6-1.2-2.3c-5-8.8-10.1-17.5-15.4-26.1c-0.3-0.5-0.6-1-1-1.8c-0.4-0.7-0.7-1.4-0.8-2
			c-0.2-0.6-0.2-1.1-0.2-1.5c0-0.4,0.2-0.8,0.4-1.1c0.2-0.3,0.4-0.6,0.7-0.8c0.3-0.2,0.6-0.4,1-0.5c1.1-0.3,2.2-0.7,3.3-1
			c-0.5-1.6-0.9-3.2-1.4-4.8c-8.1,2.4-16.1,5-24.1,8c0.6,1.6,1.2,3.1,1.7,4.7C288,249.3,288.5,249.1,289.1,248.9z M319.3,278.3
			c0.7-0.6,1.7-0.3,2.3,0.7c0.6,1,0.5,2.3-0.1,2.9c-0.6,0.6-1.7,0.3-2.3-0.7C318.6,280.2,318.6,278.9,319.3,278.3z M312.7,267.7
			c1.2-1.2,3.2-0.6,4.3,1.2c1.1,1.8,1,4.2-0.2,5.3c-1.2,1.1-3.1,0.6-4.2-1.2C311.4,271.2,311.5,268.8,312.7,267.7z M307.8,260
			c0.7-0.6,1.8-0.4,2.4,0.6c0.6,1,0.6,2.3-0.1,2.9s-1.7,0.4-2.4-0.6C307.1,262,307.1,260.7,307.8,260z"/>
		<path class="st0" d="M372.3,292.6c-0.3-1.7-0.5-3.3-0.8-5c-0.9,0.1-1.8,0.3-2.7,0.4c-0.4,0.1-0.7,0-1.1-0.1
			c-0.4-0.1-0.7-0.3-1-0.5c-0.3-0.2-0.6-0.6-0.8-1c-0.2-0.4-0.4-1-0.5-1.6c-0.1-0.8-0.2-1.7-0.2-2.7c0-1.1,0-2,0.1-2.8
			c0.2-2.8,0.4-5.6,0.6-8.4c5.4-0.9,10.8-1.6,16.2-2.2c1.1,3.1,2.3,6.2,3.3,9.2c0.2,0.5,0.4,1.1,0.6,1.8c0.2,0.7,0.3,1.4,0.4,2.2
			c0.1,0.6,0,1.2-0.1,1.7c-0.1,0.5-0.3,0.9-0.5,1.2c-0.2,0.3-0.5,0.6-0.8,0.7c-0.3,0.2-0.6,0.3-0.9,0.3c-0.8,0.1-1.7,0.2-2.5,0.3
			c0.2,1.7,0.4,3.4,0.6,5c6.9-0.8,13.8-1.4,20.7-1.8c-0.1-1.7-0.2-3.4-0.3-5.1c-0.4,0-0.8,0-1.2,0.1c-0.5,0-1-0.1-1.5-0.2
			c-0.5-0.2-0.9-0.5-1.4-1c-0.4-0.5-0.9-1.2-1.3-2c-0.4-0.9-0.8-1.9-1.2-3.3c-5.9-18.3-12.5-36.6-19.9-54.6
			c-3.5,0.4-6.9,0.8-10.4,1.3c-2.8,19.3-4.9,38.6-6.1,57.8c-0.1,1.5-0.3,2.7-0.5,3.6c-0.2,1-0.4,1.7-0.7,2.3c-0.3,0.6-0.7,1-1.1,1.3
			c-0.4,0.3-0.9,0.5-1.5,0.6c-0.3,0.1-0.5,0.1-0.8,0.2c0.3,1.7,0.7,3.3,1,5C361.6,294.3,366.9,293.4,372.3,292.6z M388.8,266.1
			c0.4,1.1,0.1,2.4-0.7,2.8c-0.7,0.5-1.7,0-2.1-1.1c-0.4-1.1-0.1-2.4,0.6-2.8C387.5,264.5,388.4,265,388.8,266.1z M382.4,253.2
			c1.4-0.9,3.2,0,3.9,2c0.7,2,0.2,4.3-1.2,5.2c-1.4,0.9-3.1,0-3.9-2C380.4,256.4,380.9,254.1,382.4,253.2z M379.1,244.8
			c0.8-0.5,1.8,0,2.2,1.1c0.4,1.1,0.1,2.4-0.7,2.9c-0.8,0.5-1.8,0-2.2-1.1C378,246.6,378.3,245.3,379.1,244.8z M368.1,248.4
			c0.1-1.1,0.2-2.3,0.4-3.6c0.1-1.2,0.3-2.5,0.4-3.7c0.2-1.2,0.3-2.5,0.4-3.6c0.1-1.2,0.2-2.3,0.3-3.2c0.3,1.1,0.7,2.2,1.1,3.4
			c0.4,1.2,0.8,2.4,1.3,3.6c0.4,1.2,0.9,2.4,1.3,3.5c0.4,1.2,0.8,2.3,1.2,3.3c1.9,5,3.7,10.1,5.5,15.1c-4.6,0.5-9.1,1.1-13.7,1.9
			C366.9,259.4,367.5,253.9,368.1,248.4z"/>
		<path class="st0" d="M415,289c12-0.2,24.1,0.3,36.1,1.4c0.7-6.5,1.4-13,2.2-19.5c-1.6-0.2-3.2-0.3-4.8-0.4
			c-0.2,1.4-0.4,2.8-0.7,4.2c-0.2,1.2-0.4,2.4-0.7,3.5c-0.3,1.1-0.7,2.1-1.3,3c-0.6,0.9-1.3,1.5-2.1,2c-0.9,0.5-2,0.7-3.3,0.6
			c-4.6-0.3-9.2-0.5-13.8-0.5c8.4-19,18.1-37.7,29.2-55.9c0.1-1.6,0.3-3.2,0.4-4.8c-13.5-1.2-27-1.8-40.6-1.6
			c0,6.6-0.1,13.1-0.1,19.7c1.7,0,3.5,0,5.2,0c0.1-1.7,0.3-3.4,0.4-5.2c0.1-1.3,0.2-2.5,0.5-3.6c0.2-1.1,0.5-2,1-2.7
			c0.5-0.8,1.1-1.3,1.8-1.7c0.8-0.4,1.7-0.6,2.9-0.6c4.9,0.1,9.8,0.3,14.7,0.5c-10.4,18.6-19.5,37.7-27.1,57
			C414.9,285.9,414.9,287.4,415,289z M437.4,244.8c0.5-1,1.6-1.2,2.3-0.5c0.7,0.7,0.8,2,0.3,3c-0.5,1-1.5,1.2-2.3,0.5
			C437,247.2,436.8,245.8,437.4,244.8z M431.5,252.9c0.9-1.8,2.8-2.2,4-1c1.3,1.2,1.5,3.7,0.6,5.5c-0.9,1.8-2.7,2.2-4,1
			C430.9,257.2,430.6,254.7,431.5,252.9z M427.9,263.1c0.5-1,1.5-1.2,2.1-0.6c0.7,0.7,0.9,2,0.4,3c-0.5,1-1.4,1.2-2.1,0.6
			C427.6,265.4,427.4,264.1,427.9,263.1z"/>
		<path class="st0" d="M473.5,284.5c1.3,3.3,3.1,6,5.5,8.2c2.3,2.1,5.2,3.5,8.7,4.3c3.3,0.7,6.5,0.6,9.5-0.4c3-1,5.8-2.7,8.4-5.2
			c2.6-2.5,5-5.7,7.1-9.6c2.1-3.9,3.9-8.4,5.4-13.4c1.5-5.1,2.3-9.9,2.4-14.3c0.1-4.4-0.5-8.4-1.7-11.9c-1.3-3.5-3.3-6.5-6-8.8
			c-2.7-2.4-6.1-4-10.2-4.9c-4.3-0.9-8.2-0.8-11.7,0.2c-3.5,1.1-6.5,2.9-9.1,5.6c-2.6,2.7-4.7,6.1-6.3,10.2c-1.6,4.1-2.8,8.8-3.6,14
			c-0.8,5.2-1,10.1-0.7,14.5C471.4,277.3,472.2,281.2,473.5,284.5z M481.8,272.5c0.2-3.6,0.7-7.6,1.5-12.1c0.8-4.5,1.7-8.5,2.8-11.9
			c1.1-3.4,2.3-6.3,3.8-8.5c1.4-2.2,3.1-3.8,5-4.8c1.9-0.9,3.9-1.2,6.3-0.7c2.3,0.5,4.1,1.5,5.4,3.2c1.3,1.6,2.1,3.7,2.5,6.4
			c0.4,2.6,0.4,5.7-0.1,9.3c-0.4,3.6-1.2,7.6-2.3,12c-1.1,4.4-2.3,8.3-3.5,11.7c-1.2,3.4-2.6,6.2-4,8.3c-1.4,2.2-3,3.8-4.6,4.7
			c-1.7,1-3.4,1.2-5.4,0.8c-1.9-0.4-3.5-1.4-4.6-2.9c-1.1-1.5-1.9-3.6-2.3-6.2C481.7,279.2,481.6,276.1,481.8,272.5z"/>
		<path class="st0" d="M540.2,306.5c-0.8-0.3-1.7-0.7-2.5-1c-0.4-0.2-0.8-0.4-1.1-0.7s-0.6-0.7-0.7-1.2c-0.1-0.5-0.1-1.2,0-2
			c0.1-0.8,0.4-1.9,0.9-3.2c4.8-12.9,9.6-25.8,14.4-38.7c2.9,19.8,4.5,39.4,4.7,58.8c1.8,0.8,3.6,1.7,5.4,2.5
			c8.3-17.1,16.5-34.1,24.8-51.2c0.6-1.2,1.2-2.2,1.7-2.8c0.5-0.6,1.1-1.1,1.6-1.3c0.5-0.2,1-0.3,1.5-0.2c0.5,0.1,1,0.2,1.4,0.5
			c1,0.5,1.9,1,2.9,1.5c0.8-1.5,1.5-3,2.3-4.5c-6.1-3.1-12.2-6-18.4-8.7c-0.7,1.5-1.4,3.1-2,4.6c1,0.4,2,0.9,2.9,1.3
			c0.5,0.2,0.9,0.5,1.3,0.8c0.4,0.3,0.6,0.7,0.8,1.3c0.2,0.5,0.2,1.2,0,1.9c-0.1,0.8-0.5,1.7-1,2.9c-5.2,11.1-10.3,22.2-15.5,33.3
			c-0.6-17.8-2.3-35.8-5.1-53.8c-5.3-2-10.7-4-16.1-5.8c-0.5,1.6-1.1,3.2-1.6,4.8c1,0.3,2,0.7,3,1c0.5,0.2,0.9,0.4,1.3,0.7
			c0.4,0.3,0.7,0.7,0.9,1.2c0.2,0.5,0.3,1.1,0.2,1.9c-0.1,0.8-0.3,1.8-0.7,3c-5.1,14.4-10.2,28.9-15.4,43.3c-0.5,1.3-0.9,2.3-1.3,3
			c-0.4,0.7-0.9,1.2-1.3,1.5c-0.4,0.3-0.9,0.5-1.3,0.5c-0.4,0-0.9-0.1-1.3-0.2c-0.9-0.3-1.7-0.6-2.6-0.9c-0.5,1.6-1.1,3.2-1.6,4.8
			c5.2,1.8,10.5,3.6,15.6,5.7C539,309.7,539.6,308.1,540.2,306.5z M559.7,295.2c-0.9,0.3-1.7-0.3-1.7-1.4c0-1.1,0.7-2.3,1.6-2.6
			c0.9-0.3,1.7,0.3,1.7,1.4C561.3,293.8,560.6,294.9,559.7,295.2z M558.4,270.6c1-0.3,1.8,0.3,1.9,1.4s-0.6,2.3-1.6,2.6
			c-0.9,0.3-1.8-0.3-1.9-1.4C556.8,272.1,557.5,270.9,558.4,270.6z M559,279.3c1.7-0.6,3.2,0.6,3.3,2.6c0.1,2-1.2,4.1-2.9,4.7
			c-1.7,0.6-3.1-0.6-3.3-2.6C556,282,557.3,279.9,559,279.3z"/>
		<path class="st0" d="M610.8,270.3c-0.8,1.5-1.6,2.9-2.4,4.4c0.9,0.5,1.9,1.1,2.8,1.6c0.5,0.3,0.9,0.6,1.3,1
			c0.3,0.4,0.6,0.8,0.7,1.4c0.1,0.6,0,1.2-0.2,2c-0.2,0.8-0.7,1.8-1.4,3c-7.7,13.3-15.5,26.6-23.2,39.9c-0.6,1.1-1.2,1.9-1.7,2.5
			c-0.5,0.6-1,0.9-1.5,1.1c-0.5,0.2-0.9,0.2-1.3,0.1c-0.4-0.1-0.8-0.3-1.2-0.5c-0.8-0.5-1.6-0.9-2.4-1.4c-0.8,1.5-1.6,3-2.5,4.4
			c11,6.2,21.8,13,32.2,20.6c3.6-4.6,7.1-9.3,10.7-13.9c-1.3-0.9-2.6-1.9-3.9-2.8c-1,1.1-2,2.2-3,3.3c-0.7,0.8-1.4,1.5-2.1,2.1
			c-0.7,0.6-1.3,1.1-2,1.4c-0.7,0.3-1.3,0.5-1.9,0.5c-0.6,0-1.2-0.2-1.7-0.5c-3.7-2.5-7.4-4.9-11.2-7.3c4.5-7.2,9-14.4,13.5-21.5
			c4.2,2.6,8.4,5.4,12.5,8.2c1.1-1.6,2.2-3.2,3.2-4.7c-4.2-2.9-8.4-5.7-12.7-8.3c4.5-7.2,8.9-14.3,13.4-21.5c3.7,2.3,7.4,4.7,11,7.2
			c1.3,0.9,2,2.1,1.9,3.5c-0.1,1.5-0.7,3.2-1.9,5.2c-0.8,1.3-1.5,2.6-2.3,3.9c1.5,1,2.9,2,4.3,3.1c3.3-4.8,6.7-9.6,10-14.5
			C635.9,285.2,623.5,277.3,610.8,270.3z M600.5,316.5c-0.6,1-1.7,1.5-2.5,1c-0.7-0.4-0.8-1.6-0.2-2.7c0.6-1,1.7-1.5,2.5-1
			C601,314.3,601.1,315.5,600.5,316.5z M607.4,307.8c-1.1,1.9-3.2,2.7-4.6,1.8c-1.4-0.8-1.6-3-0.5-4.9c1.1-1.9,3.2-2.7,4.6-1.9
			C608.4,303.7,608.6,305.9,607.4,307.8z M612.1,297.6c-0.6,1-1.8,1.5-2.6,1c-0.8-0.5-0.9-1.7-0.3-2.7c0.6-1,1.8-1.5,2.6-1
			C612.5,295.4,612.7,296.6,612.1,297.6z"/>
		<path class="st0" d="M492.4,274.8c4.7,1,9.7-3.4,11.4-10.1c1.6-6.6-1.2-13-6.2-14c-5.1-1.1-10.2,3.6-11.4,10.3
			C484.9,267.7,487.8,273.8,492.4,274.8z M491.8,262.1c0.5-2.4,2.4-4.1,4.2-3.7c1.8,0.4,2.8,2.7,2.3,5.1c-0.5,2.4-2.4,4.1-4.2,3.7
			C492.3,266.8,491.3,264.5,491.8,262.1z"/>
	</g>
	<g>
		<g>
			<circle class="st0" cx="420.9" cy="350.3" r="6.3"/>
			<g>
				<circle class="st0" cx="438.7" cy="350.3" r="4"/>
				<circle class="st0" cx="403.2" cy="350.3" r="4"/>
				<circle class="st0" cx="388.9" cy="350.3" r="2.8"/>
				<circle class="st0" cx="453" cy="350.3" r="2.8"/>
			</g>
		</g>
	</g>
</g>
</svg>
