<?xml version="1.0" encoding="utf-8"?>
<!-- Generator: Adobe Illustrator 27.3.1, SVG Export Plug-In . SVG Version: 6.00 Build 0)  -->
<!DOCTYPE svg PUBLIC "-//W3C//DTD SVG 1.1//EN" "http://www.w3.org/Graphics/SVG/1.1/DTD/svg11.dtd" [
	<!ENTITY ns_extend "http://ns.adobe.com/Extensibility/1.0/">
	<!ENTITY ns_ai "http://ns.adobe.com/AdobeIllustrator/10.0/">
	<!ENTITY ns_graphs "http://ns.adobe.com/Graphs/1.0/">
	<!ENTITY ns_vars "http://ns.adobe.com/Variables/1.0/">
	<!ENTITY ns_imrep "http://ns.adobe.com/ImageReplacement/1.0/">
	<!ENTITY ns_sfw "http://ns.adobe.com/SaveForWeb/1.0/">
	<!ENTITY ns_custom "http://ns.adobe.com/GenericCustomNamespace/1.0/">
	<!ENTITY ns_adobe_xpath "http://ns.adobe.com/XPath/1.0/">
]>
<svg version="1.1" id="Layer_1"
     xmlns="http://www.w3.org/2000/svg" x="0px" y="0px" viewBox="0 0 841.9 595.3"
     style="enable-background:new 0 0 841.9 595.3;" xml:space="preserve">
<style type="text/css">
	.st0{fill:#F00000;}
	.st1{fill:#FED12D;}
	.st2{fill:#FFA79B;}
	.st3{fill:#5AD0A6;}
	.st4{fill:#FF8525;}
</style>
<metadata>
	<sfw  xmlns="&ns_sfw;">
		<slices></slices>
		<sliceSourceBounds  bottomLeftOrigin="true" height="149.3" width="598.7" x="122.2" y="-380.2"></sliceSourceBounds>
	</sfw>
</metadata>
<g>
	<path class="st0" d="M405.2,259.4c0,0-5.3-35.9-29.7-13.4s20.3,26.3,23.8,48s3.1,32.8,3.1,32.8s5-25.1,21.4-44.5
		c13.9-16.4,58-34.8,28.3-48.5C422.4,220,405.2,259.4,405.2,259.4z"/>
	<path class="st1" d="M422.7,243.6c0,0,13.7-17.4,26.7-5.4c11.9,11-3.6,24.2-10.1,26.6c-6.5,2.4,14.1-9.7,4.8-20.7
		C434.8,233.1,422.7,243.6,422.7,243.6z"/>
	<path class="st2" d="M385.6,250.2c0,0-14.9,2.6-9.9,8.2c4.9,5.6,17.6,13.7,20.7,21s-0.6-7.5-6.1-12.8
		C384.8,261.4,377.5,257.8,385.6,250.2z"/>
</g>
<g>
	<path class="st2" d="M576.1,322l-7.2-5c-0.8,1.3-1.8,2.5-2.9,3.6c-1.1,1.1-2.4,2.2-3.8,3.2s-3,1.8-4.8,2.6
		c-1.8,0.7-3.7,1.3-5.8,1.8c-3.5,0.8-6.7,1-9.6,0.8c-2.9-0.2-5.4-0.9-7.6-2.1c-2.2-1.2-4-2.8-5.4-4.8c-1.4-2.1-2.5-4.5-3.1-7.4
		c-0.5-2.5-0.6-4.7-0.2-6.7c0.4-1.9,1.1-3.7,2.2-5.3s2.4-3,3.9-4.3c1.6-1.3,3.2-2.5,5-3.7c-1.4-1.1-2.6-2.2-3.7-3.2
		c-1.1-1-2-2.1-2.8-3.2c-0.8-1.1-1.4-2.2-2-3.4c-0.5-1.2-0.9-2.5-1.3-4c-0.4-1.9-0.4-3.7,0-5.4c0.4-1.7,1.2-3.2,2.4-4.7
		c1.2-1.4,2.8-2.7,4.8-3.7c2-1.1,4.4-1.9,7.3-2.5c2.8-0.6,5.2-0.8,7.4-0.6c2.2,0.2,4.1,0.7,5.7,1.5c1.6,0.8,2.9,1.9,3.9,3.2
		s1.7,2.8,2,4.5c0.4,1.7,0.4,3.3,0.2,4.9c-0.2,1.5-0.8,3-1.6,4.4c-0.8,1.4-1.9,2.8-3.3,4.2c-1.4,1.4-3.1,2.8-5.1,4.3
		c0.2,0.2,0.4,0.4,0.8,0.5l14.9,10.1c-0.1-2.1-0.3-4.1-0.6-6c-0.3-2-0.6-3.7-1-5.4l-0.8-3.8l18.7-4l1,4.5l-1.3,0.3
		c-0.9,0.2-1.9,0.5-2.7,0.8c-0.9,0.3-1.7,0.7-2.4,1.3c-0.7,0.6-1.3,1.3-1.7,2.2c-0.4,0.9-0.7,2-0.8,3.4c-0.1,1.7-0.3,3.5-0.5,5.4
		c-0.2,1.9-0.5,3.9-1,5.9l10.4,7.1c1,0.7,2.1,1,3.3,1.1c1.2,0,2.6-0.1,4.1-0.5l0.8-0.2l1,4.6L576.1,322z M538.6,312.3
		c0.4,1.7,1,3.2,1.8,4.6c0.9,1.3,1.9,2.5,3.1,3.3c1.2,0.9,2.6,1.5,4.1,1.8c1.5,0.3,3.2,0.3,4.9-0.1c3-0.7,5.5-1.7,7.4-3.1
		c1.9-1.4,3.3-3.1,4.4-5.1l-22.5-15.6c-1,1.1-1.8,2.2-2.4,3.4c-0.6,1.1-0.9,2.3-1.2,3.4s-0.3,2.4-0.2,3.6
		C538.1,309.8,538.3,311,538.6,312.3z M550.3,275.5c-0.2-1-0.5-1.9-0.9-2.7c-0.4-0.8-0.8-1.5-1.4-2.1c-0.6-0.5-1.3-0.9-2.2-1.1
		c-0.9-0.2-1.9-0.2-3.1,0.1c-0.9,0.2-1.7,0.6-2.4,1.1c-0.6,0.5-1.1,1.1-1.4,1.9s-0.5,1.6-0.5,2.5c0,0.9,0.1,1.9,0.3,2.9
		c0.2,1,0.5,1.9,0.9,2.7c0.4,0.8,0.9,1.7,1.6,2.4c0.6,0.8,1.4,1.5,2.2,2.3c0.9,0.7,1.8,1.5,3,2.3c1.1-0.9,1.9-1.9,2.5-2.8
		c0.6-0.9,1.1-1.9,1.4-2.9c0.3-1,0.4-2,0.4-3.1C550.7,278,550.6,276.8,550.3,275.5z"/>
</g>
<path class="st3" d="M172.3,377.6c-2.5,1.3-4.9,2-7.1,2.4c-2.2,0.3-4.2,0.3-6.1-0.2c-1.9-0.5-3.5-1.4-5-2.7c-1.5-1.3-2.7-3-3.7-5
	l-7.6-15.2c-0.9-1.7-1.8-3-2.9-3.8c-1.1-0.8-2.2-1.3-3.5-1.4c-1.2-0.1-2.5,0-3.9,0.4c-1.4,0.4-2.8,0.9-4.3,1.6l-2.7-5.4
	c1.4-0.8,2.7-1.6,3.9-2.5c1.1-0.9,2-1.8,2.7-2.9c0.6-1.1,0.9-2.3,0.9-3.6c0-1.3-0.4-2.8-1.2-4.5l-7.7-15.3c-2.1-4.2-2.4-8-1-11.6
	c1.4-3.5,4.7-6.6,9.7-9.1l8.5-4.3l2.4,4.7l-3.5,1.7c-1.3,0.6-2.2,1.4-2.9,2.1c-0.6,0.8-1,1.7-1.1,2.6c-0.1,1,0,2,0.4,3.2
	c0.4,1.2,0.9,2.5,1.6,3.9l7.6,15.2c1.4,2.7,1.7,5.3,1,7.8s-2.5,5-5.6,7.5l0.4,0.7c3.8-0.9,7-0.8,9.4,0.1c2.4,1,4.3,2.8,5.7,5.5
	l7.6,15.2c0.7,1.4,1.4,2.6,2.1,3.6c0.7,1,1.5,1.7,2.4,2.2c0.9,0.5,1.8,0.7,2.8,0.7c1,0,2.1-0.4,3.4-1l3.5-1.7l2.4,4.7L172.3,377.6z"
	/>
<path class="st4" d="M282,300.6c-3,0.5-6.3,0.6-9.7,0.4c-3.4-0.2-6.8-0.4-10.1-0.7c-3.3-0.3-5.9,0.4-7.9,1.9
	c-2.1,1.6-2.9,4.1-2.4,7.3c0.5,3.2,2.7,7.3,6.6,12.3l-9,7c-5.9-7.6-9-14.4-9.2-20.6c-0.3-6.1,2.3-11.3,7.6-15.4
	c3.2-2.5,7-3.8,11.4-4c4.5-0.2,9.2,0,14.1,0.5c4.9,0.5,8.4,0,10.4-1.6c2-1.6,2.7-3.9,2-7.2c-0.6-3.2-2.8-7.3-6.4-12.4l9.1-7.1
	c6.1,8.7,9.2,15.9,9.3,21.5c0.1,5.6-2.5,10.5-7.7,14.5C287.7,299,285,300.1,282,300.6z"/>
<path class="st1" d="M702,295l18.9,10l-34.4,49.5l-6.1-3.2L702,295z M665.6,365.2c0.9-1.7,1.8-2.9,2.9-3.8s2.2-1.4,3.3-1.7
	c1.2-0.2,2.4-0.2,3.6,0.1c1.2,0.3,2.5,0.8,3.7,1.4c1.2,0.6,2.3,1.4,3.2,2.2c0.9,0.9,1.6,1.8,2.1,2.9c0.5,1.1,0.6,2.3,0.5,3.7
	c-0.1,1.4-0.6,2.9-1.5,4.6c-0.9,1.6-1.8,2.9-2.9,3.7c-1.1,0.8-2.2,1.4-3.3,1.6s-2.4,0.2-3.6,0c-1.2-0.3-2.5-0.7-3.7-1.4
	c-1.2-0.7-2.3-1.4-3.3-2.3c-0.9-0.9-1.6-1.9-2.1-3c-0.4-1.1-0.6-2.3-0.5-3.7S664.8,366.8,665.6,365.2z"/>
</svg>
