<svg xmlns="http://www.w3.org/2000/svg" version="1.1" id="Layer_1" x="0px" y="0px"
     style="enable-background:new 0 0 841.9 595.3;" xml:space="preserve" viewBox="397.47 275.76 46.82 43.84">
<style type="text/css">
	.st0{fill:#F00000;}
	.st1{fill:#FED12D;}
	.st2{fill:#FFA79B;}
</style>
<metadata>
	<sfw xmlns="http://ns.adobe.com/SaveForWeb/1.0/">
		<slices/>
		<sliceSourceBounds bottomLeftOrigin="true" height="43.9" width="46.8" x="397.5" y="-319.6"/>
	</sfw>
</metadata>
<g>
	<path class="st0" d="M415.1,287.9c0,0,2.3-17.8-12.4-10.3c-14.6,7.4,6.1,15.2,4.9,26c-1.2,10.8-2.9,16-2.9,16s5.7-11.3,16.1-18.3   c8.8-6,32.3-8.8,20-19.3C428.6,271.4,415.1,287.9,415.1,287.9z"/>
	<path class="st1" d="M425.6,282.7c0,0,8.9-6.5,13.4,1c4.2,6.8-5,11-8.4,11.3c-3.4,0.3,8-2.7,5.1-9.2S425.6,282.7,425.6,282.7z"/>
	<path class="st2" d="M407.1,280.9c0,0-7.4-0.7-5.8,2.6s6.6,8.9,7.1,12.8s0.7-3.7-1.2-6.9C405.2,286.1,402.2,283.4,407.1,280.9z"/>
</g>
</svg>
