<svg xmlns="http://www.w3.org/2000/svg" version="1.1" id="Layer_1" x="0px" y="0px"
     style="enable-background:new 0 0 841.9 595.3;" xml:space="preserve" viewBox="406.59 280.9 28.71 33.5">
<style type="text/css">
	.st0{fill:#FF8525;}
</style>
<metadata>
	<sfw xmlns="http://ns.adobe.com/SaveForWeb/1.0/">
		<slices/>
		<sliceSourceBounds bottomLeftOrigin="true" height="33.5" width="28.5" x="406.7" y="-314.4"/>
	</sfw>
</metadata>
<path class="st0" d="M427.4,300.4c-1.5,0.2-3.1,0.3-4.8,0.2c-1.7-0.1-3.4-0.2-5-0.4s-2.9,0.2-3.9,1c-1,0.8-1.4,2-1.2,3.6  c0.3,1.6,1.3,3.6,3.2,6.1l-4.5,3.5c-2.9-3.7-4.4-7.1-4.6-10.2c-0.1-3,1.1-5.6,3.8-7.6c1.6-1.2,3.4-1.9,5.7-2s4.5,0,7,0.2  c2.4,0.3,4.1,0,5.2-0.8c1-0.8,1.3-1.9,1-3.5c-0.3-1.6-1.4-3.6-3.1-6.1l4.5-3.5c3,4.3,4.6,7.8,4.6,10.6c0,2.8-1.2,5.2-3.8,7.2  C430.2,299.6,428.9,300.2,427.4,300.4z"/>
</svg>
