<svg xmlns:x="http://ns.adobe.com/Extensibility/1.0/" xmlns:i="http://ns.adobe.com/AdobeIllustrator/10.0/" xmlns:graph="http://ns.adobe.com/Graphs/1.0/" xmlns="http://www.w3.org/2000/svg" xmlns:xlink="http://www.w3.org/1999/xlink" version="1.1" id="Layer_1" x="0px" y="0px" style="enable-background:new 0 0 841.9 595.3;" xml:space="preserve" viewBox="400.46 281 40.74 32.95">
<style type="text/css">
	.st0{fill:#5AD0A6;}
</style>
<metadata>
	<sfw xmlns="http://ns.adobe.com/SaveForWeb/1.0/">
		<slices/>
		<sliceSourceBounds bottomLeftOrigin="true" height="32.7" width="40.7" x="400.6" y="-314"/>
	</sfw>
</metadata>
<path class="st0" d="M438.7,309.7c-0.8,1.1-1.6,2.1-2.5,2.7c-0.9,0.7-1.8,1.1-2.7,1.4c-0.9,0.2-1.9,0.2-2.8,0  c-0.9-0.2-1.9-0.6-2.8-1.3l-7-4.8c-0.8-0.5-1.5-0.8-2.2-0.9c-0.7-0.1-1.3,0-1.8,0.2c-0.6,0.2-1.1,0.6-1.6,1.1  c-0.5,0.5-1,1.1-1.5,1.7l-2.5-1.7c0.4-0.7,0.8-1.3,1.1-2c0.3-0.6,0.4-1.3,0.4-1.9c0-0.6-0.1-1.2-0.5-1.8c-0.3-0.6-0.9-1.1-1.6-1.6  l-7-4.8c-1.9-1.3-3-2.9-3.2-4.8c-0.2-1.9,0.4-4,2-6.3l2.6-3.9l2.1,1.5l-1.1,1.6c-0.4,0.6-0.6,1.1-0.7,1.6c-0.1,0.5,0,1,0.2,1.4  c0.2,0.4,0.5,0.9,0.9,1.3c0.4,0.4,1,0.9,1.6,1.3l6.9,4.7c1.2,0.8,2,1.9,2.3,3.1c0.3,1.2,0.1,2.8-0.6,4.6l0.3,0.2  c1.5-1.3,2.8-2,4.1-2.2c1.3-0.2,2.5,0.2,3.8,1l7,4.8c0.6,0.4,1.2,0.8,1.8,1c0.6,0.3,1.1,0.4,1.6,0.4c0.5,0,0.9-0.1,1.4-0.4  c0.4-0.3,0.8-0.7,1.2-1.3l1.1-1.6l2.2,1.5L438.7,309.7z"/>
</svg>