<?xml version="1.0" encoding="utf-8"?>
<!-- Generator: Adobe Illustrator 27.3.1, SVG Export Plug-In . SVG Version: 6.00 Build 0)  -->
<!DOCTYPE svg PUBLIC "-//W3C//DTD SVG 1.1//EN" "http://www.w3.org/Graphics/SVG/1.1/DTD/svg11.dtd" [
	<!ENTITY ns_extend "http://ns.adobe.com/Extensibility/1.0/">
	<!ENTITY ns_ai "http://ns.adobe.com/AdobeIllustrator/10.0/">
	<!ENTITY ns_graphs "http://ns.adobe.com/Graphs/1.0/">
	<!ENTITY ns_vars "http://ns.adobe.com/Variables/1.0/">
	<!ENTITY ns_imrep "http://ns.adobe.com/ImageReplacement/1.0/">
	<!ENTITY ns_sfw "http://ns.adobe.com/SaveForWeb/1.0/">
	<!ENTITY ns_custom "http://ns.adobe.com/GenericCustomNamespace/1.0/">
	<!ENTITY ns_adobe_xpath "http://ns.adobe.com/XPath/1.0/">
]>
<svg version="1.1" id="Layer_1" xmlns:x="&ns_extend;" xmlns:i="&ns_ai;" xmlns:graph="&ns_graphs;"
	 xmlns="http://www.w3.org/2000/svg" xmlns:xlink="http://www.w3.org/1999/xlink" x="0px" y="0px" viewBox="0 0 841.9 595.3"
	 style="enable-background:new 0 0 841.9 595.3;" xml:space="preserve">
<style type="text/css">
	.st0{fill:#FED12D;}
</style>
<metadata>
	<sfw  xmlns="&ns_sfw;">
		<slices></slices>
		<sliceSourceBounds  bottomLeftOrigin="true" height="35.2" width="37.9" x="402" y="-315.2"></sliceSourceBounds>
	</sfw>
</metadata>
<path class="st0" d="M432.9,280.1l7,7.9l-24.5,17l-2.3-2.6L432.9,280.1z M403.9,306.3c0.7-0.6,1.4-1,2-1.3c0.6-0.2,1.2-0.3,1.8-0.2
	c0.6,0.1,1.1,0.3,1.7,0.7c0.5,0.4,1,0.8,1.5,1.3c0.4,0.5,0.8,1,1.1,1.6c0.3,0.6,0.4,1.1,0.5,1.7c0,0.6-0.1,1.2-0.4,1.8
	c-0.3,0.6-0.8,1.2-1.5,1.9c-0.7,0.6-1.3,1-2,1.2c-0.6,0.2-1.2,0.3-1.8,0.2c-0.6-0.1-1.1-0.3-1.7-0.6c-0.5-0.3-1-0.8-1.5-1.3
	c-0.5-0.5-0.8-1.1-1.1-1.6c-0.3-0.6-0.4-1.1-0.4-1.7c0-0.6,0.1-1.2,0.4-1.8C402.7,307.5,403.2,306.9,403.9,306.3z"/>
</svg>
