<svg xmlns="http://www.w3.org/2000/svg" version="1.1" id="Layer_1" x="0px" y="0px"
     style="enable-background:new 0 0 841.9 595.3;" xml:space="preserve" viewBox="402.1 280.1 37.8 35.14">
<style type="text/css">
	.st0{fill:#FED12D;}
</style>
<metadata>
	<sfw xmlns="http://ns.adobe.com/SaveForWeb/1.0/">
		<slices/>
		<sliceSourceBounds bottomLeftOrigin="true" height="35.2" width="37.9" x="402" y="-315.2"/>
	</sfw>
</metadata>
<path class="st0" d="M432.9,280.1l7,7.9l-24.5,17l-2.3-2.6L432.9,280.1z M403.9,306.3c0.7-0.6,1.4-1,2-1.3c0.6-0.2,1.2-0.3,1.8-0.2  c0.6,0.1,1.1,0.3,1.7,0.7c0.5,0.4,1,0.8,1.5,1.3c0.4,0.5,0.8,1,1.1,1.6c0.3,0.6,0.4,1.1,0.5,1.7c0,0.6-0.1,1.2-0.4,1.8  c-0.3,0.6-0.8,1.2-1.5,1.9c-0.7,0.6-1.3,1-2,1.2c-0.6,0.2-1.2,0.3-1.8,0.2c-0.6-0.1-1.1-0.3-1.7-0.6c-0.5-0.3-1-0.8-1.5-1.3  c-0.5-0.5-0.8-1.1-1.1-1.6c-0.3-0.6-0.4-1.1-0.4-1.7c0-0.6,0.1-1.2,0.4-1.8C402.7,307.5,403.2,306.9,403.9,306.3z"/>
</svg>
