<?xml version="1.0" encoding="utf-8"?>
<!-- Generator: Adobe Illustrator 27.3.1, SVG Export Plug-In . SVG Version: 6.00 Build 0)  -->
<!DOCTYPE svg PUBLIC "-//W3C//DTD SVG 1.1//EN" "http://www.w3.org/Graphics/SVG/1.1/DTD/svg11.dtd" [
	<!ENTITY ns_extend "http://ns.adobe.com/Extensibility/1.0/">
	<!ENTITY ns_ai "http://ns.adobe.com/AdobeIllustrator/10.0/">
	<!ENTITY ns_graphs "http://ns.adobe.com/Graphs/1.0/">
	<!ENTITY ns_vars "http://ns.adobe.com/Variables/1.0/">
	<!ENTITY ns_imrep "http://ns.adobe.com/ImageReplacement/1.0/">
	<!ENTITY ns_sfw "http://ns.adobe.com/SaveForWeb/1.0/">
	<!ENTITY ns_custom "http://ns.adobe.com/GenericCustomNamespace/1.0/">
	<!ENTITY ns_adobe_xpath "http://ns.adobe.com/XPath/1.0/">
]>
<svg version="1.1" id="Layer_1" xmlns:x="&ns_extend;" xmlns:i="&ns_ai;" xmlns:graph="&ns_graphs;"
	 xmlns="http://www.w3.org/2000/svg" xmlns:xlink="http://www.w3.org/1999/xlink" x="0px" y="0px" viewBox="0 0 841.9 595.3"
	 style="enable-background:new 0 0 841.9 595.3;" xml:space="preserve">
<style type="text/css">
	.st0{fill:#FFA79B;}
</style>
<metadata>
	<sfw  xmlns="&ns_sfw;">
		<slices></slices>
		<sliceSourceBounds  bottomLeftOrigin="true" height="32.2" width="33.4" x="404.2" y="-313.7"></sliceSourceBounds>
	</sfw>
</metadata>
<g>
	<path class="st0" d="M429.3,310.2l-3.6-2.5c-0.4,0.6-0.9,1.2-1.4,1.8c-0.5,0.6-1.2,1.1-1.9,1.6c-0.7,0.5-1.5,0.9-2.4,1.3
		c-0.9,0.4-1.8,0.7-2.9,0.9c-1.7,0.4-3.3,0.5-4.7,0.4c-1.4-0.1-2.7-0.5-3.7-1c-1.1-0.6-2-1.4-2.7-2.4s-1.2-2.2-1.5-3.6
		c-0.3-1.2-0.3-2.3-0.1-3.3c0.2-1,0.6-1.8,1.1-2.6s1.2-1.5,2-2.1c0.8-0.6,1.6-1.3,2.5-1.8c-0.7-0.5-1.3-1.1-1.8-1.6
		c-0.5-0.5-1-1-1.4-1.6c-0.4-0.5-0.7-1.1-1-1.7c-0.3-0.6-0.5-1.2-0.6-2c-0.2-0.9-0.2-1.8,0-2.7s0.6-1.6,1.2-2.3
		c0.6-0.7,1.4-1.3,2.4-1.8s2.2-0.9,3.6-1.2c1.4-0.3,2.6-0.4,3.7-0.3c1.1,0.1,2,0.4,2.8,0.8c0.8,0.4,1.4,0.9,1.9,1.6
		c0.5,0.7,0.8,1.4,1,2.2c0.2,0.9,0.2,1.7,0.1,2.4c-0.1,0.7-0.4,1.5-0.8,2.2s-1,1.4-1.6,2.1c-0.7,0.7-1.5,1.4-2.5,2.1
		c0.1,0.1,0.2,0.2,0.4,0.2l7.4,5c0-1-0.1-2-0.3-3c-0.2-1-0.3-1.9-0.5-2.7l-0.4-1.9l9.3-2l0.5,2.2l-0.7,0.1c-0.5,0.1-0.9,0.2-1.4,0.4
		c-0.4,0.2-0.8,0.4-1.2,0.7s-0.6,0.6-0.8,1.1c-0.2,0.4-0.3,1-0.4,1.7c-0.1,0.8-0.1,1.7-0.2,2.7c-0.1,1-0.3,1.9-0.5,2.9l5.2,3.5
		c0.5,0.3,1,0.5,1.6,0.5c0.6,0,1.3-0.1,2-0.2l0.4-0.1l0.5,2.3L429.3,310.2z M410.7,305.5c0.2,0.8,0.5,1.6,0.9,2.3
		c0.4,0.7,0.9,1.2,1.5,1.6c0.6,0.4,1.3,0.7,2,0.9c0.8,0.2,1.6,0.1,2.4,0c1.5-0.3,2.7-0.8,3.6-1.6s1.6-1.6,2.2-2.5l-11.1-7.7
		c-0.5,0.6-0.9,1.1-1.2,1.7c-0.3,0.6-0.5,1.1-0.6,1.7s-0.1,1.2-0.1,1.8C410.5,304.2,410.6,304.8,410.7,305.5z M416.5,287.3
		c-0.1-0.5-0.3-0.9-0.4-1.4c-0.2-0.4-0.4-0.7-0.7-1c-0.3-0.3-0.6-0.5-1.1-0.5s-0.9-0.1-1.5,0c-0.5,0.1-0.9,0.3-1.2,0.5
		c-0.3,0.3-0.5,0.6-0.7,0.9c-0.2,0.4-0.2,0.8-0.3,1.2c0,0.5,0,0.9,0.1,1.5c0.1,0.5,0.3,0.9,0.5,1.3c0.2,0.4,0.5,0.8,0.8,1.2
		c0.3,0.4,0.7,0.8,1.1,1.1c0.4,0.4,0.9,0.8,1.5,1.2c0.5-0.5,0.9-0.9,1.3-1.4s0.5-0.9,0.7-1.4c0.1-0.5,0.2-1,0.2-1.5
		C416.7,288.5,416.6,287.9,416.5,287.3z"/>
</g>
</svg>
