<?xml version="1.0" encoding="utf-8"?>
<!-- Generator: Adobe Illustrator 27.4.1, SVG Export Plug-In . SVG Version: 6.00 Build 0)  -->
<svg version="1.1" id="Layer_1" xmlns="http://www.w3.org/2000/svg" xmlns:xlink="http://www.w3.org/1999/xlink" x="0px" y="0px"
	 viewBox="0 0 841.9 595.3" style="enable-background:new 0 0 841.9 595.3;" xml:space="preserve">
<style type="text/css">
	.st0{fill:#650729;}
</style>
<g>
	<g>
		<g id="Kombo-logo">
			<g id="nBankID_Main_Logo" transform="translate(10.762 11.598)">
				<path id="Path_103" class="st0" d="M277.7,227.2h-13c-1.8,0-3.2-1.5-3.2-3.3l0,0c0-1.8,1.5-3.2,3.2-3.3h13
					c1.8,0,3.2,1.5,3.2,3.3C280.9,225.7,279.5,227.2,277.7,227.2L277.7,227.2z"/>
				<path id="Path_104" class="st0" d="M277.7,253.2h-13c-1.8,0-3.2-1.5-3.2-3.2l0,0c0-1.8,1.5-3.2,3.2-3.3h13
					c1.8,0,3.2,1.5,3.2,3.3C280.9,251.7,279.5,253.2,277.7,253.2z"/>
				<path id="Path_105" class="st0" d="M277.7,266.2h-13c-1.8,0-3.2-1.5-3.2-3.3l0,0c0-1.8,1.5-3.2,3.2-3.3h13
					c1.8,0,3.2,1.5,3.2,3.3C280.9,264.8,279.5,266.2,277.7,266.2L277.7,266.2z"/>
				<path id="Path_106" class="st0" d="M303.7,240.2h-13c-1.8,0-3.2-1.5-3.2-3.3c0-1.8,1.5-3.2,3.2-3.3h13c1.8,0,3.2,1.5,3.2,3.3
					C306.9,238.7,305.4,240.2,303.7,240.2z"/>
				<path id="Path_107" class="st0" d="M303.7,253.2h-13c-1.8,0-3.2-1.5-3.2-3.3c0-1.8,1.5-3.2,3.2-3.3h13c1.8,0,3.2,1.5,3.2,3.3
					C306.9,251.7,305.4,253.2,303.7,253.2z"/>
				<path id="Path_108" class="st0" d="M329.6,227.2h-13c-1.8,0-3.2-1.5-3.2-3.3c0-1.8,1.5-3.2,3.2-3.3h13c1.8,0,3.2,1.5,3.2,3.3
					C332.8,225.7,331.4,227.2,329.6,227.2L329.6,227.2z"/>
				<path id="Path_109" class="st0" d="M329.6,240.2h-13c-1.8,0-3.2-1.5-3.2-3.3c0-1.8,1.5-3.2,3.2-3.3h13c1.8,0,3.2,1.5,3.2,3.3
					C332.8,238.7,331.4,240.2,329.6,240.2L329.6,240.2z"/>
				<path id="Path_110" class="st0" d="M329.6,266.2h-13c-1.8,0-3.2-1.5-3.2-3.3c0-1.8,1.4-3.2,3.2-3.2h13c1.8,0,3.2,1.5,3.2,3.3
					C332.8,264.8,331.4,266.2,329.6,266.2L329.6,266.2z"/>
				<path id="Path_111" class="st0" d="M360.5,249.1c0,6.9,3.9,10.6,8.4,10.6c4.1,0,8.6-3.5,8.6-10.6c0-7.2-4.3-10.4-8.4-10.4
					C364.6,238.7,360.5,241.9,360.5,249.1z M360.5,220.7v16.9c2.4-3.9,6.7-6.2,11.2-6.1c6.5,0,14.3,5.4,14.3,17.4
					c0,12.4-7.3,18.4-14.9,18.4c-4.3,0.1-8.2-2.2-10.4-5.9v4.8h-8.4v-45.5H360.5z"/>
				<path id="Path_112" class="st0" d="M398.3,249.3c0,7.2,4.3,10.4,8.4,10.4c4.6,0,8.4-3,8.4-10.4c0-7.2-3.9-10.6-8.4-10.6
					C402.8,238.7,398.3,241.9,398.3,249.3z M390.1,248.9c0-11.7,7.6-17.6,15.1-17.6c4.1-0.2,7.9,1.8,10.2,5.2v-4.3h8.2v34h-8.2v-4.8
					c-2.5,3.7-6.8,5.8-11.2,5.6C397.6,267.1,390.1,261.5,390.1,248.9"/>
				<path id="Path_113" class="st0" d="M439.8,246.9v19.3h-8.2v-33.8h8.2v5c2.1-3.7,6.1-6,10.4-5.9c5.8,0,11.5,3,11.5,12.1v22.6
					h-8.2v-19.5c0-5.6-2.8-7.8-6.5-7.8c-3.2,0-6,2-6.9,5C439.7,244.9,439.7,245.9,439.8,246.9"/>
				<path id="Path_114" class="st0" d="M469.4,220.7v45.5h8.2V258l4.6-5.6l9.3,13.9h9l-13.4-19.7l11.7-14.1h-9.3L477.6,248v-27.3
					H469.4z"/>
				<path id="Path_115" class="st0" d="M516.9,222.2h-8.4v44h8.4V222.2z"/>
				<path id="Path_116" class="st0" d="M541.3,222.2h-16v44h16c9.1,0.6,17.5-4.9,20.6-13.4c1-2.8,1.4-5.7,1.2-8.7
					C563.2,229.4,553.2,222.2,541.3,222.2z M541.3,258.4h-7.6V230h7.6c6.9,0,12.7,4.6,12.7,14.3
					C554.1,253.9,548.3,258.4,541.3,258.4z"/>
			</g>
		</g>
	</g>
	<g id="nBankAxept" transform="translate(474.762 11.262)">
		<path id="Path_94" class="st0" d="M-169.8,313.3c0,12-7.2,17.9-14.5,17.9c-4.1,0.1-8-2.1-10.1-5.7v4.9h-8.1v-44.4h8v16.5
			c2.2-3.8,6.3-6.2,10.8-6.1C-177.3,296.4-169.8,301.8-169.8,313.3z M-194.4,313.7c0,6.8,3.9,10.3,8.2,10.3c4.1,0,8.3-3.3,8.3-10.3
			c0-6.9-4.2-10.2-8.3-10.2C-190.5,303.5-194.4,306.6-194.4,313.7L-194.4,313.7z"/>
		<path id="Path_95" class="st0" d="M-165.7,313.4c0-11.5,7.3-17.1,14.7-17.1c4-0.1,7.8,1.8,10,5.2v-4.2h8v33h-8v-4.6
			c-2.5,3.5-6.6,5.6-10.9,5.5C-158.3,331.1-165.7,325.5-165.7,313.4z M-157.6,313.8c0,7,4.2,10.1,8.3,10.1c4.4,0,8.3-2.9,8.3-10.1
			c0-7-3.9-10.4-8.2-10.4C-153.3,303.5-157.6,306.7-157.6,313.8L-157.6,313.8z"/>
		<path id="Path_96" class="st0" d="M-117.2,311.4v18.8h-8v-33h8v4.9c2.1-3.7,6-5.9,10.2-5.8c5.7,0,11.1,2.9,11.1,11.8v22.1h-8v-19
			c0-5.5-2.7-7.5-6.2-7.5c-3.1-0.2-5.9,1.8-6.8,4.7C-117.3,309.4-117.3,310.5-117.2,311.4z"/>
		<path id="Path_97" class="st0" d="M-88.5,285.9h8v26.6l11.6-15.2h9L-71.2,311l13.1,19.3H-67l-9-13.6l-4.5,5.4v8.1h-8L-88.5,285.9z
			"/>
		<path id="Path_98" class="st0" d="M-56.3,312.5c0-11.5,7.3-17.1,14.7-17.1c4-0.1,7.8,1.8,10,5.2v-4.2h8v33h-8v-4.6
			c-2.5,3.5-6.6,5.6-10.9,5.5C-49,330.2-56.3,324.6-56.3,312.5z M-48.2,312.9c0,7,4.2,10.1,8.3,10.1c4.4,0,8.3-2.9,8.3-10.1
			c0-7-3.9-10.4-8.2-10.4C-44,302.6-48.2,305.8-48.2,312.9L-48.2,312.9z"/>
		<path id="Path_99" class="st0" d="M2.1,327l-4.4-4.5c-0.4-0.6-1.1-0.9-1.8-1c-0.6,0-1.1,0.3-1.8,1.1l-10.6,11.2
			c-1.1,1.4-2.7,2.2-4.4,2.4c-1.2,0.1-2.3-0.6-2.8-1.8c-0.2-0.4-0.2-0.8-0.2-1.1c0.2-1.5,1-3,2.2-3.9l10.9-11.6
			c1.5-2.1,4-3.4,6.6-3.5c2.7,0.1,5.2,1.4,6.8,3.6l4.3,4.5c1.3,1,2.1,2.5,2.3,4.2c0.1,1.5-1.1,2.9-2.7,2.9c-0.1,0-0.2,0-0.3,0
			C4.6,329.2,3,328.4,2.1,327L2.1,327z M-10.7,298.6l4.4,4.5c0.4,0.6,1.1,0.9,1.8,1c0.6,0,1.1-0.3,1.8-1.1l10.6-11.2
			c1.1-1.4,2.7-2.2,4.4-2.4c1.6-0.1,2.9,1.2,3,2.7c0,0.1,0,0.1,0,0.2c-0.2,1.5-1,3-2.2,3.9L2.2,307.8c-1.5,2.1-4,3.4-6.6,3.5
			c-2.7-0.1-5.2-1.4-6.8-3.6l-4.3-4.5c-1.3-1-2.1-2.5-2.3-4.2c-0.1-1.2,0.7-2.3,1.8-2.7c0.4-0.1,0.8-0.2,1.1-0.2
			C-13.1,296.3-11.6,297.2-10.7,298.6L-10.7,298.6z"/>
		<path id="Path_100" class="st0" d="M20.5,314.6c0,2.3,0.9,4.5,2.5,6.1c1.6,1.6,3.9,2.5,6.2,2.4c5,0,7-2,7.6-5.2l7.3,1.1
			c-1.5,6.8-7.7,11.5-14.6,11.1c-7.1,0.3-13.7-4-16.2-10.7c-0.8-2.2-1.2-4.5-1-6.8c-0.5-6.9,3.5-13.4,9.9-16.1
			c2.1-0.9,4.3-1.3,6.5-1.2c8.8,0,15.1,6.9,15.1,16.6v2.5H20.5z M20.8,308.8h15.3c-0.1-1.9-1-3.7-2.4-4.9c-1.4-1.2-3.3-1.8-5.2-1.7
			C24.6,302,21.2,304.9,20.8,308.8L20.8,308.8z"/>
		<path id="Path_101" class="st0" d="M58.1,296.4v4.5c2.4-3.5,6.5-5.6,10.8-5.4c6.4,0,13.9,5.4,13.9,16.9c0,12-7.2,17.9-14.5,17.9
			c-4,0.1-7.8-1.9-10.1-5.2v15.8h-8v-44.4L58.1,296.4z M58.1,312.8c0,6.8,3.9,10.3,8.2,10.3c4.1,0,8.3-3.3,8.3-10.3
			c0-6.9-4.2-10.2-8.3-10.2C62,302.6,58.1,305.7,58.1,312.8L58.1,312.8z"/>
		<path id="Path_102" class="st0" d="M91.2,296.4v-8l8-1.1v9.1h8.1v6.7h-8.1v16c0,2.3,0.7,3.5,3.2,3.5c1.5,0,3-0.2,4.4-0.6l1.1,6.2
			c-2.5,1.1-5.2,1.6-7.9,1.7c-4.3,0.6-8.3-2.4-8.9-6.6c-0.1-0.7-0.1-1.4,0-2.2v-18h-5.6v-6.7H91.2z"/>
	</g>
</g>
</svg>
