<svg width="300" height="135" viewBox="0 0 300 135" fill="none" xmlns="http://www.w3.org/2000/svg">
<path fill-rule="evenodd" clip-rule="evenodd" d="M137.237 16.8243C142.076 16.8243 141.608 18.5095 144.846 18.5095C147.995 18.5095 146.468 16.8243 152.737 16.8243C156.826 16.8243 160.57 20.0403 161.873 23.7278C162.46 25.3873 162.151 26.6071 162.756 28.1853C163.844 31.0267 166.268 29.8189 168.873 32.761C172.724 37.1092 173.216 44.853 168.126 48.4525C165.626 50.2206 162.259 50.529 158.091 50.529C157.615 56.2302 152.107 64.767 144.283 60.6404C138.223 69.6588 129.065 63.4793 129.065 57.27C129.065 54.3046 131.319 53.9853 131.319 51.9332C131.319 50.328 130.177 49.5811 128.755 49.4331C126.57 49.2057 126.17 49.4713 124.555 48.5635C118.204 44.9938 120.688 32.4332 127.937 32.2722C127.937 29.3176 125.613 26.5599 128.829 21.645C130.387 19.2635 133.404 16.8243 137.237 16.8243V16.8243ZM138.364 11.7685C130.807 11.7685 125.386 15.6137 122.979 21.9933C122.109 24.2979 122.019 26.1187 122.019 29.1826C115.833 32.4452 113.648 43.3422 118.389 49.6528C119.607 51.2726 122.054 53.6919 124.556 53.8995C123.946 56.5062 123.992 54.7096 123.992 58.1125C123.992 63.5542 129.863 70.1901 136.392 70.1901C139.726 70.1901 141.94 69.8493 144.626 67.1622C145.926 65.862 146.079 66.2332 148.511 66.2587C152.897 66.305 155.737 65.105 158.297 61.688C159.357 60.2733 161.015 57.1398 161.191 55.023C168.169 55.023 172.88 52.6316 175.474 47.069C177.996 41.6614 177.278 35.8722 173.995 31.0266C172.837 29.3168 169.545 26.3122 167.391 25.8121C167.391 16.5605 156.451 9.18995 147.345 12.2926C144.396 13.297 145.504 13.702 143.286 12.7763C141.849 12.1763 140.239 11.7685 138.364 11.7685V11.7685Z" fill="black"/>
<path fill-rule="evenodd" clip-rule="evenodd" d="M168.8 68.5048C166.013 67.8577 162.119 64.2448 161.473 61.483H160.91C160.577 65.4699 159.166 63.4141 157.99 66.1568C157.187 68.0297 157.451 71.1619 157.987 73.1029C158.561 75.1822 159.4 76.7344 160.359 78.3228C160.921 79.2537 162.981 82.2843 163.728 82.8293C164.222 81.8016 167.02 73.512 167.109 72.437C165.476 72.0576 164.803 71.348 163.446 71.0327C163.148 71.6523 162.6 74.5274 162.6 75.5266H162.319C162.319 73.6612 161.579 69.8834 161.191 68.224C161.937 68.7217 162.138 69.093 162.812 69.6983C166.048 72.6022 176.49 74.6841 180.636 74.6841C180.03 73.8589 174.395 70.8771 172.354 66.6483C171.329 64.5253 171.851 62.389 170.153 60.6967C168.733 59.2824 166.195 58.4717 164.009 59.5169C164.108 63.9461 167.696 66.8611 168.8 68.5048V68.5048Z" fill="black"/>
<path fill-rule="evenodd" clip-rule="evenodd" d="M133.574 112.321C133.574 107.423 137.237 109.053 137.237 111.198C137.237 113.952 136.775 114.403 133.855 113.726C133.708 113.096 133.574 113.08 133.574 112.321ZM137.237 106.423C132.276 103.112 128.783 107.989 128.783 111.478C128.783 116.854 133.117 119.753 137.519 116.815C137.635 118.205 137.503 117.939 140.901 117.939C141.55 117.939 141.746 117.743 141.746 117.096V99.6818H137.237V106.423V106.423Z" fill="black"/>
<path fill-rule="evenodd" clip-rule="evenodd" d="M86.2291 118.219C89.824 118.219 91.4286 116.266 92.7109 115.411C91.9988 114.351 90.6773 113.208 89.8927 112.04C88.0326 113.282 89.1611 113.725 85.3837 113.725C80.8143 113.725 80.0459 104.176 86.2291 104.176C87.1069 104.176 88.5737 104.825 89.0635 105.283C89.5539 105.742 89.401 105.359 89.6109 106.142L92.7109 102.49C91.4917 101.847 91.3397 101.331 90.1846 100.795C83.4522 97.6697 77.0269 103.084 76.9293 109.07V109.275C76.9463 111.405 77.768 113.595 79.6685 115.489C81.1163 116.932 83.4866 118.219 86.2291 118.219V118.219Z" fill="black"/>
<path fill-rule="evenodd" clip-rule="evenodd" d="M115.256 113.445C115.256 116.748 117.288 117.939 120.047 117.939C121.793 117.939 121.887 117.468 122.865 116.815C122.981 118.205 122.849 117.939 126.247 117.939C126.896 117.939 127.092 117.743 127.092 117.096V105.58H122.583C122.583 108.121 122.872 111.001 122.301 113.445C118.972 114.218 119.765 114.277 119.765 105.58H115.256V113.445Z" fill="black"/>
<path fill-rule="evenodd" clip-rule="evenodd" d="M107.365 114.006C103.799 114.006 105.299 110.205 105.527 109.927C106.983 108.151 109.056 109.925 109.056 111.759C109.056 112.632 108.305 114.006 107.365 114.006ZM100.32 111.759C100.32 114.915 103.121 117.939 106.238 117.939H107.647C112.783 117.939 115.724 111.223 111.678 107.18C107.845 103.351 100.32 105.719 100.32 111.759V111.759Z" fill="black"/>
<path fill-rule="evenodd" clip-rule="evenodd" d="M94.1199 117.939H97.7834C98.4328 117.939 98.6289 117.743 98.6289 117.096V99.6818H94.1199V117.939Z" fill="black"/>
<path fill-rule="evenodd" clip-rule="evenodd" d="M146.819 112.883C146.819 110.758 146.527 106.704 150.764 106.704C154.981 106.704 154.71 110.58 154.71 112.883C154.71 118.114 146.819 118.114 146.819 112.883V112.883ZM145.128 99.9627V117.096C145.128 118.01 146.819 119.009 146.819 116.253C148.098 117.107 147.598 117.448 149.414 117.888C150.953 118.26 151.778 118.145 153.066 117.707C157.597 116.164 157.431 107.449 153.276 105.885C149.278 104.379 147.681 106.69 146.819 107.265C146.819 105.767 146.814 104.269 146.819 102.771C146.824 101.362 147.278 99.12 145.973 99.12C145.324 99.12 145.128 99.3154 145.128 99.9627V99.9627Z" fill="black"/>
<path fill-rule="evenodd" clip-rule="evenodd" d="M198.672 106.704C201.883 106.704 202.336 108.788 202.336 110.917H195.009C195.009 108.252 196.581 106.704 198.672 106.704ZM193.318 111.759C193.318 120.061 203.62 119.611 203.745 114.006H202.336C202.032 117.648 195.009 118.383 195.009 112.321C197.397 112.321 204.027 112.842 204.027 111.759C204.027 102.869 193.318 103.55 193.318 111.759V111.759Z" fill="black"/>
<path fill-rule="evenodd" clip-rule="evenodd" d="M164.291 106.704C166.753 106.704 167.9 108.46 167.955 110.917H160.346C160.534 108.66 161.87 106.704 164.291 106.704ZM158.937 111.198C158.937 121.045 168.949 118.981 169.364 114.006C166.28 114.006 168.701 115.498 166.154 116.424C162.895 117.609 160.637 115.812 160.346 112.321C161.943 112.321 163.54 112.32 165.137 112.321C167.96 112.323 169.364 112.979 169.364 110.917C169.364 103.216 158.937 103.711 158.937 111.198V111.198Z" fill="black"/>
<path fill-rule="evenodd" clip-rule="evenodd" d="M206.845 108.951C206.845 113.131 214.172 111.663 214.172 114.006C214.172 115.65 213.736 116.815 211.636 116.815C209.481 116.815 208.141 116.021 207.972 114.006C206.506 114.039 205.986 114.556 207.272 116.385C209.279 119.24 215.863 118.488 215.863 114.568C215.863 109.419 208.536 112.747 208.536 108.389C208.536 106.501 213.806 105.441 213.89 109.232C215.276 109.232 216.347 108.954 214.619 106.822C212.605 104.338 206.845 105.132 206.845 108.951V108.951Z" fill="black"/>
<path fill-rule="evenodd" clip-rule="evenodd" d="M180.636 106.423V117.939C183.17 117.939 182.306 116.707 182.311 110.339C182.313 108.679 182.461 108.045 183.619 107.422C185.335 106.5 186.273 107.799 186.273 106.423C186.273 105.558 185.882 105.58 185.145 105.58C183.399 105.58 183.305 106.051 182.327 106.704C182.17 104.825 180.636 105.44 180.636 106.423V106.423Z" fill="black"/>
<path fill-rule="evenodd" clip-rule="evenodd" d="M172.746 106.423V117.096C172.746 118.094 173.295 117.939 174.437 117.939C174.437 115.043 173.895 109.069 175.243 107.788C176.558 106.538 177.905 107.155 178.382 107.265V105.58C176.137 105.58 176.307 105.455 174.437 106.704C174.28 104.825 172.746 105.44 172.746 106.423V106.423Z" fill="black"/>
<path fill-rule="evenodd" clip-rule="evenodd" d="M188.527 106.423V117.096C188.527 118.03 189.033 117.918 189.936 117.939V105.58C189.033 105.6 188.527 105.489 188.527 106.423V106.423Z" fill="black"/>
<path fill-rule="evenodd" clip-rule="evenodd" d="M188.245 101.367C188.245 102.024 188.713 102.49 189.373 102.49C190.954 102.49 190.432 100.95 189.373 100.243C188.751 100.571 188.245 100.488 188.245 101.367V101.367Z" fill="black"/>
</svg>
