<?xml version="1.0" encoding="utf-8"?>
<!-- Generator: Adobe Illustrator 26.3.1, SVG Export Plug-In . SVG Version: 6.00 Build 0)  -->
<svg version="1.1" id="Lager_1" xmlns="http://www.w3.org/2000/svg" xmlns:xlink="http://www.w3.org/1999/xlink" x="0px" y="0px"
	 viewBox="0 0 548.7 222" style="enable-background:new 0 0 548.7 222;" xml:space="preserve">
<g>
	<path d="M340.6,75.2l0,64.9h12.7l0-55c3.3-0.2,9.6-0.5,13.5-0.5c8.8,0.5,11.6,4.4,11.6,20.8l0,34.7l12.8,0l0-32.3
		c0-24.6-6.4-33.3-25.1-33.7C356.8,74,340.6,75.2,340.6,75.2z"/>
	<rect x="315.5" y="75" width="13" height="65.1"/>
	<path d="M282.9,140.1l13,0l0-49.2l9.5,0V80.5h-9.5v-5c0-9.3,3.3-11,9.4-11l23.2,0V53.9c0,0-19.2,0-27.1,0
		c-12.3,0-18.6,7.3-18.6,21.6v5.1h-6.8v10.3l6.8,0L282.9,140.1z"/>
	<path d="M426.1,73.8c-19.8,0-26.5,8.5-26.5,33.7c0,13.1,1.8,21.2,5.9,26.4c4,5.1,10.3,7.3,20.4,7.3c10.1,0,25.3-0.8,25.3-0.8v-10.6
		c0,0-21.7,0.8-26.3,0.8c-12.4,0-12.9-8.1-12.9-26.8c0-16.3,4.7-19.5,12.9-19.5c5.2,0,12.1,1.2,13.5,1.4v28.4l12.8-0.4l0-58.7
		l-12.8,0v19.6C437,74.6,431.8,73.8,426.1,73.8z"/>
	<path d="M237.3,56.2c-13.6,0-23.4,1.2-23.4,1.2l0,55.5c0,0,11.9,0.6,14,0.6c0-1.2,0-45.9,0-45.9c1.2-0.1,5.7-0.5,10.4-0.5
		c15.5,0,16.6,4.4,16.6,31.6c0,26.9-1,30.8-16.6,30.8c-5.3,0-24.4-0.9-24.4-0.9v11.5c0,0,10.8,0.5,23.4,0.5
		c14.7,0,22.4-2.5,26.5-8.7c4.2-6.3,5-16.5,5-33.1C268.8,66.6,266.4,56.2,237.3,56.2z"/>
</g>
<g>
	<path d="M224.7,181.8c-1.8,0-3.5-0.3-5-0.9c-1.5-0.6-2.8-1.5-3.9-2.7c-1.1-1.2-2-2.7-2.6-4.5c-0.6-1.8-0.9-3.9-0.9-6.2
		c0-2.3,0.3-4.3,0.9-6c0.6-1.7,1.4-3.2,2.6-4.5c1.1-1.2,2.4-2.2,3.9-2.8c1.5-0.7,3.2-1,5.1-1c0.9,0,1.8,0.1,2.6,0.2
		c0.8,0.1,1.6,0.3,2.3,0.5c0.6,0.2,1.2,0.4,1.8,0.7c0.6,0.3,1.2,0.6,1.8,0.9v4.4H233c-0.3-0.3-0.7-0.7-1.2-1.1
		c-0.5-0.4-1.1-0.8-1.9-1.2c-0.7-0.4-1.5-0.7-2.3-0.9c-0.8-0.2-1.8-0.4-2.9-0.4c-1.2,0-2.3,0.2-3.3,0.7c-1.1,0.5-2,1.2-2.8,2.1
		c-0.8,0.9-1.4,2.1-1.8,3.5c-0.4,1.4-0.6,3-0.6,4.8c0,1.9,0.2,3.5,0.7,4.9c0.5,1.4,1.1,2.5,1.9,3.5c0.8,0.9,1.7,1.6,2.7,2.1
		c1,0.5,2.1,0.7,3.3,0.7c1.1,0,2-0.1,2.9-0.4s1.7-0.6,2.4-1c0.7-0.4,1.3-0.8,1.8-1.2c0.5-0.4,0.9-0.7,1.2-1h0.3v4.4
		c-0.6,0.3-1.2,0.6-1.7,0.8c-0.5,0.3-1.2,0.5-2,0.8c-0.8,0.3-1.5,0.5-2.2,0.6C226.7,181.7,225.8,181.8,224.7,181.8z"/>
	<path d="M253.5,170.9c0,3.5-0.8,6.2-2.5,8.1c-1.7,1.9-3.9,2.8-6.7,2.8c-2.9,0-5.1-1-6.8-2.9c-1.7-2-2.5-4.6-2.5-8
		c0-3.5,0.9-6.2,2.6-8.1c1.7-1.9,3.9-2.9,6.7-2.9c2.8,0,5,1,6.7,2.9C252.7,164.7,253.5,167.4,253.5,170.9z M249.9,170.9
		c0-2.7-0.5-4.7-1.5-6c-1-1.3-2.4-2-4.2-2c-1.8,0-3.2,0.7-4.2,2c-1,1.3-1.5,3.3-1.5,6c0,2.6,0.5,4.6,1.5,5.9c1,1.3,2.4,2,4.2,2
		c1.8,0,3.2-0.7,4.2-2C249.4,175.5,249.9,173.6,249.9,170.9z"/>
	<path d="M273.4,181.3h-3.5v-11.8c0-1,0-1.8-0.1-2.7c-0.1-0.8-0.3-1.5-0.5-2c-0.3-0.5-0.7-0.9-1.2-1.2c-0.5-0.3-1.2-0.4-2.1-0.4
		c-0.9,0-1.8,0.2-2.7,0.7c-0.9,0.5-1.8,1.1-2.7,1.8v15.5h-3.5v-20.7h3.5v2.3c1-0.9,2.1-1.6,3.1-2.1c1-0.5,2.1-0.7,3.2-0.7
		c2,0,3.6,0.7,4.8,2c1.2,1.3,1.7,3.3,1.7,5.8V181.3z"/>
	<path d="M283.9,181.8c-1.4,0-2.7-0.2-3.9-0.6c-1.2-0.4-2.2-0.8-3-1.2v-3.9h0.2c0.3,0.2,0.6,0.5,1,0.8c0.4,0.3,0.9,0.6,1.6,0.9
		c0.6,0.3,1.2,0.5,2,0.7c0.7,0.2,1.4,0.3,2.2,0.3c0.6,0,1.2-0.1,1.8-0.2c0.6-0.1,1.1-0.3,1.4-0.5c0.4-0.3,0.7-0.6,0.9-0.9
		c0.2-0.3,0.3-0.8,0.3-1.4c0-0.8-0.2-1.5-0.7-1.9c-0.5-0.4-1.3-0.8-2.4-1.1c-0.4-0.1-1-0.2-1.7-0.4s-1.4-0.3-2-0.5
		c-1.6-0.5-2.7-1.2-3.5-2.1c-0.7-1-1.1-2.1-1.1-3.5c0-1.9,0.7-3.4,2.1-4.6c1.4-1.2,3.3-1.8,5.6-1.8c1.2,0,2.3,0.1,3.5,0.4
		c1.2,0.3,2.1,0.6,2.9,1.1v3.7h-0.2c-0.9-0.7-1.9-1.3-3-1.7c-1.1-0.4-2.2-0.6-3.3-0.6c-1.2,0-2.1,0.2-2.9,0.7
		c-0.8,0.5-1.2,1.2-1.2,2.2c0,0.9,0.2,1.5,0.7,1.9c0.5,0.4,1.2,0.8,2.3,1c0.5,0.1,1.1,0.3,1.7,0.4c0.6,0.1,1.3,0.3,2,0.5
		c1.5,0.4,2.7,1,3.5,1.9c0.8,0.9,1.2,2.1,1.2,3.6c0,0.9-0.2,1.7-0.5,2.5c-0.4,0.8-0.9,1.5-1.6,2c-0.7,0.6-1.6,1.1-2.5,1.4
		S285.3,181.8,283.9,181.8z"/>
	<path d="M311.4,181.3h-3.5V179c-1.1,0.9-2.1,1.7-3.1,2.1c-1,0.5-2,0.7-3.2,0.7c-0.9,0-1.8-0.1-2.6-0.4c-0.8-0.3-1.5-0.8-2.1-1.4
		c-0.6-0.6-1.1-1.5-1.4-2.4c-0.3-1-0.5-2.2-0.5-3.6v-13.5h3.5v11.8c0,1.1,0,2,0.1,2.7c0.1,0.7,0.3,1.4,0.5,1.9
		c0.3,0.5,0.7,0.9,1.2,1.2c0.5,0.2,1.2,0.4,2.1,0.4c0.9,0,1.8-0.2,2.7-0.7s1.8-1.1,2.7-1.8v-15.5h3.5V181.3z"/>
	<path d="M320,181.3h-3.5v-28.9h3.5V181.3z"/>
	<path d="M331.5,181.7c-1.9,0-3.4-0.5-4.5-1.6c-1.1-1.1-1.6-2.8-1.6-5.1v-11.5h-2.4v-2.9h2.4v-6h3.5v6h6.4v2.9h-6.4v9.9
		c0,1.1,0,1.9,0.1,2.4c0,0.6,0.2,1.1,0.4,1.6c0.2,0.4,0.5,0.8,1,1c0.5,0.2,1.1,0.3,1.9,0.3c0.6,0,1.1-0.1,1.7-0.3
		c0.5-0.2,0.9-0.3,1.2-0.4h0.2v3.1c-0.7,0.2-1.3,0.3-2,0.4C332.7,181.6,332.1,181.7,331.5,181.7z"/>
	<path d="M341.7,157.1h-4v-3.6h4V157.1z M341.5,181.3H338v-20.7h3.5V181.3z"/>
	<path d="M362.9,181.3h-3.5v-11.8c0-1,0-1.8-0.1-2.7c-0.1-0.8-0.3-1.5-0.5-2c-0.3-0.5-0.7-0.9-1.2-1.2c-0.5-0.3-1.2-0.4-2.1-0.4
		c-0.9,0-1.8,0.2-2.7,0.7c-0.9,0.5-1.8,1.1-2.7,1.8v15.5h-3.5v-20.7h3.5v2.3c1-0.9,2.1-1.6,3.1-2.1c1-0.5,2.1-0.7,3.2-0.7
		c2,0,3.6,0.7,4.8,2c1.2,1.3,1.7,3.3,1.7,5.8V181.3z"/>
	<path d="M368.5,184.6c0.2,0.1,0.6,0.2,1,0.4c0.5,0.2,1,0.3,1.6,0.5c0.6,0.2,1.2,0.3,1.8,0.4c0.5,0.1,1.1,0.1,1.8,0.1
		c1.1,0,2-0.1,2.7-0.4c0.8-0.3,1.3-0.7,1.8-1.2c0.4-0.5,0.7-1.1,0.8-1.8c0.2-0.7,0.2-1.4,0.2-2.3v-1.8c-0.9,0.8-1.9,1.4-2.8,1.8
		c-0.9,0.4-2,0.6-3.4,0.6c-2.4,0-4.2-0.9-5.6-2.6c-1.4-1.8-2.1-4.3-2.1-7.6c0-1.7,0.2-3.2,0.7-4.6c0.5-1.3,1.1-2.5,1.9-3.4
		c0.8-0.9,1.7-1.6,2.8-2.1s2.2-0.7,3.3-0.7c1.1,0,2,0.1,2.8,0.4c0.8,0.3,1.6,0.6,2.4,1.1l0.2-0.9h3.3v18.4c0,3.5-0.8,6.1-2.3,7.7
		c-1.5,1.6-3.9,2.5-7,2.5c-1,0-2.1-0.1-3.1-0.2c-1.1-0.2-2-0.4-3-0.6v-3.6H368.5z M380.3,175.6v-11.4c-0.9-0.4-1.7-0.7-2.4-0.9
		c-0.7-0.2-1.5-0.3-2.2-0.3c-1.8,0-3.2,0.6-4.2,1.9c-1,1.3-1.5,3.2-1.5,5.6c0,2.3,0.4,4.1,1.2,5.3c0.8,1.2,2,1.8,3.8,1.8
		c0.9,0,1.8-0.2,2.8-0.5C378.6,176.8,379.5,176.3,380.3,175.6z"/>
</g>
<path d="M136.9,35.8c-10.8,0-20.9,2.7-29.9,7.4l0,0l0,0l-0.3-0.4l-8.7-10l-0.4,0.3c-23,20.8-36.3,50.6-36.3,81.6v0.5h12.8h0.5
	c6.9,28,32.1,48.7,62.2,48.7c35.4,0,64.1-28.7,64.1-64.1C200.9,64.5,172.2,35.8,136.9,35.8z M106.4,44.1l9.1,10.5L127,67.8
	c-4.7,1.4-9.1,3.9-12.7,7.3L94.6,52.4C98.2,49.2,102.2,46.4,106.4,44.1C106.4,44.1,106.4,44.1,106.4,44.1z M62.3,114.3
	c0.1-30.4,13.1-59.5,35.5-80.1l7.9,9.1c-4.4,2.4-8.5,5.3-12.2,8.7l-0.4,0.3l21,24.2l0.4-0.4c3.7-3.5,8.3-6.1,13.2-7.5l4.3,4.9
	c-11.2,10.7-17.5,25.2-17.6,40.7h-6.7c-2.2-4.5-3.4-9.3-3.4-14.4v-0.5H72.3v0.5c0,4.9,0.6,9.7,1.6,14.4H62.3z M74.9,114.3
	c-1.1-4.5-1.6-9.2-1.6-13.9h30.1c0.1,4.9,1.2,9.5,3.2,13.9H74.9z M136.9,132.9c-12.7,0-23.7-7.1-29.2-17.6h0.5h7.2v-0.5
	c0-15.6,6.3-30.1,17.7-40.8l0.4-0.3l-5-5.7c0,0,0,0,0,0l0,0l0,0c2.7-0.7,5.5-1.1,8.4-1.1c18.2,0,33,14.8,33,33
	C169.9,118.1,155.1,132.9,136.9,132.9z"/>
</svg>
