<svg width="300" height="125" viewBox="0 0 300 125" fill="none" xmlns="http://www.w3.org/2000/svg">
<path d="M21.6589 40.4732H47.411C48.0475 40.4732 48.5684 39.9524 48.5684 39.3158V31.3298C48.5684 30.6932 48.0475 30.1724 47.411 30.1724H9.96921C9.33264 30.1724 8.81181 30.6932 8.81181 31.3298V89.3153C8.81181 89.9519 9.33264 90.4727 9.96921 90.4727H47.411C48.0475 90.4727 48.5684 89.9519 48.5684 89.3153V81.3872C48.5684 80.7506 48.0475 80.2298 47.411 80.2298H21.6589C21.0223 80.2298 20.5015 79.7089 20.5015 79.0724V61.6535C20.5015 61.4799 20.6751 61.3063 20.8487 61.3063C20.9645 61.3063 21.0802 61.4221 21.1381 61.5378C23.395 65.2993 27.5616 67.1512 30.7445 67.1512H41.3346C41.9712 67.1512 42.492 66.6303 42.492 65.9938V56.7346C42.492 56.098 41.9712 55.5772 41.3346 55.5772H20.5015V41.6306C20.4436 40.994 20.9645 40.4732 21.6589 40.4732Z" fill="#212322"/>
<path d="M290.406 85.5538L283.52 78.7251C286.182 74.5585 287.629 69.5817 287.629 64.1998C287.629 49.7324 276.923 37.869 261.298 37.869C244.631 37.869 234.967 49.6745 234.967 64.1998C234.967 78.7251 245.326 90.5306 261.298 90.5306C268.763 90.5306 275.071 87.8107 279.7 83.4126C279.932 83.1811 280.279 83.4126 280.221 83.7598C279.353 87.1163 280.048 90.7621 282.189 93.5977C282.71 94.2921 283.693 94.35 284.33 93.7713L290.406 87.6371C290.985 87.0005 290.985 86.1325 290.406 85.5538ZM245.904 64.1998C245.904 55.1721 252.791 47.8805 261.298 47.8805C269.805 47.8805 276.691 55.1721 276.691 64.1998C276.691 66.5146 276.228 68.6558 275.418 70.6812L268.011 63.3896C267.432 62.8688 266.564 62.8688 266.043 63.3896L259.909 69.6396C259.388 70.2183 259.388 71.0863 259.909 71.6072L267.548 79.1302C265.638 79.9983 263.555 80.5191 261.356 80.5191C252.791 80.5191 245.904 73.2275 245.904 64.1998Z" fill="#212322"/>
<path d="M216.97 47.9384H225.592C226.229 47.9384 226.75 48.4592 226.75 49.0958V89.3153C226.75 89.9519 226.229 90.4727 225.592 90.4727H216.97C216.333 90.4727 215.812 89.9519 215.812 89.3153V49.0958C215.812 48.4592 216.333 47.9384 216.97 47.9384Z" fill="#212322"/>
<path d="M103.776 47.3018C98.5679 47.3018 93.4175 50.5425 90.9291 54.3041C88.8458 50.1953 85.0264 47.3018 79.4709 47.3018C72.5844 47.3018 68.9386 52.9152 67.2603 55.0564C67.0289 55.3457 66.5659 55.1143 66.6816 54.767C67.3182 52.9731 67.6654 51.0634 67.7812 49.1537C67.839 48.5171 67.2603 47.9384 66.6238 47.9384H58.0012C57.3646 47.9384 56.8438 48.4592 56.8438 49.0958V89.3153C56.8438 89.9519 57.3646 90.4727 58.0012 90.4727H66.6238C67.2603 90.4727 67.7812 89.9519 67.7812 89.3153V67.209C67.7812 59.5124 72.8158 57.6027 75.6515 57.6027C78.6607 57.6027 82.1907 58.9915 82.1907 65.8202V89.3153C82.1907 89.9519 82.7116 90.4727 83.3481 90.4727H91.9707C92.6073 90.4727 93.1281 89.9519 93.1281 89.3153V67.3248C93.1281 59.6281 98.1049 57.5448 100.941 57.5448C103.95 57.5448 107.538 58.9337 107.538 65.7623V89.2574C107.538 89.894 108.059 90.4148 108.695 90.4148H117.318C117.954 90.4148 118.475 89.894 118.475 89.2574V65.8202C118.533 52.9731 112.109 47.3018 103.776 47.3018Z" fill="#212322"/>
<path d="M207.595 48.9801C207.595 48.4014 207.19 47.8805 206.611 47.8227C200.997 46.9546 194.632 47.5912 189.192 55.7508C188.961 56.0402 188.498 55.8087 188.613 55.4615C189.25 53.6675 189.597 51.7578 189.713 49.8481V49.0958C189.713 48.4592 189.192 47.9384 188.555 47.9384H179.933C179.296 47.9384 178.775 48.4592 178.775 49.0958V89.3153C178.775 89.9519 179.296 90.4727 179.933 90.4727H188.555C189.192 90.4727 189.713 89.9519 189.713 89.3153V71.2021C189.713 62.6373 194.748 58.7022 201.113 58.7022C202.676 58.7022 204.354 58.9337 206.032 59.3966C206.784 59.6281 207.537 59.0494 207.537 58.2971L207.595 48.9801Z" fill="#212322"/>
<path d="M150.361 47.3018C142.838 47.244 138.324 50.7161 136.125 52.8573C135.894 53.0888 135.431 52.7995 135.605 52.5101C136.473 50.6583 137.688 47.4754 137.688 43.1931V31.3876C137.688 30.7511 137.167 30.2302 136.53 30.2302H127.908C127.271 30.2302 126.75 30.7511 126.75 31.3876V89.3732C126.75 90.0098 127.271 90.5306 127.908 90.5306H136.53C137.167 90.5306 137.688 90.0098 137.688 89.3732V86.6533C137.688 86.364 138.035 86.1903 138.267 86.4218C139.482 87.7528 142.954 90.5306 150.188 90.5306C163.035 90.1255 170.558 80.2876 170.558 68.6558C170.616 58.8758 164.424 47.3597 150.361 47.3018ZM148.683 80.2298C142.607 80.2298 137.688 75.0215 137.688 68.54C137.688 62.0586 142.607 56.8503 148.683 56.8503C154.759 56.8503 159.678 62.0586 159.678 68.54C159.678 75.0215 154.702 80.2298 148.683 80.2298Z" fill="#212322"/>
<path d="M215.696 31.3876C216.217 36.7695 220.384 40.994 225.592 41.5727C226.229 41.6306 226.807 41.1098 226.807 40.4732V31.5034C226.807 30.7511 226.229 30.1724 225.476 30.1724H216.796C216.159 30.1724 215.639 30.7511 215.696 31.3876Z" fill="#1D1D1B"/>
</svg>
