<?xml version="1.0" encoding="utf-8"?>
<!-- Generator: Adobe Illustrator 23.0.3, SVG Export Plug-In . SVG Version: 6.00 Build 0)  -->
<svg version="1.1" id="Layer_1" xmlns="http://www.w3.org/2000/svg" xmlns:xlink="http://www.w3.org/1999/xlink" x="0px" y="0px"
	 viewBox="0 0 283.5 110.4" style="enable-background:new 0 0 283.5 110.4;" xml:space="preserve">
<g>
	<g id="Enso_logo">
		<g id="Negativ">
			<path d="M66.9,64.6c0.4,6.6,6.3,12.5,13.3,12.5c7.9,0,12.1-6.3,12.1-6.3l3.5,3.5c0,0-5.5,7.8-15.6,7.8s-18.8-8.6-18.8-19.6
				S70,43.1,79.8,43.1c10.2,0,18,7.8,18,18.8c0,1-0.1,1.9-0.4,2.8L66.9,64.6z M66.9,59.9h25.4c-0.8-6.7-5.9-11.7-12.5-11.7
				S67.6,53.7,66.9,59.9z"/>
			<path d="M113,49.3c2.8-3.9,7.3-6.3,12.1-6.3c9,0,15.3,6.3,15.3,16v22.3h-5.5V59.1c0-6.6-4.3-11-10.2-11
				c-6.6,0-11.7,5.1-11.7,12.5v20.7h-5.5V43.9h5.5V49.3z"/>
			<path d="M171.7,52.1c-2-2.5-5-3.9-8.2-3.9c-4.3,0-7,2.7-7,5.5c0,8.2,20.3,3.9,20.3,17.2c0,6.3-5.1,11.3-13.7,11.3
				c-9.4,0-13.7-6.6-13.7-6.6l3.9-3.9c0,0,3.5,5.5,9.8,5.5c5.5,0,8.2-2.7,8.2-6.3c0-8.6-20.3-4.3-20.3-17.2
				c0-5.5,5.1-10.6,12.5-10.6c4.6,0,9,1.8,12.1,5.1L171.7,52.1z"/>
			<path d="M203,43.1c10.6,0,19.2,8.6,19.2,19.6s-8.6,19.6-19.2,19.6s-19.2-8.6-19.2-19.6S192.4,43.1,203,43.1z M203,48.2
				c-7.4,0-13.7,6.3-13.7,14.5c0,8.1,6.3,14.5,13.7,14.5s13.7-6.3,13.7-14.5S210.4,48.2,203,48.2z"/>
			<rect x="189.3" y="28.2" width="27.4" height="4.9"/>
		</g>
	</g>
</g>
</svg>
