<?xml version="1.0" encoding="utf-8"?>
<!-- Generator: Adobe Illustrator 23.0.3, SVG Export Plug-In . SVG Version: 6.00 Build 0)  -->
<svg version="1.1" id="Layer_1" xmlns="http://www.w3.org/2000/svg" xmlns:xlink="http://www.w3.org/1999/xlink" x="0px" y="0px"
	 viewBox="0 0 283.5 110.4" style="enable-background:new 0 0 283.5 110.4;" xml:space="preserve">
<style type="text/css">
	.st0{fill:#020203;}
</style>
<g>
	<polygon class="st0" points="46.1,33.4 17.7,33.4 17.7,78.7 21.2,78.7 21.2,57.5 42.4,57.5 42.4,54.1 21.2,54.1 21.2,36.8 
		46.1,36.8 	"/>
	<path class="st0" d="M66.1,46.5c-4.4,0-8.8,3-10.3,7l-0.1-6.6v-0.1h-3v32h3.4V63.4c0-5.1,1.3-13.7,10-13.7c1.3,0,2.2,0.1,3.1,0.3
		l0.1,0v-3.4l-0.1,0C68.2,46.5,67.1,46.5,66.1,46.5z"/>
	<path class="st0" d="M87.5,45.9c-4.4,0-8.2,1.9-10.9,5.6c-2.1,2.9-3.1,6.5-3.1,11.4c0,4.8,1.4,9,4.1,12.1c2.6,3,6.1,4.5,10.2,4.5
		c3.5,0,6.8-1.3,9.2-3.7c2-1.9,3.2-4.2,3.6-6.7l0-0.1h-3.5l0,0.1c-0.3,1.7-1.1,3.1-2.4,4.5c-1.7,1.8-4.2,2.8-6.9,2.8
		c-3.2,0-5.7-1.1-7.6-3.3c-2-2.4-3.2-5.8-3.3-9.4h24.3v-0.1c0-0.4,0-0.7,0-1c0-0.3,0-0.7,0-1.1c0-4.1-1.3-7.9-3.6-10.8
		C95.1,47.6,91.6,45.9,87.5,45.9z M77,60.5c0-6.6,4.5-11.4,10.6-11.4c6.5,0,10.1,5.7,10.3,11.4H77z"/>
	<path class="st0" d="M143.7,45.9c-4.7,0-8.3,2.4-10.2,6.7c-1-3.1-3.6-6.7-10.1-6.7c-4.2,0-7.7,2.2-9.6,6l-0.4-5.1l0-0.1h-3v32h3.4
		v-16c0-5.3,1.3-9.1,3.8-11.5c1.5-1.4,3.4-2.1,5.6-2.1c5.1,0,7.5,2.8,7.5,8.7v20.9h3.4V60.7c0-3.8,1.3-7.1,3.7-9.4
		c1.6-1.5,3.4-2.1,5.6-2.1c5.1,0,7.5,2.8,7.5,8.7v20.9h3.4V57.7C154.3,50.1,150.6,45.9,143.7,45.9z"/>
	<path class="st0" d="M170.7,37.2l-3.4,0.8v8.7H161v3.1h6.4v19.9c0,6.1,2.9,9.4,8.3,9.4c1.7,0,3.4-0.3,5.1-0.7l0.3-0.1v-3l-0.1,0
		c-1.6,0.3-3.2,0.6-5,0.6c-3.6,0-5.2-1.9-5.2-6.3V49.9h18.9v28.8h3.6v-32h-22.4L170.7,37.2L170.7,37.2z"/>
	<path class="st0" d="M219.6,45.9c-4.5,0-8.8,2.6-10.7,6.3l-0.4-5.5h-3v32h3.4v-16c0-2.6,0.4-6.4,2.3-9.3c1.8-2.8,4.5-4.2,8.1-4.2
		c5.4,0,8.1,2.8,8.1,8.6v20.9h3.4V57.7C230.8,50.2,226.7,45.9,219.6,45.9z"/>
	<path class="st0" d="M191.3,33.3c-1.4,0-2.6,1.1-2.6,2.6c0,1.4,1.1,2.6,2.6,2.6s2.6-1.1,2.6-2.6C193.9,34.4,192.8,33.3,191.3,33.3z
		"/>
	<path class="st0" d="M263.9,32.7v19.1c-1.9-3.5-6.1-5.8-10.5-5.8c-3.5,0-6.4,1.1-8.7,3.3c-3.2,3-5,7.9-5,13.5
		c0,5.9,1.9,10.8,5.2,13.7c2.3,2,5.1,3,8.5,3c4.4,0,8.7-2.6,10.5-6.1l0.4,5.3h3V32.7H263.9z M260,73.7c-1.7,1.7-3.9,2.5-6.4,2.5
		c-2.5,0-4.5-0.7-6.2-2.2c-2.7-2.4-4.2-6.4-4.2-11.3c0-4.5,1.3-8.3,3.5-10.7c1.8-1.9,4-2.8,6.7-2.8c2.7,0,4.9,0.8,6.6,2.5
		c2.7,2.5,4,6,4,11C264,67.4,262.6,71.1,260,73.7z"/>
</g>
</svg>
