<?xml version="1.0" encoding="UTF-8"?><svg id="Layer_2" xmlns="http://www.w3.org/2000/svg" viewBox="0 0 209.53 143.66"><defs><style>.cls-1{fill:#650729;}.cls-2{fill:none;stroke:#fff;}</style></defs><g id="jPro_Standard"><path class="cls-2" d="m30.74,29.79c2.75-3.62,5.5-5.69,10.62-7.62,4.63-1.75,56.37-18.81,62.87-20.62,6.71-1.87,9.26-.85,10.94.25,3.29,2.15,4.12,6.56,2.5,11-1.09,2.99-8.87,16.81-8.87,16.81l-47.06,14.12-18.94,29.12s-26.67,7-32.17,8.33c-5.5,1.33-8.19-.12-9.33-2.17-1.21-2.17-1.06-5.54.5-8.67,2.17-4.33,25.16-35.59,28.94-40.56Z"/><path class="cls-1" d="m20.14,47.26l36.08-10.83,14.15-21.83s-21.05,6.8-25.25,8.31c-8,2.88-9.19,3.56-14.56,10.56-4.16,5.42-10.42,13.79-10.42,13.79Z"/><path class="cls-1" d="m74.68,13.22l-13.75,21.83,43.21-13.21s6-11.25,7.33-14.75-.67-5.17-6.17-3.75c-5.61,1.45-30.62,9.87-30.62,9.87Z"/><path class="cls-1" d="m18.1,50.68l35.87-10.75-16.54,25.96s-25.04,6.58-28.54,7.42-6.17-.33-3.83-4.33c2.75-4.72,13.04-18.29,13.04-18.29Z"/><path class="cls-1" d="m90.8,61.6h-12.09v9.36h8.36c2.5,0,3.75-1.22,3.75-3.47s-.02-5.89-.02-5.89Z"/><path class="cls-1" d="m96.7,61.09c3.95-.75,9.12-1.32,15.7-1.32,8.08,0,14.01,1.88,17.77,5.26,3.48,3.01,5.64,7.61,5.64,13.25s-1.69,10.25-4.98,13.54c-4.32,4.61-11.37,6.96-19.36,6.96-2.44,0-4.7-.09-6.58-.56v25.38h-8.18v-62.51Zm8.18,30.46c1.79.47,4.14.66,6.77.66,9.96,0,15.89-4.89,15.89-13.44s-5.92-12.5-14.95-12.5c-3.57,0-6.3.38-7.71.66v24.63Z"/><path class="cls-1" d="m142.51,91.92c0-5.47-.09-10.16-.38-14.48h7.24l.38,9.11h.28c2.07-6.23,7.14-10.16,12.69-10.16.85,0,1.5.1,2.26.29v7.86c-.94-.1-1.79-.19-2.91-.19-5.83,0-9.96,4.51-11.09,10.74-.19,1.25-.28,2.59-.28,4.03v24.74h-8.27l.09-31.93Z"/><path class="cls-1" d="m186.88,124.9c-12.22,0-21.81-9.2-21.81-23.87,0-15.53,10.06-24.64,22.56-24.64s21.9,9.68,21.9,23.78c0,17.26-11.75,24.74-22.56,24.74h-.09Zm.28-6.33c7.9,0,13.82-7.57,13.82-18.12,0-7.86-3.85-17.74-13.63-17.74s-13.91,9.21-13.91,18.03c0,10.16,5.64,17.83,13.63,17.83h.09Z"/><path class="cls-1" d="m72.28,136.57c1.11-.55,2.74-1.35,3.84-2.53,2.33-2.52,3.15-6.45,3.15-17.57v-39.02h8.27v42.28c0,9.01-1.22,15.12-5.4,19.21-3.07,3-5.15,3.67-7.9,4.73l-1.96-7.09Z"/></g></svg>