<svg width="300" height="135" viewBox="0 0 300 135" fill="none" xmlns="http://www.w3.org/2000/svg">
<path d="M106.823 118.014V111.287C106.862 110.721 106.78 110.154 106.58 109.622C106.381 109.091 106.069 108.607 105.667 108.204C105.264 107.801 104.779 107.487 104.244 107.284C103.709 107.081 103.136 106.994 102.565 107.027C101.816 106.978 101.068 107.129 100.399 107.465C99.7294 107.8 99.1632 108.307 98.7593 108.933C98.3912 108.326 97.8645 107.828 97.2346 107.493C96.6048 107.157 95.8952 106.996 95.1807 107.027C94.5578 106.996 93.9375 107.126 93.3813 107.405C92.8251 107.685 92.3523 108.103 92.0097 108.619V107.296H89.6541V118.014H92.0323V112.117C91.9817 111.75 92.0136 111.377 92.1255 111.024C92.2375 110.671 92.4269 110.347 92.68 110.075C92.9332 109.803 93.244 109.59 93.5901 109.45C93.9363 109.311 94.3092 109.249 94.6824 109.269C96.2452 109.269 97.038 110.278 97.038 112.094V118.059H99.4162V112.117C99.3677 111.751 99.401 111.378 99.5137 111.026C99.6264 110.674 99.8159 110.351 100.069 110.08C100.321 109.808 100.631 109.595 100.976 109.455C101.322 109.315 101.694 109.251 102.066 109.269C103.674 109.269 104.444 110.278 104.444 112.094V118.059L106.823 118.014ZM142.009 107.296H138.136V104.044H135.758V107.296H133.606V109.426H135.803V114.359C135.803 116.848 136.777 118.328 139.563 118.328C140.604 118.331 141.624 118.043 142.508 117.499L141.828 115.503C141.196 115.876 140.479 116.084 139.744 116.108C138.612 116.108 138.181 115.391 138.181 114.314V109.426H142.032L142.009 107.296ZM162.1 107.027C161.525 107.01 160.957 107.147 160.455 107.423C159.953 107.7 159.535 108.105 159.246 108.596V107.296H156.913V118.014H159.269V112.005C159.269 110.233 160.039 109.247 161.533 109.247C162.037 109.24 162.538 109.331 163.006 109.516L163.731 107.273C163.193 107.083 162.626 106.984 162.054 106.982L162.1 107.027ZM131.726 108.148C130.393 107.363 128.86 106.974 127.31 107.027C124.569 107.027 122.78 108.327 122.78 110.458C122.78 112.207 124.093 113.283 126.517 113.619L127.649 113.776C128.94 113.956 129.552 114.292 129.552 114.897C129.552 115.727 128.691 116.198 127.083 116.198C125.789 116.235 124.521 115.84 123.482 115.077L122.349 116.893C123.721 117.842 125.365 118.329 127.038 118.283C130.163 118.283 131.975 116.826 131.975 114.785C131.975 112.745 130.548 111.915 128.193 111.579L127.06 111.422C126.041 111.287 125.226 111.085 125.226 110.368C125.226 109.65 125.996 109.112 127.287 109.112C128.48 109.126 129.65 109.442 130.684 110.032L131.726 108.148ZM194.817 107.027C194.243 107.01 193.675 107.147 193.173 107.423C192.67 107.7 192.253 108.105 191.964 108.596V107.296H189.699V118.014H192.043V112.005C192.043 110.233 192.813 109.247 194.308 109.247C194.812 109.24 195.312 109.331 195.78 109.516L196.505 107.273C195.967 107.083 195.4 106.984 194.829 106.982L194.817 107.027ZM164.478 112.633C164.45 113.386 164.581 114.137 164.863 114.837C165.145 115.537 165.571 116.171 166.115 116.699C166.659 117.226 167.307 117.636 168.02 117.901C168.733 118.166 169.494 118.281 170.254 118.238C171.668 118.31 173.058 117.854 174.149 116.96L173.017 115.077C172.203 115.692 171.21 116.03 170.186 116.041C169.315 115.971 168.503 115.58 167.91 114.944C167.318 114.308 166.989 113.475 166.989 112.61C166.989 111.745 167.318 110.912 167.91 110.277C168.503 109.641 169.315 109.249 170.186 109.179C171.21 109.191 172.203 109.529 173.017 110.144L174.149 108.26C173.058 107.367 171.668 106.911 170.254 106.982C169.494 106.939 168.733 107.054 168.02 107.319C167.307 107.584 166.659 107.994 166.115 108.522C165.571 109.049 165.145 109.684 164.863 110.384C164.581 111.084 164.45 111.835 164.478 112.588V112.633ZM186.539 112.633V107.296H184.183V108.596C183.783 108.087 183.267 107.679 182.676 107.406C182.085 107.133 181.437 107.003 180.786 107.027C179.284 107.027 177.844 107.617 176.782 108.669C175.72 109.72 175.123 111.146 175.123 112.633C175.123 114.119 175.72 115.545 176.782 116.597C177.844 117.648 179.284 118.238 180.786 118.238C181.437 118.262 182.085 118.132 182.676 117.859C183.267 117.587 183.783 117.178 184.183 116.669V117.969H186.539V112.633ZM177.773 112.633C177.811 112.002 178.034 111.395 178.415 110.888C178.797 110.382 179.319 109.996 179.919 109.779C180.519 109.563 181.169 109.524 181.791 109.669C182.412 109.814 182.977 110.136 183.416 110.594C183.855 111.053 184.149 111.629 184.262 112.251C184.375 112.873 184.301 113.514 184.051 114.096C183.8 114.677 183.383 115.173 182.851 115.522C182.32 115.872 181.696 116.06 181.058 116.063C180.609 116.069 180.165 115.983 179.751 115.81C179.338 115.637 178.966 115.382 178.657 115.059C178.349 114.737 178.111 114.355 177.959 113.938C177.807 113.52 177.744 113.076 177.773 112.633V112.633ZM149.348 107.027C147.846 107.048 146.414 107.658 145.367 108.724C144.32 109.79 143.744 111.224 143.765 112.711C143.786 114.198 144.402 115.615 145.479 116.652C146.556 117.689 148.005 118.259 149.506 118.238C151.132 118.318 152.73 117.799 153.991 116.781L152.859 115.054C151.964 115.764 150.856 116.159 149.71 116.176C148.932 116.239 148.16 116.001 147.556 115.511C146.951 115.022 146.563 114.32 146.471 113.552H154.512C154.512 113.26 154.512 112.969 154.512 112.655C154.512 109.292 152.406 107.049 149.371 107.049L149.348 107.027ZM149.348 109.112C149.7 109.105 150.051 109.166 150.379 109.293C150.708 109.42 151.008 109.609 151.262 109.851C151.517 110.092 151.721 110.381 151.863 110.701C152.004 111.02 152.081 111.364 152.088 111.713H146.426C146.467 110.994 146.791 110.318 147.329 109.832C147.866 109.346 148.575 109.088 149.303 109.112H149.348ZM208.351 112.655V102.991H206.086V108.596C205.686 108.087 205.169 107.679 204.578 107.406C203.988 107.133 203.34 107.003 202.688 107.027C201.187 107.027 199.746 107.617 198.684 108.669C197.622 109.72 197.026 111.146 197.026 112.633C197.026 114.119 197.622 115.545 198.684 116.597C199.746 117.648 201.187 118.238 202.688 118.238C203.34 118.262 203.988 118.132 204.578 117.859C205.169 117.587 205.686 117.178 206.086 116.669V117.969H208.351V112.655ZM199.585 112.655C199.623 112.024 199.846 111.418 200.227 110.911C200.608 110.404 201.131 110.018 201.731 109.802C202.33 109.585 202.981 109.547 203.602 109.692C204.224 109.837 204.789 110.158 205.228 110.617C205.667 111.076 205.961 111.651 206.074 112.274C206.187 112.896 206.113 113.537 205.863 114.118C205.612 114.699 205.195 115.195 204.663 115.545C204.131 115.895 203.508 116.083 202.87 116.086C202.421 116.091 201.976 116.005 201.563 115.832C201.15 115.66 200.778 115.404 200.469 115.082C200.161 114.76 199.923 114.378 199.771 113.96C199.619 113.542 199.556 113.098 199.585 112.655ZM120.05 112.655V107.296H117.751V108.596C117.351 108.087 116.835 107.679 116.244 107.406C115.653 107.133 115.005 107.003 114.354 107.027C112.852 107.027 111.412 107.617 110.35 108.669C109.288 109.72 108.691 111.146 108.691 112.633C108.691 114.119 109.288 115.545 110.35 116.597C111.412 117.648 112.852 118.238 114.354 118.238C115.005 118.262 115.653 118.132 116.244 117.859C116.835 117.587 117.351 117.178 117.751 116.669V117.969H120.107L120.05 112.655ZM111.285 112.655C111.322 112.024 111.545 111.418 111.927 110.911C112.308 110.404 112.83 110.018 113.43 109.802C114.03 109.585 114.681 109.547 115.302 109.692C115.923 109.837 116.488 110.158 116.928 110.617C117.367 111.076 117.661 111.651 117.773 112.274C117.886 112.896 117.813 113.537 117.562 114.118C117.311 114.699 116.894 115.195 116.363 115.545C115.831 115.895 115.207 116.083 114.569 116.086C114.123 116.087 113.682 115.997 113.273 115.822C112.864 115.647 112.496 115.391 112.191 115.069C111.886 114.748 111.652 114.367 111.502 113.952C111.351 113.537 111.289 113.095 111.319 112.655H111.285ZM212.281 116.456C212.429 116.458 212.575 116.488 212.711 116.546C212.837 116.599 212.952 116.675 213.051 116.77C213.15 116.866 213.231 116.98 213.288 117.106C213.345 117.237 213.376 117.378 213.379 117.521C213.379 117.664 213.348 117.805 213.288 117.936C213.236 118.064 213.155 118.179 213.051 118.272C212.955 118.373 212.839 118.453 212.711 118.508C212.574 118.561 212.428 118.588 212.281 118.586C212.135 118.59 211.991 118.564 211.857 118.51C211.722 118.456 211.601 118.375 211.499 118.272C211.395 118.179 211.314 118.064 211.261 117.936C211.206 117.805 211.179 117.663 211.182 117.521C211.18 117.379 211.207 117.238 211.261 117.106C211.319 116.98 211.4 116.866 211.499 116.77C211.603 116.676 211.721 116.6 211.85 116.546C211.997 116.484 212.155 116.453 212.315 116.456H212.281ZM212.281 118.351C212.389 118.368 212.5 118.368 212.609 118.351C212.703 118.301 212.79 118.241 212.869 118.171C212.946 118.093 213.008 118.002 213.051 117.902C213.069 117.795 213.069 117.685 213.051 117.577C213.068 117.469 213.068 117.36 213.051 117.252C213.008 117.155 212.946 117.068 212.869 116.994C212.793 116.921 212.705 116.86 212.609 116.815C212.396 116.74 212.165 116.74 211.952 116.815C211.851 116.857 211.759 116.918 211.68 116.994C211.604 117.068 211.542 117.155 211.499 117.252C211.463 117.357 211.444 117.466 211.443 117.577C211.443 117.688 211.462 117.798 211.499 117.902C211.542 118.002 211.604 118.093 211.68 118.171C211.762 118.244 211.853 118.304 211.952 118.351C212.072 118.371 212.195 118.371 212.315 118.351H212.281ZM212.349 117.028C212.453 117.019 212.557 117.047 212.643 117.106C212.677 117.135 212.704 117.171 212.721 117.212C212.739 117.253 212.747 117.297 212.745 117.342C212.747 117.379 212.74 117.416 212.727 117.451C212.713 117.485 212.692 117.517 212.666 117.543C212.6 117.603 212.516 117.639 212.428 117.644L212.756 118.014H212.496L212.19 117.644H212.099V118.014H211.884V117.028H212.349ZM212.099 117.207V117.476H212.337C212.382 117.489 212.429 117.489 212.473 117.476C212.489 117.465 212.503 117.45 212.512 117.432C212.521 117.414 212.526 117.395 212.526 117.375C212.526 117.355 212.521 117.336 212.512 117.318C212.503 117.301 212.489 117.286 212.473 117.274C212.429 117.261 212.382 117.261 212.337 117.274L212.099 117.207ZM210.82 82.3611V81.0605H211.352V80.8026H210.004V81.0605H210.616V82.3611H210.82ZM213.436 82.3611V80.8026H213.028L212.552 81.9238L212.077 80.8026H211.748V82.3611H212.043V81.2399L212.484 82.2602H212.79L213.232 81.2399V82.3611H213.436ZM145.135 90.2093L146.12 91.0165C139.978 95.0504 132.845 97.3601 125.482 97.6998C118.118 98.0394 110.8 96.3964 104.305 92.9456C97.8097 89.4947 92.3812 84.3651 88.5969 78.1026C84.8126 71.8401 82.8141 64.679 82.8141 57.3814C82.8141 50.0838 84.8126 42.9228 88.5969 36.6603C92.3812 30.3978 97.8097 25.2681 104.305 21.8173C110.8 18.3664 118.118 16.7234 125.482 17.0631C132.845 17.4028 139.978 19.7124 146.12 23.7463L145.135 24.5536C140.392 28.6339 136.589 33.6746 133.982 39.335C131.376 44.9954 130.027 51.1438 130.027 57.3646C130.027 63.5854 131.376 69.7337 133.982 75.3942C136.589 81.0546 140.392 86.0953 145.135 90.1756V90.2093ZM173.98 16.9969C165.95 16.9795 158.095 19.3206 151.409 23.7239L152.394 24.5311C157.141 28.6094 160.947 33.6494 163.555 39.3101C166.164 44.9709 167.514 51.1202 167.514 57.3422C167.514 63.5641 166.164 69.7135 163.555 75.3742C160.947 81.0349 157.141 86.0749 152.394 90.1532L151.409 90.9604C156.708 94.4404 162.756 96.6449 169.07 97.3978C175.383 98.1506 181.787 97.4311 187.769 95.2965C193.751 93.1619 199.146 89.6716 203.523 85.1044C207.899 80.5372 211.136 75.0198 212.974 68.9931C214.813 62.9664 215.202 56.5977 214.11 50.3957C213.018 44.1937 210.476 38.3306 206.687 33.2748C202.898 28.2191 197.966 24.1109 192.287 21.2787C186.608 18.4464 180.339 16.9686 173.98 16.9633V16.9969ZM148.782 25.6411C148.261 26.0447 147.74 26.4708 147.241 26.8968C142.841 30.6856 139.312 35.3649 136.894 40.619C134.476 45.8731 133.225 51.5797 133.225 57.3534C133.225 63.1271 134.476 68.8336 136.894 74.0877C139.312 79.3418 142.841 84.0212 147.241 87.8099C147.74 88.236 148.261 88.662 148.782 89.0769C149.314 88.662 149.824 88.236 150.322 87.8099C154.723 84.0212 158.251 79.3418 160.669 74.0877C163.087 68.8336 164.338 63.1271 164.338 57.3534C164.338 51.5797 163.087 45.8731 160.669 40.619C158.251 35.3649 154.723 30.6856 150.322 26.8968C149.824 26.4708 149.314 26.0447 148.782 25.6411" fill="black"/>
</svg>
