<?xml version="1.0" encoding="utf-8"?>
<!-- Generator: Adobe Illustrator 26.4.1, SVG Export Plug-In . SVG Version: 6.00 Build 0)  -->
<svg version="1.1" id="Layer_1" xmlns="http://www.w3.org/2000/svg" xmlns:xlink="http://www.w3.org/1999/xlink" x="0px" y="0px"
	 viewBox="0 0 177.7 49.3" style="enable-background:new 0 0 177.7 49.3;" xml:space="preserve">
<style type="text/css">
	.Arched_x0020_Green{fill:url(#SVGID_1_);stroke:#FFFFFF;stroke-width:0.25;stroke-miterlimit:1;}
	.st0{fill:#1D1D1B;}
</style>
<linearGradient id="SVGID_1_" gradientUnits="userSpaceOnUse" x1="-51.9894" y1="516.1005" x2="-51.2823" y2="515.3933">
	<stop  offset="0" style="stop-color:#1BA138"/>
	<stop  offset="0.9831" style="stop-color:#23391D"/>
</linearGradient>
<g>
	<path class="st0" d="M51.3,15.2H60c5.1,0,7.6,1,7.6,7.2c0,6.2-2.7,7.3-7.7,7.3h-3.5v5.1h-5.2V15.2z M60,25.6c1.1,0,2.4-0.1,2.4-3.1
		c0-3-1.3-3.1-2.4-3.1h-3.5v6.2H60z"/>
	<path class="st0" d="M69.2,25c0-8.6,3.8-10.1,9.7-10.1c5.9,0,9.6,1.5,9.6,10.1s-3.8,10.2-9.7,10.2C73,35.1,69.2,33.6,69.2,25z
		 M83,25.8v-1.5c0-3.7-0.9-4.9-4.2-4.9c-3.2,0-4.2,1.2-4.2,4.9v1.5c0,3.7,1,5.1,4.2,5.1C82.2,30.8,83,29.5,83,25.8z"/>
	<path class="st0" d="M90.9,15.2h5.2v15.2h8.8v4.4h-14V15.2z"/>
	<path class="st0" d="M107.1,15.2h5.2v19.6h-5.2V15.2z"/>
	<path class="st0" d="M120.7,19.7h-6.2v-4.5h17.7v4.5H126v15.1h-5.2V19.7z"/>
	<path class="st0" d="M134.4,15.2h5.2v19.6h-5.2V15.2z"/>
	<path class="st0" d="M142.9,15.2h14v4.5h-8.8v3h7.1v4.5h-7.1v3.2h8.8v4.4h-14V15.2z"/>
	<path class="st0" d="M164.6,19.7h-6.2v-4.5h17.7v4.5h-6.3v15.1h-5.2V19.7z"/>
</g>
<g>
	<path class="st0" d="M21.4,44.2L21.4,44.2c-0.1-0.1-7-4.5-10.3-12.2C9,27.1,8.8,15.5,8.8,15.4l0-0.2l25.2,0l0,0.2
		c0,0.1-0.2,11.7-2.3,16.6C28.4,39.8,21.6,44.2,21.4,44.2L21.4,44.2L21.4,44.2z M9.1,15.6c0,1.3,0.3,11.8,2.3,16.4
		c3.1,7.2,9.3,11.5,10.1,12c0.8-0.5,7-4.8,10.1-12c2-4.6,2.2-15,2.3-16.4H9.1L9.1,15.6z"/>
	<path class="st0" d="M21.3,19.1L20.4,19c-0.3,0-0.5-0.1-0.5-0.1c-0.1,0-0.2,0.1-0.1,0.2c0,0,0.3,0.1,0.6,0.2c0,0,1.1,0.1,1.1,0.1
		L21.3,19.1z"/>
	<path class="st0" d="M14.1,17.9c0,0-1.1,0-1.7-0.4c-0.6-0.4-1.6-1.1-1.6-1.1s-0.1,1.3,0.1,2.1c0.2,0.9,0.8,2.1,0.8,2.1s0.3-0.4,1-1
		c0.7-0.6,1.4-0.5,1.4-0.5l1.1,0v-1.1H14.1z"/>
	<g>
		<g>
			<path class="st0" d="M20.9,7.6c0,0,0.2,0.1,0.5,0.1c0.2,0,0.6-0.1,0.6-0.1l-0.1,1.9c0,0-0.2-0.1-0.4-0.1c-0.2,0-0.4,0.1-0.4,0.1
				L20.9,7.6z"/>
			<path class="st0" d="M11.8,9.9c0,0-0.2-0.1-0.4-0.1c-0.2,0-0.3,0-0.3,0s-0.4-1.4-0.2-2c0.2-0.5,1.2-0.6,2.1-0.6
				c1.1,0,2.6,0,2.6,0s-0.1,0.1-0.1,0.3c0,0.1-0.1,0.3-0.1,0.3s-1.3-0.1-1.8,0c-0.6,0-1.5,0.1-1.7,0.4c-0.2,0.2-0.2,0.5-0.2,0.8
				C11.7,9.3,11.8,9.9,11.8,9.9z"/>
			<path class="st0" d="M16.7,9.6c0,0-0.1,0-0.3,0c-0.3,0-0.6,0.2-0.6,0.2s-0.5-1.7-0.1-2.4c0.2-0.4,1-0.5,2.1-0.5
				c1.1,0,2.8,0.6,2.8,0.6v0.3c0,0-1.4-0.4-2.4-0.4c-1,0-1.3,0-1.5,0.2c-0.2,0.2-0.2,0.7-0.2,1C16.7,9.1,16.7,9.6,16.7,9.6z"/>
			<path class="st0" d="M31.1,9.9c0,0,0.2-0.1,0.4-0.1c0.2,0,0.3,0.1,0.3,0.1s0.4-1.4,0.2-2c-0.2-0.5-1.2-0.6-2.1-0.6
				c-1.1,0-2.6,0-2.6,0s0.1,0.1,0.1,0.3c0,0.1,0.1,0.3,0.1,0.3s1.3-0.1,1.8,0c0.6,0,1.5,0.1,1.7,0.4c0.2,0.2,0.2,0.5,0.2,0.8
				C31.2,9.3,31.1,9.9,31.1,9.9z"/>
			<path class="st0" d="M26.2,9.6c0,0,0.1,0,0.3,0c0.3,0,0.6,0.2,0.6,0.2s0.4-1.7,0.1-2.4C27,7,26.2,6.9,25.1,7
				c-1.1,0-2.8,0.6-2.8,0.6l0,0.3c0,0,1.4-0.4,2.4-0.4c1,0,1.3,0,1.5,0.2c0.2,0.2,0.2,0.7,0.2,1C26.3,9.1,26.2,9.6,26.2,9.6z"/>
		</g>
		<path class="st0" d="M18.9,15.4H31l1.1-5.1c-0.2-0.2-0.6-0.2-0.6-0.2S31,10,30.8,10.4c-0.2,0.5,0.3,0.9,0.3,0.9l-0.3,0.4
			c0,0-0.4-0.6-0.8-0.7c-0.2,0-0.5,0.1-0.5,0.8c0,0.6,0.1,0.8,0.5,0.8c0.4,0,1-0.7,1-0.7l0.2,0.4l-0.6,1.2c0,0-0.6,0.3-1.6,0.3
			c-1.5,0-1.6-0.3-1.6-0.3l-0.6-1.2l0.2-0.4c0,0,0.6,0.6,0.9,0.7c0.3,0,0.5-0.2,0.5-0.8c0-0.6-0.3-0.8-0.6-0.8
			c-0.4,0.1-0.8,0.7-0.8,0.7l-0.3-0.4c0,0,0.6-0.5,0.5-0.9c-0.1-0.6-0.8-0.6-0.8-0.6s-0.6,0-0.7,0.5c-0.2,0.5,0.5,1,0.5,1l-0.3,0.4
			c0,0-0.4-0.6-0.8-0.7c-0.1,0-0.5,0.1-0.5,0.8c0,0.5,0.2,0.8,0.5,0.7c0.4,0,1-0.7,1-0.7l0.2,0.4l-0.6,1.2c0,0-0.1,0.3-1.5,0.3l0,0
			c-1.4,0-1.5-0.2-1.5-0.2l-0.7-1.4l0.2-0.4c0,0,0.6,0.7,0.9,0.7c0.3,0,0.6-0.2,0.6-0.8c0-0.7-0.3-0.9-0.6-0.9
			c-0.4,0.1-0.9,0.7-0.9,0.7l-0.2-0.3c0,0,0.7-0.6,0.5-1.1c-0.2-0.4-0.7-0.4-0.7-0.4s-0.6,0-0.7,0.4c-0.2,0.5,0.5,1.1,0.5,1.1
			L21,11.6c0,0-0.6-0.6-1-0.7c-0.3,0-0.6,0.3-0.6,0.8c0,0.6,0.3,0.9,0.6,0.9c0.4,0,0.9-0.7,0.9-0.7l0.2,0.4l-0.7,1.4
			c0,0,0,0.2-1.6,0.2c-1.4,0-1.5-0.3-1.5-0.3l-0.6-1.2l0.2-0.4c0,0,0.6,0.6,1,0.7c0.3,0,0.5-0.2,0.5-0.7c0-0.8-0.4-0.8-0.5-0.8
			c-0.4,0.1-0.8,0.7-0.8,0.7l-0.3-0.4c0,0,0.7-0.5,0.5-1c-0.1-0.5-0.7-0.5-0.7-0.5s-0.7,0-0.8,0.6c0,0.4,0.5,0.9,0.5,0.9L16,11.7
			c0,0-0.4-0.6-0.8-0.7c-0.3-0.1-0.6,0.2-0.6,0.8c0,0.6,0.2,0.8,0.5,0.8c0.4,0,0.9-0.7,0.9-0.7l0.2,0.4l-0.6,1.2
			c0,0-0.1,0.3-1.6,0.3c-1,0-1.6-0.3-1.6-0.3l-0.6-1.2l0.2-0.4c0,0,0.6,0.7,1,0.7c0.3,0,0.5-0.2,0.5-0.8c0-0.7-0.4-0.8-0.5-0.8
			c-0.4,0.1-0.8,0.7-0.8,0.7l-0.3-0.4c0,0,0.6-0.5,0.3-0.9c-0.2-0.4-0.7-0.3-0.7-0.3s-0.4,0-0.6,0.2l1.2,5.1H24"/>
		<path class="st0" d="M21.5,3.6c-1.1,0-1.9,0.9-1.9,1.9c0,1.1,0.9,1.9,1.9,1.9s1.9-0.9,1.9-1.9C23.4,4.4,22.5,3.6,21.5,3.6z"/>
		<g>
			<path class="st0" d="M22,3.4V2.1h1V1.1h-1.1V0H21v1.1h-1.1v0.9h1v1.4c0.2,0,0.3-0.1,0.5-0.1C21.6,3.4,21.8,3.4,22,3.4z"/>
		</g>
		<path class="st0" d="M15.5,9c0,0-0.8,0.1-1.7,0.5c-0.9,0.4-1.5,0.8-1.5,0.8s0.1,0.2,0,0.3c0,0,0.7-0.6,1.6-1
			c0.9-0.4,1.6-0.5,1.6-0.5L15.5,9z"/>
		<path class="st0" d="M16.9,8.8l0,0.3c0,0,2-0.2,3.8-0.2l0-0.3C19.6,8.5,17.6,8.7,16.9,8.8z"/>
		<path class="st0" d="M27.4,9c0,0,0.8,0.1,1.7,0.5c0.9,0.4,1.4,0.8,1.4,0.8s-0.1,0.2-0.1,0.3c0,0-0.6-0.5-1.5-0.9
			c-0.9-0.4-1.6-0.5-1.6-0.5L27.4,9z"/>
		<path class="st0" d="M26.1,8.8l0,0.3c0,0-2-0.2-3.9-0.2l0-0.3C23.3,8.5,25.3,8.7,26.1,8.8z"/>
	</g>
	<g>
		<g>
			<path class="st0" d="M31.4,25.5c0,0-0.5,0.1-0.8,0c-0.1,0-0.5-0.2-0.6-0.1c-0.3,0-0.6,0.1-0.6,0.1s0.4-0.7,1.3-1.5
				c0.9-0.8,2.1-2.5,1.8-4c-0.4-1.5-1.2-2-2.2-2c-1.2,0-1.8,0.3-2.1,1.2c-0.1,0.3,0,0.7-0.2,1.1c0,0-0.2,0.4-0.5,0.7
				c-0.2,0.3-0.5,1.2-0.5,1.2l0.1,0l0.9-0.9l0.1,0.5c0,0-0.4,0.5-1,1.3c-0.4,0.5-0.9,1.5-1,1.9l0.2,0c0,0,0.4-0.7,1.7-1.6
				c0.4-0.3,1.1-0.8,1.2-1.2c0.1-0.5,0-1,0-1s0.3,0.3,0.5,0.7c0.1,0.4,0.1,0.8,0.1,0.8s0.4-1,0.3-1.6c-0.1-0.9-0.3-1-0.7-1.1
				c-0.1,0-0.5,0-0.5,0s-0.3-1,0.7-1.3c0.7-0.2,1.5-0.3,2,0.7c0.6,1,0.3,2.1-0.2,2.7c-0.5,0.6-1.4,1.5-3,2.6c-1.2,0.8-2.2,1.9-2,3
				c0.2,1.5,1.4,3.2,2,4.1c0.6,0.9,0.9,2,0.3,2.7c-0.5,0.7-1.7,1-2.5,0.5c-0.6-0.5-1.4-1.7-2-3.4c-0.5-1.4-1.1-2.2-1.1-2.2l0.1-4.8
				l0.3,0.2c0,0,0-0.5,0.2-0.8c0.2-0.5,0.8-1.3,1.2-2.2c0.4-0.9,0.4-2.2,0.4-2.2s0.3-0.2,0.4-0.4l0-0.4l-0.4-0.3l0,0l0.7-1.1
				c-0.1-0.1-0.5,0.1-0.5,0.1s-0.3-0.4-0.5,0c-0.1,0.3,0.2,0.4,0.2,0.4L25,17.7l-0.8-0.2l-0.1-0.3c0,0,0.4,0.2,0.5-0.1
				c0.1-0.3-0.3-0.3-0.3-0.3s0.1-0.2-0.2-0.3c-0.3-0.1-0.3,0.2-0.3,0.2s-0.3-0.2-0.4,0.1c-0.1,0.3,0.3,0.3,0.3,0.3l-0.2,0.2
				l-0.7-0.1l-0.1-0.3c0,0,0.4,0,0.4-0.3c-0.1-0.4-0.5-0.2-0.5-0.2s-0.1-0.2-0.4-0.2l0.1,1.2l2.6,0.6l-0.3,0.1l-2.4-0.6l-0.8,0.6
				l0.1,0.6l0.4,0.5l-0.3,0.5l1.2,0.1l-0.1,0.3c0,0-0.6,0.1-1.5,0.3c-0.3,0.1-1.9,1.2-2.3,1.6c-0.3,0.2-0.4,0.6-0.4,0.6l-1.9-1
				l-0.1-0.4l-0.4,0.1l-0.4-0.3c0,0,0.4-0.5,0.6-1c0.1-0.4-0.1-0.9-0.1-0.9l-0.2-0.1l0,0.7l-0.5,0.2L15,21l-0.1-0.1v-3.5h-0.6v3.1
				c0,0-0.1-0.1-0.5-0.1c-0.4,0-0.8,0.1-0.8,0.1l-0.1,0.2l0.7,0.1l0.1,0.5l0.6,0.2v0.4c0,0-0.3-0.1-0.6,0.2
				c-0.4,0.4-0.5,0.8-0.5,0.8l0,0.2c0.1-0.1,0.3-0.5,0.4-0.4c0.3,0.1,0.3,0.1,0.5,0.2l0.2-0.2v4.8c0,0-0.3-0.1-0.6,0
				c-0.1,0-0.3,0.1-0.4,0.1l-0.1,0.2c0,0,0.5-0.1,0.6,0c0.1,0.1,0.1,0.2,0.2,0.4c0,0.1,0.2,0.1,0.3,0.2l0,0.8l-0.4,0.6l0,0.3
				l0.5-0.4v1.7h0.6v-1.6l0.3,0l0.8-0.9c0,0,0.4,0,0.5,0.2c0.1,0.1,0,0.4,0.1,0.5c0.1,0,0.2,0.1,0.2,0.1l4.1-4.9l-1.7,2l0.3,0.8
				l0.8,0.9l0.3,1.6l-2,0.9c0,0-0.2,0.4-0.3,1.2c-0.1,0.8-0.2,1.4-0.2,1.4l0.2,0.7l-2.4-0.3l-0.2-0.6c0,0,0.3-0.4,0.5-0.8
				c0.2-0.5,0-1.1,0-1.1l-0.2-0.2l-0.1,0.7l-0.4,0.1L15.2,33L15,33c0,0-0.2-0.5-0.7-0.8c-0.5-0.3-1-0.2-1-0.2l-0.1,0.1l0.7,0.2
				l-0.1,0.5l0.8,0.3l-0.1,0.2l-0.7,0.1l-0.1,0.3l-0.7,0l0.1,0.1c0,0,0.3,0.3,0.9,0.3c0.5,0,0.9-0.2,0.9-0.2l0.3,0.8l-0.4,0.4
				l0.1,0.1l0.4,0l2.7,0.6l0.5,0.4l0.9-0.4c0,0,0-0.4,0.2-0.7c0.1-0.2,0.3-0.4,0.5-0.6c0,0-0.4-0.7-0.5-0.9
				c-0.2-0.4-0.2-1.5-0.2-1.7c0.1-0.5,1.6-1.8,1.6-1.8l0.4-0.9l0.2,0.1L21,30.3c-1,0.7-1.5,1.5-1.6,1.7c0,0.1,0,1.1,0.2,1.5
				c0.1,0.2,0.4,0.8,0.4,0.8s0.4,0.5,0.9,1.1c0.6,0.5,0.8,0.9,0.9,1.3c0.2,0.7,0.2,1.9,0.2,2.7c0,0.3,0,0.7,0,0.7l-0.6,0.1
				c0,0-0.5-0.8-0.7-0.9c-0.5-0.2-0.9-0.4-0.9-0.4L19.9,39l0.5,0.4l-0.1,0.6l0.8,0.5c0,0-0.5,0.2-0.7,0.2c-0.5,0-0.9,0.8-0.9,0.8
				l0,0.2l0.5-0.3l0.5,0.2l0.7-0.6l0.1,0.1c0,0-0.1,0.5,0,0.9c0.1,0.4,0.4,0.8,0.4,0.8l0.2,0l-0.2-0.8l0.4-0.4L22,41.2l0.6-0.4
				l0.6,0.4l0.1-0.1c-0.1-1.1,0.2-3.5,0.2-3.5s0.3-0.3,0.3-0.5c0-0.2,0-0.7,0-0.8c-0.1-0.1-0.3-0.5-0.3-0.5s-0.3-1.1-0.2-2.3
				c0-0.3,0-0.5,0-0.8c0.1,0.3,0.8,1.3,1.3,2c1,1.2,2.2,1.4,2.8,1.2c2.6-0.8,2-3.2,2-3.2c-1-2.5-0.8-2.9-0.8-2.9l1.7-0.7l0-0.1
				l-0.6,0L29,28.7h-0.5l0-0.3l2.5-1.1l0-0.1l-0.5,0.1l-1-0.2l-0.9,0.2l0.1-0.4L31.4,25.5z M25,18.5l0.2,0.1l0,0.2l-0.3,0.2
				l-0.1-0.3l-0.2-0.2L25,18.5z M14.9,29.1l0-0.7c0,0,0.5,0,0.5,0.2C15.4,28.9,14.9,29.1,14.9,29.1z M16.4,28.2l-0.5-0.3l0-1.1
				l-0.6-1l-0.2,0l0.3,0.6l-0.3,0.5l0.3,0.7l-0.2,0.2l-0.4-0.5v-5.5l0.5,0.3l-0.2,0.3l0.3,0.2l0.2-0.1l2.3,1.8l-0.2,0.6l0.7-0.1
				L16.4,28.2z M19.7,22.4c-0.2,0.1-0.8,1.3-0.8,1.3l-0.2-0.1c0.1-0.2,0.7-1.2,0.9-1.4c0.2-0.1,1-0.2,1.5-0.2l0,0.2
				C21.1,22.2,20,22.3,19.7,22.4z M21.8,18.2l0.4-0.3l1.4,0.3l0.1,0.2c-0.2-0.1-0.7-0.2-0.7-0.2c-0.1,0.3-0.2,0.3-0.2,0.3
				c0,0-0.3,0-0.4,0c-0.2-0.1-0.2-0.4-0.2-0.4c-0.2,0.1-0.3,0.2-0.3,0.2L21.8,18.2z M22.1,19.4L22,19l1,0.1l0.1,0.4L22.1,19.4z
				 M22.8,18.3c0,0,0.1-0.2,0.1-0.2l-0.4-0.1c0,0,0,0.2,0.1,0.2C22.5,18.3,22.7,18.3,22.8,18.3z"/>
		</g>
	</g>
	<path class="st0" d="M38.3,15.2H37l0.9-2.4l-1.7-4.6l-1.7,4.6l0.9,2.4l-1.4,0v0.1c-0.1,0-0.1,0.1-0.1,0.1v1h0v1.4h0v22h0v1.4h0v1
		c0,0.1,0.1,0.1,0.1,0.1h1.5v2.6c-1.4,0.2-2.4,1.3-2.4,2.7v0.4H9.8v-0.4c0-1.4-1-2.5-2.4-2.7v-2.6h1.5c0.1,0,0.1-0.1,0.1-0.1V15.4
		c0-0.1-0.1-0.1-0.1-0.1c0,0,0-0.1,0-0.1H7.5l0.9-2.4L6.7,8.2l-1.7,4.6l0.9,2.4H4.6c-2.5,0.1-4.5,2.3-4.5,4.9c0,2.6,1.9,4.7,4.3,4.9
		v17.6H6v3.5l1.2,0c0.9,0.1,1.5,0.8,1.5,1.7v1.5h25.4v-1.5c0-0.6,0.4-1.7,1.6-1.7l1.1,0v-3.5h1.6V25.1c2.4-0.1,4.3-2.3,4.3-4.9
		C42.8,17.5,40.8,15.3,38.3,15.2z M4.5,24.6C4.4,24.6,4.4,24.6,4.5,24.6c-0.7-0.2-1.3-0.8-1.3-1.6c0-0.8,0.5-1.5,1.3-1.6V24.6z
		 M4.5,21.2c-0.9,0.1-1.5,0.9-1.5,1.9c0,0.6,0.2,1.1,0.6,1.4c-1.7-0.5-3-2.3-3-4.3c0-2,1.3-3.7,3-4.3c-0.4,0.3-0.6,0.8-0.6,1.4
		c0,1,0.7,1.8,1.6,1.9V21.2z M4.5,16.4v1.4v1c-0.7-0.1-1.3-0.8-1.3-1.6c0-0.7,0.5-1.4,1.1-1.6c0.1,0,0.1,0,0.2,0V16.4z M8.7,38.1
		l-1.3-1.8l1.3-1.9V38.1z M6.7,20.5l-1.8-2.6h3.6L6.7,20.5z M8.7,18.1l0,0.9l-1.5,2.1l-0.3-0.5L8.7,18.1z M8.7,23.7v1l-3.9-5.6v-1
		L8.7,23.7z M8.7,25.6l0,0.9l-1.5,2.1l-0.3-0.5L8.7,25.6z M8.6,25.2L6.7,28l-1.9-2.7v-0.1l1.9-2.7L8.6,25.2z M8.7,31.2v1l-3.8-5.5
		v-1L8.7,31.2z M8.7,33l0,0.9l-1.5,2.1l-0.3-0.5L8.7,33z M6.7,35.3l-1.9-2.7l1.9-2.7l1.9,2.7L6.7,35.3z M6,28.9l-1.2,1.8v-3.6
		L6,28.9z M6.2,29.2l0.3,0.5l-1.7,2.5v-1L6.2,29.2z M8.7,38.5v1l-3.8-5.4v-1L8.7,38.5z M8.5,39.9H4.9l1.8-2.6L8.5,39.9z M6,36.3
		l-1.2,1.8v-3.5L6,36.3z M6.2,36.5L6.5,37l-1.7,2.4v-1L6.2,36.5z M8.7,40.1V41H4.8v-0.9H8.7z M8.7,30.8l-1.3-1.9L8.7,27V30.8z
		 M8.7,23.3l-1.3-1.9l1.3-1.9V23.3z M6.9,15.2v-2.3h1l-0.8,2.3H6.9z M6.9,9.8l1,2.8h-1V9.8z M6.6,9.9v2.8h-1L6.6,9.9z M5.6,12.9h1
		v2.3H6.4L5.6,12.9z M4.7,15.7h3.9v0.8H4.7V15.7z M4.7,16.7h3.9v0.9H4.7V16.7z M4.7,19.6L6,21.5l-1.3,1.9V19.6z M4.8,24.6L4.8,24.6
		l0-0.6v-0.2l1.5-2.1l0.3,0.5L4.8,24.6L4.8,24.6z M7.1,45.7l-0.7,0v-3.2h0.7V45.7z M6.2,42.2H4.8v-0.9h3.9v0.9H7.2H6.2z M35.5,45.7
		c-1.2,0.1-1.8,1.3-1.8,2.1v1.1H9.1v-1.1c0-1-0.7-1.9-1.8-2.1v-0.3c1.2,0.2,2.1,1.2,2.1,2.4v0.5c0,0.1,0.1,0.1,0.1,0.1h23.6
		c0.1,0,0.1-0.1,0.1-0.1v-0.5c0-1.2,0.9-2.3,2.1-2.4V45.7z M36.3,15.2v-2.3h1l-0.8,2.3H36.3z M36.3,9.8l1,2.8h-1V9.8z M36,9.9v2.8
		h-1L36,9.9z M35,12.9h1v2.3h-0.2L35,12.9z M34.2,19.6l1.3,1.9l-1.3,1.9V19.6z M35.7,21.7l0.3,0.5l-1.8,2.6l0-0.9L35.7,21.7z
		 M34.2,27.1l1.3,1.9l-1.3,1.9V27.1z M34.2,32.2l0-0.9l1.5-2.1l0.3,0.5L34.2,32.2z M36.2,29.9l1.9,2.7l-1.9,2.7l-1.9-2.7L36.2,29.9z
		 M34.2,34.5l1.3,1.8l-1.3,1.9V34.5z M34.2,39.6l0-0.9l1.5-2.1L36,37L34.2,39.6z M36.2,37.3l1.8,2.6h-3.6L36.2,37.3z M36.5,45.7
		l-0.7,0v-3.2h0.7V45.7z M38.1,42.2h-1.4h-0.2h-0.8h-1.5v-0.9h3.9V42.2z M38.1,41h-3.9v-0.9h3.9V41z M38.1,39.5l-3.9-5.5v-1l3.9,5.5
		V39.5z M38.1,38.1l-1.2-1.7l1.2-1.8V38.1z M38.1,34.1l-1.4,2l-0.3-0.5l1.7-2.5V34.1z M38.1,32.2l-3.9-5.5v-1l3.9,5.5V32.2z
		 M38.1,30.7l-1.2-1.8l1.2-1.8V30.7z M38.1,26.7l-1.4,2l-0.3-0.5l1.7-2.5V26.7z M38.1,25.2L36.2,28l-1.9-2.8l1.9-2.8L38.1,25.2
		L38.1,25.2z M38.1,24.7L38.1,24.7L38.1,24.7l-3.9-5.5v-1l3.9,5.6V24.7z M34.3,17.8H38l-1.8,2.6L34.3,17.8z M38.1,23.3l-1.3-1.9
		l1.3-1.9V23.3z M38.1,19.1l-1.5,2.1l-0.3-0.5l1.8-2.6l0,0.6V19.1z M38.1,17.6h-3.9v-0.9h3.9V17.6z M38.1,16.4h-3.9v-0.8l3.9,0V16.4
		z M38.4,17.8v-1.4v-0.7c0.1,0,0.1,0,0.2,0c0.6,0.2,1.1,0.8,1.1,1.6c0,0.8-0.6,1.5-1.3,1.6V17.8z M38.6,24.6c-0.1,0-0.1,0-0.2,0
		v-3.2c0.7,0.1,1.3,0.8,1.3,1.6C39.7,23.8,39.2,24.4,38.6,24.6z M39.4,24.4c0.4-0.3,0.6-0.8,0.6-1.4c0-1-0.7-1.8-1.6-1.9v-2
		c0.9-0.1,1.6-0.9,1.6-1.9c0-0.6-0.2-1-0.6-1.4c1.7,0.6,3,2.3,3,4.3C42.4,22.2,41.1,23.9,39.4,24.4z"/>
	<g>
		<g>
			<g>
				<path class="st0" d="M15.1,43.5h-1.2c-0.1,0-0.1-0.1-0.1-0.1v-1.2c0-0.1,0.1-0.1,0.1-0.1h1.2c0.1,0,0.1,0.1,0.1,0.1v1.2
					C15.2,43.5,15.2,43.5,15.1,43.5L15.1,43.5z M14,43.2h0.9v-0.9H14V43.2L14,43.2z"/>
			</g>
			<g>
				<path class="st0" d="M18.5,46.9h-1.2c-0.1,0-0.1-0.1-0.1-0.1v-1.2c0-0.1,0.1-0.1,0.1-0.1h1.2c0.1,0,0.1,0.1,0.1,0.1v1.2
					C18.7,46.8,18.6,46.9,18.5,46.9L18.5,46.9z M17.5,46.6h0.9v-0.9h-0.9V46.6L17.5,46.6z"/>
			</g>
			<g>
				<path class="st0" d="M11.6,40.2h-1.2c-0.1,0-0.1-0.1-0.1-0.1v-1.2c0-0.1,0.1-0.1,0.1-0.1h1.2c0.1,0,0.1,0.1,0.1,0.1V40
					C11.8,40.1,11.7,40.2,11.6,40.2L11.6,40.2z M10.6,39.9h0.9V39h-0.9V39.9L10.6,39.9z"/>
				<path class="st0" d="M11.6,46.9h-1.2c-0.1,0-0.1-0.1-0.1-0.1v-1.2c0-0.1,0.1-0.1,0.1-0.1h1.2c0.1,0,0.1,0.1,0.1,0.1v1.2
					C11.8,46.8,11.7,46.9,11.6,46.9L11.6,46.9z M10.6,46.6h0.9v-0.9h-0.9V46.6L10.6,46.6z"/>
			</g>
			<g>
				<path class="st0" d="M25.4,46.9h-1.2c-0.1,0-0.1-0.1-0.1-0.1v-1.2c0-0.1,0.1-0.1,0.1-0.1h1.2c0.1,0,0.1,0.1,0.1,0.1v1.2
					C25.6,46.8,25.5,46.9,25.4,46.9L25.4,46.9z M24.4,46.6h0.9v-0.9h-0.9V46.6L24.4,46.6z"/>
			</g>
			<g>
				<path class="st0" d="M28.9,43.5h-1.2c-0.1,0-0.1-0.1-0.1-0.1v-1.2c0-0.1,0.1-0.1,0.1-0.1h1.2c0.1,0,0.1,0.1,0.1,0.1v1.2
					C29,43.5,29,43.5,28.9,43.5L28.9,43.5z M27.9,43.2h0.9v-0.9h-0.9V43.2L27.9,43.2z"/>
			</g>
			<g>
				<path class="st0" d="M32.3,40.2h-1.2c-0.1,0-0.1-0.1-0.1-0.1v-1.2c0-0.1,0.1-0.1,0.1-0.1h1.2c0.1,0,0.1,0.1,0.1,0.1V40
					C32.5,40.1,32.4,40.2,32.3,40.2L32.3,40.2z M31.3,39.9h0.9V39h-0.9V39.9L31.3,39.9z"/>
				<path class="st0" d="M32.3,46.9h-1.2c-0.1,0-0.1-0.1-0.1-0.1v-1.2c0-0.1,0.1-0.1,0.1-0.1h1.2c0.1,0,0.1,0.1,0.1,0.1v1.2
					C32.5,46.8,32.4,46.9,32.3,46.9L32.3,46.9z M31.3,46.6h0.9v-0.9h-0.9V46.6L31.3,46.6z"/>
			</g>
		</g>
		<g>
			<path class="st0" d="M11.4,32.1c0-0.1-0.1-0.1-0.1-0.1h-0.9c-0.1,0-0.1,0.1-0.1,0.1v1.2c0,0.1,0.1,0.1,0.1,0.1h1.2
				c0.1,0,0.1-0.1,0.1-0.1l0-0.6C11.6,32.6,11.5,32.3,11.4,32.1z M11.5,33.2h-0.9v-0.9h0.6c0.1,0.2,0.2,0.4,0.3,0.5V33.2z"/>
			<path class="st0" d="M32.3,32h-0.8c-0.1,0-0.1,0-0.1,0.1c-0.1,0.3-0.2,0.5-0.4,0.8v0.4c0,0.1,0.1,0.1,0.1,0.1h1.2
				c0.1,0,0.1-0.1,0.1-0.1v-1.2C32.5,32.1,32.4,32,32.3,32z M32.2,33.2h-0.9l0-0.2c0.1-0.2,0.2-0.5,0.3-0.7h0.6V33.2z"/>
			<path class="st0" d="M16.3,40v-0.5c0,0,0-0.1,0-0.1c-0.2-0.2-0.4-0.5-0.6-0.7c0,0-0.1,0-0.1,0h-0.1c-0.1-0.1-0.1-0.1-0.2-0.2
				v-0.2c0,0,0-0.1,0-0.1c-0.1-0.2-0.3-0.4-0.4-0.5c0,0-0.1-0.1-0.1-0.1H14c-0.1,0-0.1,0.1-0.1,0.1v0.9h-0.9c-0.1,0-0.1,0.1-0.1,0.1
				V40c0,0.1,0.1,0.1,0.1,0.1h0.9V41c0,0.1,0.1,0.1,0.1,0.1h1.2c0.1,0,0.1-0.1,0.1-0.1v-0.9h0.9C16.3,40.1,16.3,40.1,16.3,40z
				 M16,39.8h-0.9c-0.1,0-0.1,0.1-0.1,0.1v0.9h-0.9V40c0-0.1-0.1-0.1-0.1-0.1H13v-0.9H14c0.1,0,0.1-0.1,0.1-0.1v-0.9h0.5
				c0.1,0.2,0.2,0.3,0.4,0.5v0.5c0,0.1,0.1,0.1,0.1,0.1h0.4c0.2,0.2,0.4,0.4,0.5,0.6V39.8z"/>
			<path class="st0" d="M19,42C19,42,18.9,42,19,42l-0.3,0c0,0,0,0,0,0v-0.1c0,0,0-0.1,0-0.1c-0.3-0.2-0.5-0.5-0.8-0.8
				c0,0-0.1,0-0.1,0h-0.3c-0.1,0-0.1,0.1-0.1,0.1V42h-0.9c-0.1,0-0.1,0.1-0.1,0.1v1.2c0,0.1,0.1,0.1,0.1,0.1h0.9v0.9
				c0,0.1,0.1,0.1,0.1,0.1h1.2c0.1,0,0.1-0.1,0.1-0.1v-0.9h0.9c0.1,0,0.1-0.1,0.1-0.1v-0.6c0,0,0-0.1-0.1-0.1
				C19.5,42.5,19.2,42.3,19,42z M19.5,43.2h-0.9c-0.1,0-0.1,0.1-0.1,0.1v0.9h-0.9v-0.9c0-0.1-0.1-0.1-0.1-0.1h-0.9v-0.9h0.9
				c0.1,0,0.1-0.1,0.1-0.1v-0.9h0.1c0.3,0.2,0.5,0.5,0.8,0.7v0.2c0,0.1,0.1,0.1,0.1,0.1h0.3c0.2,0.2,0.4,0.4,0.6,0.5V43.2z"/>
			<path class="st0" d="M10.4,31.1c0,0.1,0.1,0.1,0.1,0.1h0.4c0,0,0.1,0,0.1-0.1c0,0,0-0.1,0-0.1c-0.2-0.6-0.4-1.4-0.6-2.2
				c0-0.1-0.1-0.1-0.1-0.1H9.5c-0.1,0-0.1,0.1-0.1,0.1v1.2c0,0.1,0.1,0.1,0.1,0.1h0.9V31.1z M9.6,29.9V29h0.6
				c0.1,0.3,0.1,0.6,0.2,0.9H9.6z"/>
			<path class="st0" d="M26.5,42h-0.9v-0.9c0-0.1-0.1-0.1-0.1-0.1h-0.4c0,0-0.1,0-0.1,0c-0.3,0.3-0.5,0.5-0.8,0.7c0,0,0,0.1,0,0.1
				V42c0,0,0,0,0,0H24c0,0-0.1,0-0.1,0c-0.2,0.2-0.5,0.4-0.7,0.6c0,0-0.1,0.1-0.1,0.1v0.6c0,0.1,0.1,0.1,0.1,0.1h0.9v0.9
				c0,0.1,0.1,0.1,0.1,0.1h1.2c0.1,0,0.1-0.1,0.1-0.1v-0.9h0.9c0.1,0,0.1-0.1,0.1-0.1v-1.2C26.7,42.1,26.6,42,26.5,42z M26.4,43.2
				h-0.9c-0.1,0-0.1,0.1-0.1,0.1v0.9h-0.9v-0.9c0-0.1-0.1-0.1-0.1-0.1h-0.9v-0.4c0.2-0.2,0.4-0.3,0.6-0.5h0.3c0.1,0,0.1-0.1,0.1-0.1
				v-0.2c0.2-0.2,0.5-0.4,0.7-0.7h0.2v0.9c0,0.1,0.1,0.1,0.1,0.1h0.9V43.2z"/>
			<path class="st0" d="M30,38.7h-0.9v-0.9c0-0.1-0.1-0.1-0.1-0.1h-0.8c0,0-0.1,0-0.1,0.1c-0.1,0.2-0.3,0.3-0.4,0.5c0,0,0,0.1,0,0.1
				v0.2c-0.1,0.1-0.1,0.2-0.2,0.2h-0.1c0,0-0.1,0-0.1,0c-0.2,0.2-0.4,0.5-0.6,0.7c0,0,0,0.1,0,0.1V40c0,0.1,0.1,0.1,0.1,0.1h0.9V41
				c0,0.1,0.1,0.1,0.1,0.1h1.2c0.1,0,0.1-0.1,0.1-0.1v-0.9H30c0.1,0,0.1-0.1,0.1-0.1v-1.2C30.1,38.7,30,38.7,30,38.7z M29.8,39.8
				h-0.9c-0.1,0-0.1,0.1-0.1,0.1v0.9h-0.9V40c0-0.1-0.1-0.1-0.1-0.1h-0.9v-0.3c0.2-0.2,0.3-0.4,0.5-0.6h0.4c0.1,0,0.1-0.1,0.1-0.1
				v-0.5c0.1-0.1,0.2-0.3,0.3-0.4h0.6v0.9c0,0.1,0.1,0.1,0.1,0.1h0.9V39.8z"/>
			<path class="st0" d="M33.4,28.7h-0.9c-0.1,0-0.1,0-0.1,0.1c-0.2,0.8-0.4,1.6-0.6,2.2c0,0,0,0.1,0,0.1c0,0,0.1,0.1,0.1,0.1h0.4
				c0.1,0,0.1-0.1,0.1-0.1v-0.9h0.9c0.1,0,0.1-0.1,0.1-0.1v-1.2C33.5,28.8,33.5,28.7,33.4,28.7z M33.3,29.9h-0.8
				c0.1-0.3,0.1-0.6,0.2-0.9h0.6V29.9z"/>
		</g>
		<path class="st0" d="M9.5,36.8h0.9v0.9c0,0.1,0.1,0.1,0.1,0.1h1.2c0.1,0,0.1-0.1,0.1-0.1v-0.9h0.9c0.1,0,0.1-0.1,0.1-0.1v-1.2
			c0-0.1-0.1-0.1-0.1-0.1h-0.9v-0.9c0-0.1-0.1-0.1-0.1-0.1h-1.2c-0.1,0-0.1,0.1-0.1,0.1v0.9H9.5c-0.1,0-0.1,0.1-0.1,0.1v1.2
			C9.3,36.7,9.4,36.8,9.5,36.8z M9.6,35.6h0.9c0.1,0,0.1-0.1,0.1-0.1v-0.9h0.9v0.9c0,0.1,0.1,0.1,0.1,0.1h0.9v0.9h-0.9
			c-0.1,0-0.1,0.1-0.1,0.1v0.9h-0.9v-0.9c0-0.1-0.1-0.1-0.1-0.1H9.6V35.6z"/>
		<path class="st0" d="M9.5,43.5h0.9v0.9c0,0.1,0.1,0.1,0.1,0.1h1.2c0.1,0,0.1-0.1,0.1-0.1v-0.9h0.9c0.1,0,0.1-0.1,0.1-0.1v-1.2
			c0-0.1-0.1-0.1-0.1-0.1h-0.9v-0.9c0-0.1-0.1-0.1-0.1-0.1h-1.2c-0.1,0-0.1,0.1-0.1,0.1V42H9.5c-0.1,0-0.1,0.1-0.1,0.1v1.2
			C9.3,43.4,9.4,43.5,9.5,43.5z M9.6,42.3h0.9c0.1,0,0.1-0.1,0.1-0.1v-0.9h0.9v0.9c0,0.1,0.1,0.1,0.1,0.1h0.9v0.9h-0.9
			c-0.1,0-0.1,0.1-0.1,0.1v0.9h-0.9v-0.9c0-0.1-0.1-0.1-0.1-0.1H9.6V42.3z"/>
		<path class="st0" d="M26.7,46.8h0.9v0.9c0,0.1,0.1,0.1,0.1,0.1h1.2c0.1,0,0.1-0.1,0.1-0.1v-0.9H30c0.1,0,0.1-0.1,0.1-0.1v-1.2
			c0-0.1-0.1-0.1-0.1-0.1h-0.9v-0.9c0-0.1-0.1-0.1-0.1-0.1h-1.2c-0.1,0-0.1,0.1-0.1,0.1v0.9h-0.9c-0.1,0-0.1,0.1-0.1,0.1v1.2
			C26.6,46.7,26.6,46.8,26.7,46.8z M26.8,45.6h0.9c0.1,0,0.1-0.1,0.1-0.1v-0.9h0.9v0.9c0,0.1,0.1,0.1,0.1,0.1h0.9v0.9h-0.9
			c-0.1,0-0.1,0.1-0.1,0.1v0.9h-0.9v-0.9c0-0.1-0.1-0.1-0.1-0.1h-0.9V45.6z"/>
		<path class="st0" d="M19.8,46.8h0.9v0.9c0,0.1,0.1,0.1,0.1,0.1H22c0.1,0,0.1-0.1,0.1-0.1v-0.9h0.9c0.1,0,0.1-0.1,0.1-0.1v-1.2
			c0-0.1-0.1-0.1-0.1-0.1h-0.9v-0.9c0-0.1-0.1-0.1-0.1-0.1h-1.2c-0.1,0-0.1,0.1-0.1,0.1v0.9h-0.9c-0.1,0-0.1,0.1-0.1,0.1v1.2
			C19.7,46.7,19.7,46.8,19.8,46.8z M19.9,45.6h0.9c0.1,0,0.1-0.1,0.1-0.1v-0.9h0.9v0.9c0,0.1,0.1,0.1,0.1,0.1h0.9v0.9H22
			c-0.1,0-0.1,0.1-0.1,0.1v0.9H21v-0.9c0-0.1-0.1-0.1-0.1-0.1h-0.9V45.6z"/>
		<path class="st0" d="M12.8,45.5v1.2c0,0.1,0.1,0.1,0.1,0.1h0.9v0.9c0,0.1,0.1,0.1,0.1,0.1h1.2c0.1,0,0.1-0.1,0.1-0.1v-0.9h0.9
			c0.1,0,0.1-0.1,0.1-0.1v-1.2c0-0.1-0.1-0.1-0.1-0.1h-0.9v-0.9c0-0.1-0.1-0.1-0.1-0.1H14c-0.1,0-0.1,0.1-0.1,0.1v0.9h-0.9
			C12.8,45.3,12.8,45.4,12.8,45.5z M13,45.6H14c0.1,0,0.1-0.1,0.1-0.1v-0.9H15v0.9c0,0.1,0.1,0.1,0.1,0.1H16v0.9h-0.9
			c-0.1,0-0.1,0.1-0.1,0.1v0.9h-0.9v-0.9c0-0.1-0.1-0.1-0.1-0.1H13V45.6z"/>
		<path class="st0" d="M30.1,36.8H31v0.9c0,0.1,0.1,0.1,0.1,0.1h1.2c0.1,0,0.1-0.1,0.1-0.1v-0.9h0.9c0.1,0,0.1-0.1,0.1-0.1v-1.2
			c0-0.1-0.1-0.1-0.1-0.1h-0.9v-0.9c0-0.1-0.1-0.1-0.1-0.1h-1.2c-0.1,0-0.1,0.1-0.1,0.1v0.9h-0.9c-0.1,0-0.1,0.1-0.1,0.1v1.2
			C30,36.7,30.1,36.8,30.1,36.8z M30.3,35.6h0.9c0.1,0,0.1-0.1,0.1-0.1v-0.9h0.9v0.9c0,0.1,0.1,0.1,0.1,0.1h0.9v0.9h-0.9
			c-0.1,0-0.1,0.1-0.1,0.1v0.9h-0.9v-0.9c0-0.1-0.1-0.1-0.1-0.1h-0.9V35.6z"/>
		<path class="st0" d="M30.1,43.5H31v0.9c0,0.1,0.1,0.1,0.1,0.1h1.2c0.1,0,0.1-0.1,0.1-0.1v-0.9h0.9c0.1,0,0.1-0.1,0.1-0.1v-1.2
			c0-0.1-0.1-0.1-0.1-0.1h-0.9v-0.9c0-0.1-0.1-0.1-0.1-0.1h-1.2C31.1,41,31,41,31,41.1V42h-0.9c-0.1,0-0.1,0.1-0.1,0.1v1.2
			C30,43.4,30.1,43.5,30.1,43.5z M30.3,42.3h0.9c0.1,0,0.1-0.1,0.1-0.1v-0.9h0.9v0.9c0,0.1,0.1,0.1,0.1,0.1h0.9v0.9h-0.9
			c-0.1,0-0.1,0.1-0.1,0.1v0.9h-0.9v-0.9c0-0.1-0.1-0.1-0.1-0.1h-0.9V42.3z"/>
	</g>
</g>
<path class="st0" d="M51.3,40.8h2.9c1.8,0,2.6,0.6,2.6,2.4c0,1.8-0.9,2.5-2.6,2.5h-1.8v2.6h-1.1V40.8z M54.1,44.8
	c0.9,0,1.6-0.1,1.6-1.5c0-1.4-0.7-1.5-1.6-1.5h-1.8v3.1H54.1z"/>
<path class="st0" d="M57.5,44.5c0-3.2,1.4-3.9,3.3-3.9s3.3,0.6,3.3,3.8c0,3.2-1.4,3.9-3.3,3.9C58.9,48.4,57.5,47.7,57.5,44.5z
	 M62.9,44.8v-0.5c0-2.1-0.8-2.6-2.2-2.6c-1.3,0-2.1,0.5-2.1,2.6v0.5c0,2.1,0.8,2.7,2.2,2.7C62.1,47.4,62.9,46.9,62.9,44.8z"/>
<path class="st0" d="M65.1,40.8h1.1v6.5H70v0.9h-5V40.8z"/>
<path class="st0" d="M71.1,40.8h1.1v7.5h-1.1V40.8z"/>
<path class="st0" d="M75.6,41.7h-2.5v-1h6v1h-2.4v6.5h-1.1V41.7z"/>
<path class="st0" d="M80.2,40.8h1.1v7.5h-1.1V40.8z"/>
<path class="st0" d="M82.8,40.8h4.6v1h-3.6v2.1h2.8v1h-2.8v2.5h3.6v0.9h-4.6V40.8z"/>
<path class="st0" d="M90.5,41.7H88v-1h6v1h-2.4v6.5h-1.1V41.7z"/>
<path class="st0" d="M94.5,48l0.2-0.9c0.4,0.1,1.5,0.3,2.3,0.3c1.2,0,1.6-0.2,1.6-1.2c0-0.9-0.3-1-1.6-1.2c-1.9-0.4-2.4-0.7-2.4-2.3
	c0-1.4,0.9-2,2.6-2c0.9,0,2,0.2,2.2,0.2l-0.2,0.9c-0.3-0.1-1.3-0.2-2.1-0.2c-1,0-1.4,0.2-1.4,1c0,0.9,0.3,1,1.6,1.3
	c1.7,0.4,2.4,0.6,2.4,2.2c0,1.7-1,2.1-2.8,2.1C95.9,48.3,94.9,48.1,94.5,48z"/>
<path class="st0" d="M104.6,40.8h1.1v7.5h-1.1V40.8z"/>
<path class="st0" d="M110,41.7h-2.5v-1h6v1h-2.4v6.5H110V41.7z"/>
<path class="st0" d="M114.3,45h2.8v0.9h-2.8V45z"/>
<path class="st0" d="M119.5,40.8h4.6v1h-3.6v2.1h2.8v1h-2.8v2.5h3.6v0.9h-4.6V40.8z"/>
<path class="st0" d="M125.8,40.8h1l3.7,5.6v-5.6h1v7.5h-0.9l-3.9-5.7v5.7h-1V40.8z"/>
<path class="st0" d="M133.2,40.8h1.1v3h3.8v-3h1.1v7.5h-1.1v-3.5h-3.8v3.5h-1.1V40.8z"/>
<path class="st0" d="M140.7,40.8h4.6v1h-3.6v2.1h2.8v1h-2.8v2.5h3.6v0.9h-4.6V40.8z"/>
<path class="st0" d="M148.4,41.7h-2.5v-1h6v1h-2.4v6.5h-1.1V41.7z"/>
</svg>
