<?xml version="1.0" encoding="utf-8"?>
<!-- Generator: Adobe Illustrator 26.3.1, SVG Export Plug-In . SVG Version: 6.00 Build 0)  -->
<svg version="1.1" xmlns="http://www.w3.org/2000/svg" xmlns:xlink="http://www.w3.org/1999/xlink" x="0px" y="0px"
	 viewBox="0 0 407.5 254.3" style="enable-background:new 0 0 407.5 254.3;" xml:space="preserve">
<path d="M264.4,194.5c-2.6,0-5.5,0.3-7.3,2.2v-9.5h-5.6v31.7h5v-1.9c1.5,1.3,3.7,2.3,6.9,2.3c9.6,0,10.2-6.5,10.2-12.3
	C273.7,199.6,272.6,194.5,264.4,194.5z M263.1,214.2c-4.8,0-6.1-1.3-6.1-7.3c0-6,1.4-7.3,6.1-7.3c4.1,0,5,1.7,5,7.3
	C268.2,212.5,267.3,214.2,263.1,214.2z M288,194.5c-2.8,0-5,0.9-6.6,2.6v-2.1h-4.8v23.9h5.6v-10.4c0-1.9-0.1-4.5,0.5-6.2
	c0.6-1.6,2-2.8,4.3-2.8c2.3,0,3.2,0.5,3.2,2.7h5.5C295.7,196.8,293.1,194.5,288,194.5z M319.3,194.5c-3.4,0-5.5,1.1-6.9,2.3v-1.9
	h-4.8v23.9h5.6v-11.2c0-4.2-0.4-8.3,5.6-8.3c4.8,0,4.4,2.2,4.4,6.8v12.6h5.6v-13.1C328.6,200.6,329,194.5,319.3,194.5z M348.6,194.9
	v1.9c-1.9-1.7-4.9-2.3-7.5-2.3c-8.3,0-9.6,5-9.6,12.2c0,5.7,0.5,12.1,9.6,12.1c2.3,0,5.2-0.5,6.9-2.1c0,1.2,0.1,3-0.1,4.2
	c-0.3,2.3-2.6,3.2-5.8,3.2c-3.1,0-4.1-0.9-4.1-2.6h-6c0,6.1,5.5,7.3,10.3,7.3c4.4,0,10.2-1.2,11.1-6.9c0.2-1.3,0.2-3.5,0.2-5.7
	v-21.4H348.6z M342,213.8c-4.1,0-5-1.5-5-7.1c0-5.6,0.8-7.3,5-7.3c4.8,0,6,1.3,6,7.3C348.1,212.7,346.8,213.8,342,213.8z
	 M298.4,218.8h5.5v-23.9h-5.5V218.8z M298.4,192.7h5.5v-5.6h-5.5V192.7z"/>
<path d="M306.7,109.1c-1.4,18.2-16.7,32.6-35.3,32.6c-18.6,0-33.9-14.4-35.3-32.6h-5.7c1.5,37.8,32.6,68,70.8,68
	c38.2,0,69.3-30.2,70.8-68H306.7z"/>
<path d="M236.1,103.5c1.4-18.2,16.7-32.6,35.3-32.6c18.6,0,33.9,14.4,35.3,32.6H372c-1.5-37.8-32.6-68-70.8-68
	c-38.2,0-69.3,30.2-70.8,68H236.1z"/>
<path d="M50.8,194.4c-2.6,0-5.5,0.5-7.5,2.3v-1.9h-5v31.7h5.6v-9.5c1.6,1.7,3.7,2.1,6.3,2.1c9.3,0,10.3-6.5,10.3-12.3
	C60.4,199.3,59.3,194.5,50.8,194.4z M49.9,214.3c-4.8,0-6.1-1.4-6.1-7.4c0-6,1.3-7.5,6.1-7.5c4.1,0,5,1.9,5,7.5
	C54.9,212.5,54,214.3,49.9,214.3z M73.9,194.4c-3.9,0-6.8,0.7-8.8,2.7c-2.1,2-2.6,5.1-2.6,9.7c0,4.6,0.4,7.7,2.6,9.7
	c2.1,2,5,2.7,8.8,2.7c3.8,0,6.8-0.7,8.8-2.7c2.1-2,2.6-5.1,2.6-9.7c0-4.6-0.4-7.7-2.6-9.7C80.6,195.1,77.7,194.4,73.9,194.4z
	 M73.9,214.3c-5.4,0-5.9-2.1-5.9-7.5c0-5.4,0.5-7.5,5.9-7.5c5.4,0,5.9,2.1,5.9,7.5C79.7,212.2,79.2,214.3,73.9,214.3z M140,194.4
	c-9.6,0-11,5.5-11,12.7c0,7,1.5,12.1,11.2,12.1c4.5,0,10.5-1.1,10.5-7.6h-5.4c0,2.7-2.9,3-4.9,3c-4.8,0-5.8-1.6-5.8-5.7H151
	C151,200.6,150.5,194.4,140,194.4z M134.7,204.4c0-3.2,0.5-5.4,5.4-5.4c5.2,0,5.5,2,5.5,5.4H134.7z M165,194.4
	c-3.4,0-5.6,1.1-6.9,2.3v-1.9h-4.8v23.9h5.6v-11.2c0-4.2-0.4-8.3,5.6-8.3c4.8,0,4.4,2.2,4.4,6.8v12.6h5.6v-13.1
	C174.3,200.5,174.7,194.4,165,194.4z M119.8,214.7c-2.7-0.1-3-1.4-3-3.2v-11.8h10.9v-4.8h-10.9v-7.8h-5.6v7.8H108v4.8h3.2v11.8
	c0,5.4,3.2,7.8,8.7,7.8c4.8,0,7.8-1.8,7.8-7.6h-5C122.7,213.2,122.3,214.7,119.8,214.7z M96.3,204.3c-2.4-0.1-4-0.1-3.9-2.9
	c0-1.6,0.5-2.7,5.2-2.6c3.2,0.1,4.3,0.8,4.3,3.1h5.1c0-5.7-3.5-7.5-9.4-7.6c-6.4-0.1-10.6,1.2-10.7,7.2c-0.1,7.4,5.4,7.2,10.7,7.5
	c2.8,0.1,4.4,0.2,4.3,3c0,1.7-0.6,2.8-5.4,2.7c-3.9-0.1-4.7-1.1-4.7-3.1h-5.1c0,5.9,3.8,7.5,9.8,7.6c6.4,0.1,10.7-1.4,10.8-7.3
	C107.6,204.2,101.8,204.7,96.3,204.3z"/>
<path d="M171.4,109.1c-1.4,18.2-16.7,32.6-35.3,32.6s-33.9-14.4-35.3-32.6H35.5c1.5,37.8,32.6,68,70.8,68c38.2,0,69.3-30.2,70.8-68
	H171.4z"/>
<path d="M100.8,103.5c1.4-18.2,16.7-32.6,35.3-32.6s33.9,14.4,35.3,32.6h5.7c-1.5-37.8-32.6-68-70.8-68c-38.2,0-69.3,30.2-70.8,68
	H100.8z"/>
</svg>
