<?xml version="1.0" encoding="utf-8"?>
<!-- Generator: Adobe Illustrator 23.0.3, SVG Export Plug-In . SVG Version: 6.00 Build 0)  -->
<svg version="1.1" id="Layer_1" xmlns="http://www.w3.org/2000/svg" xmlns:xlink="http://www.w3.org/1999/xlink" x="0px" y="0px"
	 viewBox="0 0 283.5 110.4" style="enable-background:new 0 0 283.5 110.4;" xml:space="preserve">
<g>
	<path d="M69.2,60c5.1,0,12.5-1.1,12.5-7.1c0-0.5,0-0.9-0.1-1.4l-3-13.2c-0.7-2.9-1.3-4.2-6.4-6.8c-4-2-12.6-5.4-15.2-5.4
		c-2.4,0-3.1,3.1-5.9,3.1c-2.7,0-4.8-2.3-7.3-2.3c-2.5,0-4.1,1.7-5.3,5.1c0,0-3.4,9.7-3.9,11.1c-0.1,0.3-0.1,0.6-0.1,0.8
		C34.4,47.6,49.3,60,69.2,60 M82.5,55.3c0.7,3.4,0.7,3.7,0.7,4.1c0,5.7-6.4,8.9-14.9,8.9c-19.1,0-35.9-11.2-35.9-18.6
		c0-1.1,0.3-2.2,0.6-3c-6.9,0.4-15.8,1.6-15.8,9.4C17.2,69.1,47.8,85,71.9,85c18.5,0,23.2-8.4,23.2-15
		C95.1,64.8,90.6,58.9,82.5,55.3"/>
	<path d="M254.3,63.8c0,4.9,2.9,7.2,8.3,7.2c1.3,0,3.5-0.3,4.9-0.7v-5.6c-1.2,0.3-2,0.5-3.1,0.5c-2.2,0-3-0.7-3-2.8v-8.6h6.4V48
		h-6.4v-7.4l-7,1.5V48h-4.6v5.8h4.6V63.8z M232.6,63.9c0-1.5,1.5-2.2,3.8-2.2c1.5,0,2.9,0.2,4.1,0.5v2.9c-1.3,0.7-2.8,1.1-4.3,1.1
		C233.9,66.2,232.6,65.4,232.6,63.9 M234.7,71.1c2.5,0,4.4-0.5,6.3-1.8v1.4h6.9V56.1c0-5.6-3.7-8.6-10-8.6c-3.5,0-6.9,0.8-10.6,2.5
		l2.5,5.1c2.7-1.1,4.9-1.8,6.9-1.8c2.9,0,4.3,1.1,4.3,3.4v1.1c-1.6-0.4-3.4-0.6-5.2-0.6c-5.9,0-9.4,2.5-9.4,6.8
		C226.5,68.1,229.6,71.1,234.7,71.1 M196.9,70.7h7.4V58.9h12.4v11.8h7.4V40.6h-7.4v11.6h-12.4V40.6h-7.4V70.7z M168.7,59.3
		c0-3.3,2.6-5.8,6-5.8c1.9,0,3.6,0.6,4.8,1.8v8c-1.2,1.2-2.9,1.8-4.8,1.8C171.3,65.1,168.7,62.6,168.7,59.3 M179.6,70.7h6.9V39.1
		l-7,1.5v8.6c-1.7-1-3.7-1.5-5.8-1.5c-6.6,0-11.8,5.1-11.8,11.7c0,6.5,5.1,11.7,11.6,11.7c2.2,0,4.3-0.7,6.1-2V70.7z M148,53.3
		c2.2,0,4,1.4,4.8,3.6h-9.5C143.9,54.6,145.7,53.3,148,53.3 M136.2,59.4c0,6.6,5.4,11.8,12.4,11.8c3.8,0,6.6-1,9.5-3.4l-4.6-4.1
		c-1.1,1.1-2.7,1.7-4.6,1.7c-2.6,0-4.7-1.4-5.6-3.6h16.2V60c0-7.2-4.9-12.4-11.5-12.4C141.5,47.6,136.2,52.7,136.2,59.4 M124.2,46.9
		c2.5,0,3.8,1.5,3.8,3.4c0,1.9-1.4,3.4-3.8,3.4h-7.3v-6.8H124.2z M109.5,70.7h7.4v-11h5.6l5.7,11h8.3l-6.6-12
		c3.6-1.5,5.7-4.8,5.7-8.5c0-5.4-4.3-9.6-10.6-9.6h-15.4V70.7z"/>
</g>
</svg>
