<svg width="300" height="135" viewBox="0 0 300 135" fill="none" xmlns="http://www.w3.org/2000/svg">
<path d="M49.2014 95.8708H60.6707L48.398 73.4657C55.0746 70.7892 58.593 65.1052 58.593 57.4345C58.593 46.6458 51.6117 39.3614 38.591 39.3614H17.647V95.8708H27.9251V75.1765H38.0646L49.2014 95.8708ZM27.9251 47.915H37.0119C44.6857 47.915 48.121 51.4193 48.121 57.4345C48.121 63.4496 44.6858 66.678 37.0673 66.678H27.9251V47.915Z" fill="black"/>
<path d="M95.2234 78.0461C95.2234 84.5028 90.5969 87.7035 86.1643 87.7035C81.3439 87.7035 78.1303 84.3096 78.1303 78.9291V53.4888H68.1016V80.4742C68.1016 90.6559 73.9193 96.4227 82.2858 96.4227C88.6576 96.4227 93.1456 93.084 95.0849 88.3381H95.5281V95.8709H105.252V53.4888H95.2234V78.0461Z" fill="black"/>
<path d="M138.042 61.049V53.4886H128.512V42.4516L118.456 45.2661V53.4886H111.862L111.807 61.049H118.456V83.5921C118.456 92.0354 122.611 96.4778 131.005 96.4778C133.471 96.4778 136.02 96.0639 138.014 95.0982V87.2343C136.74 87.9793 135.327 88.3656 133.72 88.3656C130.091 88.3656 128.512 86.4065 128.512 81.8537V61.049H138.042Z" fill="black"/>
<path d="M180.648 74.3487C180.648 59.5039 173.168 52.9369 162.696 52.9369C150.119 52.9369 142.999 63.0081 142.999 74.9557C142.999 88.1449 150.313 96.5883 165.495 96.5883C169.678 96.5883 173.972 95.6501 177.546 94.1601V85.8548C174.277 87.5931 170.426 88.6968 166.215 88.6968C156.713 88.6968 153.166 84.0888 152.862 77.4115H180.648V74.3487ZM152.862 70.6789C153.111 65.2707 156.823 60.718 162.78 60.718C168.57 60.718 171.617 64.912 171.645 70.6789H152.862Z" fill="black"/>
<path d="M188.757 95.8708H198.786V70.9548C198.786 65.5743 202.858 61.7665 208.371 61.7665C210.089 61.7665 212.166 62.07 213.025 62.3459V53.1576C212.111 52.9921 210.56 52.8817 209.424 52.8817C204.548 52.8817 200.475 55.6409 198.924 60.5524H198.481V53.4887H188.757V95.8708Z" fill="black"/>
<path d="M267.226 61.7287L265.202 73.4637H279.126L277.595 81.7279H263.752L261.29 95.8319H252.536L254.998 81.7279H242.032L239.57 95.8319H230.816L233.278 81.7279H219.328L220.859 73.4637H234.728L236.752 61.7287H223.048L224.525 53.4645H238.202L240.664 39.3613H249.418L246.956 53.4653H259.921L262.384 39.3613H271.138L268.676 53.4653H282.353L280.93 61.7295H267.226V61.7287ZM258.473 61.7287H245.506L243.482 73.4637H256.448L258.473 61.7287Z" fill="black"/>
</svg>
