<?xml version="1.0" encoding="utf-8"?>
<!-- Generator: Adobe Illustrator 23.0.3, SVG Export Plug-In . SVG Version: 6.00 Build 0)  -->
<svg version="1.1" id="Layer_1" xmlns="http://www.w3.org/2000/svg" xmlns:xlink="http://www.w3.org/1999/xlink" x="0px" y="0px"
	 viewBox="0 0 283.5 110.4" style="enable-background:new 0 0 283.5 110.4;" xml:space="preserve">
<g>
	<g id="Layer_1-2">
		<path d="M63.5,76.1H21.5V34.1h42.1V76.1z M26.2,71.4h32.7V38.7H26.2V71.4z"/>
		<path d="M37.8,45.2c0,2-1.6,3.5-3.5,3.5s-3.5-1.6-3.5-3.5c0-2,1.6-3.5,3.5-3.5S37.8,43.3,37.8,45.2L37.8,45.2z"/>
		<path d="M54.3,45.2c0,2-1.6,3.5-3.5,3.6c-2,0-3.5-1.6-3.6-3.5c0-2,1.6-3.5,3.5-3.6c0,0,0,0,0,0C52.8,41.7,54.3,43.3,54.3,45.2
			L54.3,45.2z"/>
		<polygon points="42.2,68.8 29.4,55.6 32.9,52.5 42.5,62 64.3,42.4 67.5,45.8 		"/>
		<path d="M87.7,76.3c-3.8,0-6.8-0.2-14-3l2.7-9.5c8.9,2.8,10.2,2.9,12.6,2.9c1.9,0,3.1-1,3.1-3c0-1.6-1-2.3-2.6-2.8l-6.6-2.1
			c-4.7-1.5-8.9-5-8.9-11.6c0-8.4,6.8-13.1,15.5-13.1c3.1,0,6.1,0.3,12.7,2.1l-2.4,9.6c-7-1.8-9.4-2.1-11.5-2.1c-1.8,0-3,0.7-3,2.8
			c0,1.5,1.1,2,2.7,2.5l6.6,2.3c4.9,1.6,8.9,5,8.9,11.6C103.4,71.7,96.5,76.3,87.7,76.3z"/>
		<path d="M124,76.3c-13,0-17.7-7.5-17.7-21.2c0-15.8,6.7-21.1,17.4-21.1c3,0,6,0.3,12.1,2.3l-2.4,10.1c-5.1-2-7-2.5-9-2.5
			c-4.3,0-6,1-6,11.2c0,10.6,1.7,11.5,6,11.5c2.2,0,4.7-0.8,9.8-3.3l2.3,10.1C130.6,75.8,127.3,76.3,124,76.3z"/>
		<path d="M140.4,75.8V34.6h26.4v9.5h-14.8v6.1h13.8v9.5h-13.8v6.5h15.2l0.6,9.5H140.4z"/>
		<path d="M172.7,75.8V34.6h11.6v31.4h12.9l0.8,9.7H172.7z"/>
		<path d="M215.7,44.2v31.6H204V44.2h-8.8v-9.5h29.3v9.5H215.7z"/>
		<path d="M244.3,76.3c-11.6,0-17.7-5.8-17.7-20.9c0-14.5,6.3-21.4,17.7-21.4s17.7,6,17.7,21.2C262,70.3,255.5,76.3,244.3,76.3z
			 M244.2,43.4c-4.4,0-5.6,1.2-5.6,11.8c0,10.2,1,11.9,5.6,11.9s5.6-1.7,5.6-11.9C249.9,44.6,248.4,43.4,244.2,43.4L244.2,43.4z"/>
	</g>
</g>
</svg>
