<?xml version="1.0" encoding="utf-8"?>
<!-- Generator: Adobe Illustrator 23.0.6, SVG Export Plug-In . SVG Version: 6.00 Build 0)  -->
<svg version="1.1" id="Layer_1" xmlns="http://www.w3.org/2000/svg" xmlns:xlink="http://www.w3.org/1999/xlink" x="0px" y="0px"
	 viewBox="0 0 283.5 110.3" style="enable-background:new 0 0 283.5 110.3;" xml:space="preserve">
<g>
	<g>
		<g>
			<path d="M26.2,73.8c-5.1,0-9.2-1.2-9.9-1.4c-0.4-0.2-0.6-0.5-0.6-0.8v-0.2l0.5-2.6c0.1-0.4,0.4-0.5,0.7-0.5c0.1,0,0.2,0,0.3,0
				c0.8,0.2,4.9,1.3,8.6,1.3c3.2,0,6.1-0.9,6.1-4.3c0-3.4-3-3.7-6.8-4.3c-4.3-0.6-9.7-1.8-9.7-8.5c0-6.9,5.1-8.7,11.2-8.7
				c4.6,0,8.4,1.1,9.3,1.3c0.5,0.1,0.7,0.4,0.7,0.8v0.2L36,48.7c0,0.3-0.3,0.6-0.6,0.6c0,0-0.1,0-0.1,0C33.4,48.8,30.5,48,27,48
				c-2.9,0-6,0.6-6,3.9c0,3.3,3.3,3.7,6.8,4.3c4.6,0.7,9.9,1.4,9.9,8.7C37.7,71.8,32.1,73.8,26.2,73.8z"/>
			<path d="M76.3,73.3c-1.4,0.3-3.3,0.6-5.5,0.6c-4.3,0-9.5-0.4-9.5-6.7c0-5.1,3.2-5.6,6.4-6.2l7-1.1v-1.3c0-1.1-0.1-1.9-1.1-2.3
				c-0.6-0.3-1.6-0.4-3-0.4c-2.7,0-5.6,0.8-6.8,1.1c-0.1,0-0.2,0-0.3,0c-0.2,0-0.4-0.1-0.4-0.4l-0.6-2.4v-0.2c0-0.4,0.3-0.5,0.5-0.6
				c0.9-0.4,4.6-1.3,8.6-1.3c2.8,0,4.7,0.4,6,1.1c2,1.1,2.4,3,2.4,5.1v10.9C80,72.2,79,72.7,76.3,73.3z M74.7,63.3l-4.9,0.8
				c-1.6,0.2-3.1,0.5-3.1,3c0,3.1,2.5,3.3,4.4,3.3c1.5,0,2.8-0.3,3.6-0.6V63.3z"/>
			<path d="M94.1,56.2c-2.4,0-4.5,0.2-5.6,0.5v16.1c0,0.4-0.2,0.6-0.6,0.6h-4c-0.2,0-0.7-0.2-0.7-0.6v-17c0-1.5,0.9-2,2.8-2.6
				c1.7-0.6,4.5-0.9,6.8-1h0.7c0.6,0,0.6,0,0.8,0.1c0.2,0.1,0.4,0.2,0.4,0.6v2.6C94.7,55.9,94.6,56.2,94.1,56.2z"/>
			<path d="M114.7,64.5c0,0.4-0.2,0.9-0.8,0.9h-13.2c0,1.8,0.5,2.8,1.6,3.6c1,0.8,2.5,1.2,4.7,1.2c2.4,0,4.3-0.6,5.5-0.9
				c0.1,0,0.1,0,0.2,0c0.2,0,0.4,0.2,0.6,0.6l0.5,2c0,0,0,0.1,0,0.2c0,0.3-0.2,0.5-0.5,0.6c-1.3,0.6-4,1.3-7.1,1.3
				c-7.7,0-10.8-3-10.8-10.8c0-7.4,2.1-11,9.7-11c4,0,6.4,1,7.9,2.9c1.3,1.8,1.8,4.3,1.8,7.6V64.5z M109.2,58.6
				c-0.5-2.2-1.7-2.9-4-2.9c-2.6,0-3.7,0.8-4.2,2.8c-0.3,1.1-0.3,2.2-0.3,3.6l8.8,0C109.5,60.8,109.4,59.7,109.2,58.6z"/>
			<path d="M159.6,73.3c-1.4,0.3-3.3,0.6-5.5,0.6c-4.3,0-9.5-0.4-9.5-6.7c0-5.1,3.2-5.6,6.4-6.2l7-1.1v-1.3c0-1.1-0.1-1.9-1.1-2.3
				c-0.6-0.3-1.6-0.4-3-0.4c-2.7,0-5.6,0.8-6.8,1.1c-0.1,0-0.2,0-0.3,0c-0.2,0-0.4-0.1-0.4-0.4l-0.6-2.4v-0.2c0-0.4,0.3-0.5,0.5-0.6
				c0.9-0.4,4.6-1.3,8.6-1.3c2.8,0,4.7,0.4,6,1.1c2,1.1,2.4,3,2.4,5.1v10.9C163.3,72.2,162.3,72.7,159.6,73.3z M158,63.3l-4.9,0.8
				c-1.6,0.2-3.1,0.5-3.1,3c0,3.1,2.5,3.3,4.4,3.3c1.5,0,2.8-0.3,3.6-0.6V63.3z"/>
			<path d="M184.4,73.4h-4.1c-0.4,0-0.6-0.2-0.6-0.6V58.8c0-2.3-0.9-3.1-3-3.1c-2.4,0-4.9,0.7-4.9,0.7v16.3c0,0.4-0.2,0.6-0.6,0.6
				h-4c-0.4,0-0.7-0.2-0.7-0.6v-17c0-1.5,0.7-2,3-2.6c2-0.6,5.3-1,7.9-1c4.9,0,7.7,1.3,7.7,6v14.6C185,73.1,184.7,73.4,184.4,73.4z"
				/>
			<path d="M207.3,73c0,0.2-0.2,0.4-0.4,0.4h-5.3c-0.2,0-0.4,0-0.6-0.2l-6.1-8.3h-1.3v8c0,0.4-0.2,0.6-0.6,0.6h-4.1
				c-0.4,0-0.6-0.2-0.6-0.6V45.2c0-0.5,0.2-0.7,0.7-0.8l3.9-0.7h0.2c0.4,0,0.6,0.2,0.6,0.7v16.9h1.3l6.2-8.3
				c0.2-0.2,0.3-0.3,0.5-0.3l4.8,0.1c0.3,0,0.4,0.2,0.4,0.4c0,0.1,0,0.1-0.1,0.2l-7.5,9.4l7.9,10.1C207.2,72.8,207.3,72.9,207.3,73z
				"/>
			<path d="M45.8,69.8"/>
			<path d="M51.1,52.1c-2.6,0-5.7,0.4-8,1.3c-1.8,0.6-2.5,1.1-2.5,3.2V81c0,0.4,0.3,0.7,0.9,0.6c0.6-0.1,3.7-0.7,3.7-0.7
				c0.5-0.1,0.7-0.3,0.7-0.8v-6.9c1.4,0.3,3.2,0.6,5.1,0.6c7.3,0,8.7-4.6,8.7-10.9C59.7,56.7,58.7,52.1,51.1,52.1z M49.6,70.2
				c-2.1,0-3.7-0.5-3.7-0.5V56.5c0,0,2.3-0.6,4.1-0.6c3,0,4.3,0.7,4.3,7.1C54.3,68.9,53.2,70.2,49.6,70.2z"/>
			<path d="M132.1,73.4h-13.1c-0.4,0-0.7-0.3-0.7-0.6V44.8c0-0.4,0.3-0.6,0.7-0.6h13.2c6.7,0,9.4,2.6,9.4,7.4c0,4.2-2.3,5.7-5.9,6.7
				c4,0.7,6.9,2.8,6.9,7.5C142.5,71,138.8,73.4,132.1,73.4z M131.6,48.3h-7.6v8.4l7.3-0.3c3-0.1,4.5-1.2,4.5-4.2
				C135.8,49.4,134.5,48.3,131.6,48.3z M131.4,60.5l-7.4-0.2v9h7.4c4,0,5.3-1.7,5.3-4.1C136.7,61.9,135.6,60.6,131.4,60.5z"/>
		</g>
	</g>
</g>
<path d="M240.9,30.3c-2.9,0-5.8,0.5-8.4,1.3c11.2-2.4,22.2,2.2,26.2,11.6c4.6,10.9-2,24.1-14.7,29.5c-11.4,4.8-23.9,1.7-29.7-6.8
	c3.4,11.5,14,19.9,26.6,19.9c15.3,0,27.8-12.4,27.8-27.8S256.2,30.3,240.9,30.3z"/>
<path d="M258.7,43.2c-4-9.4-15.1-14-26.2-11.6c-11.2,3.6-19.3,14.1-19.3,26.5c0,2.7,0.4,5.3,1.1,7.8c4.6,6.7,13.3,10.1,22.4,8.8
	V52.3h-5.3c-0.5,0-1-0.4-1-1v-4.7c0-0.5,0.2-0.8,0.7-1l8.3-4.3c0.4-0.2,0.7-0.3,1.1-0.3h6.5c0.6,0,1,0.5,1,1v28.5
	C258,64.4,262.8,52.9,258.7,43.2z"/>
</svg>
