<?xml version="1.0" encoding="utf-8"?>
<!-- Generator: Adobe Illustrator 23.0.3, SVG Export Plug-In . SVG Version: 6.00 Build 0)  -->
<svg version="1.1" id="Layer_1" xmlns="http://www.w3.org/2000/svg" xmlns:xlink="http://www.w3.org/1999/xlink" x="0px" y="0px"
	 viewBox="0 0 283.5 110.4" style="enable-background:new 0 0 283.5 110.4;" xml:space="preserve">
<g>
	<path d="M28.7,63.1c0.3,5.6,3.8,7.5,9.1,7.5c3.8,0,7.7-1.3,7.7-4.9c0-4.2-6.9-5-13.8-7c-6.9-1.9-14-5-14-13.9
		c0-10.5,10.6-14.6,19.6-14.6c9.5,0,19.2,4.6,19.2,15.5H43.9c0.2-4.4-3.9-5.8-7.7-5.8c-2.7,0-6.1,0.9-6.1,4.1
		c0,3.7,6.9,4.4,13.9,6.3c6.9,1.9,13.9,5.2,13.9,13.8c0,12.2-10.4,16.1-20.9,16.1c-11,0-20.8-4.8-20.8-17.1H28.7z"/>
	<path d="M80.5,51.7h-7.1v15.9c0,2.8,1.6,3.4,4.1,3.4c0.9,0,1.9-0.1,3-0.1v8.4c-2.1,0.1-4.2,0.3-6.3,0.3c-9.7,0-12.2-2.8-12.2-12.3
		V33.7h11.4v10.6h7.1V51.7z"/>
	<path d="M84.9,55.1c0.2-4.6,2.4-7.5,5.4-9.3c3.1-1.7,7.1-2.4,11.1-2.4c8.3,0,16.3,1.8,16.3,11.7v15.3c0,3,0,6.2,1.3,8.9h-11.5
		c-0.4-1.1-0.5-2.2-0.7-3.3c-3,3.1-7.3,4.3-11.5,4.3c-6.7,0-11.9-3.4-11.9-10.6c0-11.4,12.4-10.5,20.3-12.1c2-0.4,3-1.1,3-3.2
		c0-2.6-3.2-3.6-5.5-3.6c-3.2,0-5.2,1.4-5.7,4.4H84.9z M99.7,73.1c5.4,0,7.3-3.1,7-10.3c-1.6,1-4.6,1.2-7.1,1.9
		c-2.6,0.6-4.7,1.7-4.7,4.4C95,72,97.2,73.1,99.7,73.1z"/>
	<path d="M141.7,51.7h-7.1v15.9c0,2.8,1.6,3.4,4.1,3.4c0.9,0,2-0.1,3-0.1v8.4c-2.1,0.1-4.2,0.3-6.3,0.3c-9.7,0-12.2-2.8-12.2-12.3
		V33.7h11.4v10.6h7.1V51.7z"/>
	<path d="M147.5,44.3h11.1V49h0.1c2.1-3.6,6.8-5.8,11-5.8c11.6,0,12.6,8.5,12.6,13.5v22.4h-11.4V62.3c0-4.8,0.5-9.6-5.7-9.6
		c-4.3,0-6.2,3.6-6.2,7.5v19h-11.4V44.3z"/>
	<path d="M197.4,64.5c0.2,4.8,3,7.9,7.8,7.9c2.8,0,5.4-1.3,6.5-3.8h10.7c-2.1,8.1-9.6,11.6-17.4,11.6c-11.4,0-19.1-6.9-19.1-18.6
		c0-10.7,8.5-18.4,18.8-18.4c12.5,0,18.8,9.4,18.2,21.2H197.4z M211.6,58.1c-0.2-3.9-3-7.1-6.8-7.1c-4,0-6.7,2.9-7.4,7.1H211.6z"/>
	<path d="M245.2,51.7h-7.1v15.9c0,2.8,1.6,3.4,4.1,3.4c0.9,0,1.9-0.1,3-0.1v8.4c-2.1,0.1-4.2,0.3-6.3,0.3c-9.7,0-12.2-2.8-12.2-12.3
		V33.7h11.4v10.6h7.1V51.7z"/>
	<path d="M267.3,51.7h-7.1v15.9c0,2.8,1.6,3.4,4.1,3.4c0.9,0,2-0.1,3-0.1v8.4c-2.1,0.1-4.2,0.3-6.3,0.3c-9.7,0-12.2-2.8-12.2-12.3
		V33.7h11.4v10.6h7.1V51.7z"/>
</g>
</svg>
