<?xml version="1.0" encoding="UTF-8"?><svg xmlns="http://www.w3.org/2000/svg" viewBox="0 0 862.1 247.86"><defs><style>.cls-1,.cls-2{fill:#650729;}.cls-2{mix-blend-mode:multiply;}.cls-3{isolation:isolate;}</style></defs><g class="cls-3"><g id="Layer_2"><g id="Logo_turkis"><polygon class="cls-1" points="165.14 165.14 82.57 247.71 82.57 82.57 165.14 165.14"/><polygon class="cls-1" points="82.57 165.14 0 82.57 82.57 0 82.57 165.14"/></g><g id="Logo_turkis_gradient"><polygon class="cls-2" points="165.14 165.14 82.57 247.71 82.57 82.57 165.14 165.14"/><polygon class="cls-2" points="82.57 165.14 0 82.57 82.57 0 82.57 165.14"/></g><g id="Text_mørk_fix"><path class="cls-1" d="m862.1,186.09h-19.83l-42.24-83.44-21.89,23.44v60.01h-18.03V8.9L778.14.14v104.56l46.62-50.22h20.86l-32.97,35.03,49.45,96.58Z"/><path class="cls-1" d="m372.39,247.86l22.16-11.63,67.15-181.38h-19.32l-33.74,93.3-4.63,13.3c-.35-1.03-1.03-3.14-2.06-6.23-1.03-3.09-1.8-5.33-2.32-7.05l-33.22-93.33h-18.29l48.16,127.3-23.9,65.71Z"/><path class="cls-1" d="m342.4,100.58c-5.41-4.64-10.82-8.46-16.22-11.46-5.41-3-11.63-5.88-18.67-8.63-6.53-2.58-11.81-4.8-15.84-6.7-4.04-1.89-8.24-4.29-12.62-7.21-4.38-2.92-7.64-6.18-9.79-9.79-2.15-3.61-3.22-7.73-3.22-12.36,0-7.73,3-13.91,9.01-18.54,6.01-4.64,14.26-6.43,24.72-6.95,11.72-.59,25.86,1.69,31.76,5.93,5.46,3.93,8.17,7.85,10.81,13.98h18.17c-5.18-16.5-12.37-22.25-18.23-26.64-10.16-7.62-28.69-9.6-41.74-9.6-16.14,0-29.02,4.09-38.63,12.16-9.62,8.07-14.42,18.06-14.42,29.9,0,7.04,1.46,13.49,4.38,19.33,2.92,5.84,7.17,10.87,12.75,15.07,5.58,4.21,11.07,7.69,16.48,10.43,5.41,2.75,11.8,5.5,19.19,8.24,12.36,4.64,22.23,10.26,29.62,16.87,7.38,6.61,11.07,14.98,11.07,25.11,0,10.65-3.39,18.84-10.17,24.6-6.78,5.75-16.1,8.63-27.94,8.63-9.96,0-18.72-2.4-26.27-7.21-7.56-4.8-13.22-11.24-17-19.31l-16.04,8.56c3.99,9.26,10.96,17.14,20.94,23.63,10.82,7.04,23.52,10.56,38.12,10.56,17,0,30.73-4.42,41.21-13.26,10.47-8.84,15.71-21.07,15.71-36.7,0-8.07-1.5-15.36-4.51-21.89-3.01-6.52-7.21-12.1-12.62-16.74Z"/><path class="cls-1" d="m730.38,67.49c-9.79-10.73-22.24-16.1-37.34-16.1-17.17,0-30.99,6.1-41.46,18.29-10.48,12.19-15.71,29.02-15.71,50.48,0,19.23,5.24,35.54,15.71,48.93,10.47,13.39,24.29,20.09,41.46,20.09,14.76,0,28.15-4.98,40.17-14.93l-15.58-8.31c-7.56,4.33-15.5,6.5-23.81,6.5-10.99,0-19.83-3.92-26.53-11.99-6.7-8.07-10.82-18.59-12.36-32.59h89.62c.34-4,.52-8.1.52-12.73,0-20.95-4.89-36.9-14.68-47.63Zm-75.97,44.36c.68-15,4.55-25.55,11.59-32.93,7.04-7.38,16.05-11.19,27.04-11.19,8.76,0,16.52,3.48,23.31,10.09,6.78,6.61,10.26,18.04,10.43,34.04h-72.37Z"/><path class="cls-1" d="m629.39,164.46c-7.55,5.14-14.15,7.72-19.82,7.72s-9.48-1.8-11.37-5.41c-1.89-3.61-2.87-8.76-2.87-15.45v-80.47h34v-16h-34V.14l-18,9.01v45.7h-26.32l8.53,16h17.78v88.19c0,20.09,8.69,30.13,26.04,30.13,8.36,0,14.31,0,33.69-10.31l-7.67-14.41Z"/><path class="cls-1" d="m552.87,139.09c-1.8-4.21-3.86-7.64-6.18-10.3-2.32-2.66-5.66-5.32-10.04-7.98-4.38-2.66-8.03-4.63-10.95-5.92-2.92-1.29-6.95-2.96-12.1-5.02-4.29-1.71-7.38-2.96-9.27-3.73-1.89-.77-4.47-2.06-7.73-3.86-3.26-1.8-5.67-3.43-7.21-4.89-1.54-1.46-2.92-3.3-4.12-5.54-1.2-2.23-1.8-4.64-1.8-7.21,0-5.32,2.27-9.53,6.82-12.62,4.55-3.09,10.39-4.64,17.95-4.64,10.39,0,24.92,2.79,35,3.33l-9.11-17.08c-6.98-.93-14.34-2.22-25.38-2.22-12.54,0-22.65,3.09-30.54,9.27-7.9,6.18-11.79,14.25-11.79,24.21,0,5.32,1.01,10.09,2.99,14.29,1.97,4.21,5.04,7.86,9.16,10.95,4.12,3.09,8.16,5.67,12.11,7.73,3.95,2.06,9.02,4.38,15.2,6.95,5.15,2.06,9.18,3.78,12.11,5.15,2.92,1.38,6.22,3.31,9.92,5.8,3.69,2.49,6.4,5.24,8.11,8.24,1.71,3.01,2.58,6.4,2.58,10.17,0,6.01-2.41,10.69-7.21,14.04-4.81,3.35-10.99,5.02-18.54,5.02-11.62,0-22.15-5.04-31.61-15.08l-15.25,8.14c12.88,15.28,27.98,22.91,45.32,22.91,13.56,0,24.34-3.26,32.32-9.79,7.98-6.52,11.98-15.28,11.98-26.27,0-5.15-.9-9.82-2.7-14.04Z"/></g></g></g></svg>