<svg width="300" height="135" viewBox="0 0 300 135" fill="none" xmlns="http://www.w3.org/2000/svg">
<path d="M67.043 81.0883L41.0775 107.054V55.1241L67.043 81.0883Z" fill="#1A1A1A"/>
<path d="M39.8195 81.0883L13.8546 55.1241L39.8195 29.1582V81.0883Z" fill="#1A1A1A"/>
<path d="M286.208 87.6746H279.972L266.691 61.4358L259.807 68.8055V87.675H254.138V31.9571L259.807 29.2034V62.0839L274.465 46.2915H281.025L270.659 57.3054L286.208 87.6746Z" fill="#1A1A1A"/>
<path d="M132.215 107.102L139.184 103.443L160.302 46.4075H154.228L143.619 75.7472L142.161 79.9302C142.053 79.606 141.838 78.9434 141.513 77.9714C141.189 76.9997 140.946 76.2953 140.784 75.7548L130.337 46.4075H124.587L139.732 86.4376L132.215 107.102Z" fill="#1A1A1A"/>
<path d="M122.782 60.7877C121.081 59.3298 119.381 58.1289 117.68 57.1836C115.979 56.2396 114.021 55.3349 111.808 54.4708C109.756 53.6608 108.095 52.9598 106.827 52.3652C105.558 51.7715 104.236 51.0161 102.859 50.0976C101.483 49.1803 100.456 48.1539 99.782 47.0203C99.1062 45.8867 98.7695 44.5905 98.7695 43.133C98.7695 40.7035 99.7135 38.7598 101.604 37.3019C103.494 35.8441 106.089 35.2806 109.379 35.1152C113.065 34.9297 117.511 35.6469 119.367 36.9812C121.084 38.2158 121.936 39.4503 122.766 41.3764H128.478C126.85 36.1878 124.587 34.3797 122.747 32.9989C119.553 30.6027 113.725 29.9791 109.622 29.9791C104.546 29.9791 100.497 31.2653 97.4739 33.8023C94.4497 36.3406 92.9387 39.4802 92.9387 43.205C92.9387 45.4197 93.3969 47.4483 94.3158 49.2835C95.233 51.1193 96.5692 52.7007 98.3245 54.0233C100.078 55.3469 101.807 56.4412 103.507 57.3044C105.208 58.1685 107.219 59.0333 109.541 59.8962C113.428 61.354 116.532 63.1232 118.854 65.2008C121.175 67.2803 122.337 69.9123 122.337 73.0975C122.337 76.4459 121.27 79.0232 119.138 80.8319C117.004 82.6413 114.076 83.5448 110.351 83.5448C107.219 83.5448 104.465 82.7891 102.09 81.2772C99.7135 79.7662 97.932 77.7417 96.7453 75.2037L91.7004 77.8946C92.9538 80.8074 95.1478 83.286 98.2839 85.3265C101.685 87.5409 105.68 88.6472 110.27 88.6472C115.615 88.6472 119.934 87.2573 123.227 84.4765C126.52 81.6964 128.168 77.8499 128.168 72.9359C128.168 70.3988 127.694 68.1048 126.75 66.052C125.805 64.0005 124.483 62.2455 122.782 60.7877Z" fill="#1A1A1A"/>
<path d="M244.789 50.3813C241.712 47.0075 237.797 45.3198 233.046 45.3198C227.647 45.3198 223.3 47.2367 220.008 51.0697C216.713 54.9039 215.067 60.1947 215.067 66.9433C215.067 72.9904 216.713 78.1189 220.008 82.3305C223.3 86.5414 227.647 88.6473 233.046 88.6473C237.688 88.6473 241.898 87.0823 245.677 83.9527L240.776 81.339C238.399 82.7003 235.903 83.3833 233.289 83.3833C229.833 83.3833 227.053 82.1515 224.948 79.6132C222.842 77.0755 221.546 73.7655 221.061 69.3631H249.243C249.351 68.1052 249.406 66.8169 249.406 65.3591C249.405 58.7724 247.867 53.7561 244.789 50.3813ZM220.898 64.3317C221.113 59.6148 222.328 56.2976 224.543 53.9753C226.756 51.6543 229.59 50.4571 233.046 50.4571C235.8 50.4571 238.242 51.5508 240.376 53.6285C242.508 55.708 243.601 59.3004 243.655 64.3317H220.898Z" fill="#1A1A1A"/>
<path d="M213.03 80.8754C210.656 82.4933 208.58 83.3018 206.799 83.3018C205.018 83.3018 203.817 82.7351 203.223 81.6012C202.629 80.4675 202.32 78.8478 202.32 76.7425V51.4389H213.012V46.4075H202.32V29.2034L196.66 32.0383V46.4075H188.384L191.068 51.4389H196.659V79.1713C196.659 85.4885 199.393 88.647 204.847 88.647C207.476 88.647 209.346 88.6457 215.442 85.4055L213.03 80.8754Z" fill="#1A1A1A"/>
<path d="M188.967 72.8951C188.4 71.5728 187.753 70.4935 187.023 69.6558C186.294 68.8194 185.242 67.9829 183.865 67.1452C182.488 66.3087 181.34 65.6877 180.423 65.2823C179.504 64.8776 178.236 64.3512 176.617 63.7034C175.266 63.1641 174.295 62.7723 173.701 62.5292C173.106 62.2865 172.297 61.8811 171.271 61.3145C170.246 60.7475 169.49 60.2352 169.004 59.7758C168.518 59.3176 168.085 58.7365 167.709 58.0347C167.33 57.3337 167.141 56.5765 167.141 55.7671C167.141 54.0942 167.856 52.7706 169.287 51.7986C170.717 50.8266 172.554 50.3408 174.931 50.3408C178.197 50.3408 182.765 51.2172 185.937 51.3873L183.073 46.017C180.877 45.7232 178.565 45.3198 175.092 45.3198C171.15 45.3198 167.971 46.2915 165.489 48.2352C163.004 50.1785 161.78 52.7168 161.78 55.8476C161.78 57.5218 162.098 59.0202 162.719 60.3425C163.339 61.666 164.303 62.8125 165.599 63.7842C166.894 64.7559 168.164 65.566 169.406 66.2141C170.648 66.8622 172.242 67.5904 174.186 68.4005C175.805 69.0486 177.074 69.5888 177.992 70.02C178.909 70.453 179.949 71.0605 181.11 71.8423C182.27 72.6253 183.122 73.49 183.661 74.434C184.2 75.3793 184.471 76.4459 184.471 77.6327C184.471 79.5232 183.715 80.9936 182.204 82.0468C180.691 83.0993 178.748 83.6257 176.373 83.6257C172.72 83.6257 169.407 82.0421 166.433 78.8833L161.636 81.4418C165.685 86.2454 170.434 88.647 175.887 88.647C180.151 88.647 183.54 87.6218 186.05 85.5697C188.561 83.5181 189.816 80.7647 189.816 77.3085C189.817 75.689 189.534 74.2192 188.967 72.8951Z" fill="#1A1A1A"/>
</svg>
