<svg width="300" height="125" viewBox="0 0 300 125" fill="none" xmlns="http://www.w3.org/2000/svg">
<path d="M21.2547 35.6738V62.6545H13.4725V35.6738H4.93604V29.5371H29.8026V35.6738H21.2547Z" fill="#2E2D2C"/>
<path d="M49.1382 63.2259C39.299 63.2259 31.5739 56.8492 31.5739 46.1415C31.5739 35.4338 39.299 29 49.1382 29C58.9774 29 66.7139 35.4338 66.7139 46.1415C66.7139 56.8492 58.9774 63.2259 49.1382 63.2259ZM49.1382 35.628C43.6186 35.628 39.4361 39.6163 39.4361 45.9129C39.4361 52.2096 43.6186 56.2893 49.1382 56.2893C54.6577 56.2893 58.8403 52.2553 58.8403 45.9129C58.8403 39.5706 54.6577 35.628 49.1382 35.628V35.628Z" fill="#2E2D2C"/>
<path d="M73.4678 62.6545V29.5143H81.1929V56.2207H92.6205V62.6545H73.4678Z" fill="#2E2D2C"/>
<path d="M98.5743 62.6545V29.5143H106.299V56.2207H117.727V62.6545H98.5743Z" fill="#2E2D2C"/>
<path d="M123.67 62.6545V29.5143H145.131V35.7195H131.418V42.4961H142.434V48.6556H131.418V56.335H145.576V62.6202L123.67 62.6545Z" fill="#2E2D2C"/>
<path d="M166.249 35.6738V62.6545H158.467V35.6738H149.93V29.5371H174.797V35.6738H166.249Z" fill="#2E2D2C"/>
<path d="M198.406 62.6545L196.052 55.9807H184.248L181.893 62.6545H173.826L186.305 29.5143H194.372L206.851 62.6545H198.406ZM190.144 38.0279L185.973 49.9355H194.235L190.144 38.0279Z" fill="#2E2D2C"/>
<path d="M221.73 35.6738V62.6545H213.959V35.6738H205.4V29.5371H230.267V35.6738H221.73Z" fill="#2E2D2C"/>
<path d="M235.889 62.6545V29.5143H257.35V35.7195H243.637V42.4961H254.654V48.6556H243.637V56.335H257.796V62.6202L235.889 62.6545Z" fill="#2E2D2C"/>
<path d="M286.959 62.6545L272.412 40.1877C272.412 40.1877 272.561 44.176 272.561 47.6728V62.6545H264.973V29.5143H273.281L287.485 51.7868C287.485 51.7868 287.348 48.0385 287.348 44.5302V29.5371H294.925V62.6774L286.959 62.6545Z" fill="#2E2D2C"/>
<path d="M51.8008 95.669L44.0757 84.9842C44.0757 84.9842 44.0757 86.7897 44.0757 88.5382V95.669H42.2473V82.2644H44.27L51.8694 92.7893C51.8694 92.7893 51.8694 91.1437 51.8694 89.361V82.2644H53.7207V95.669H51.8008Z" fill="#2E2D2C"/>
<path d="M63.3656 95.8976C62.012 95.8975 60.6886 95.4968 59.5623 94.7459C58.436 93.995 57.5572 92.9275 57.0366 91.6779C56.516 90.4284 56.3769 89.0527 56.6369 87.7242C56.8969 86.3957 57.5443 85.174 58.4975 84.2128C59.4507 83.2517 60.667 82.5942 61.9933 82.3232C63.3196 82.0522 64.6964 82.1799 65.9502 82.6901C67.204 83.2003 68.2788 84.0702 69.039 85.1902C69.7993 86.3102 70.211 87.6302 70.2223 88.9839C70.2588 89.8967 70.1069 90.8073 69.776 91.6589C69.4452 92.5104 68.9424 93.2847 68.2991 93.9334C67.6557 94.5821 66.8857 95.0912 66.0369 95.4292C65.1881 95.7671 64.2788 95.9266 63.3656 95.8976V95.8976ZM63.3656 83.7043C62.6843 83.6899 62.0074 83.8177 61.3783 84.0796C60.7491 84.3415 60.1814 84.7316 59.7115 85.2252C59.2416 85.7188 58.8798 86.3049 58.6491 86.9462C58.4184 87.5874 58.3239 88.2698 58.3718 88.9496C58.3254 89.6338 58.4202 90.3202 58.6502 90.9663C58.8802 91.6124 59.2405 92.2043 59.7088 92.7053C60.1771 93.2063 60.7433 93.6058 61.3723 93.8789C62.0014 94.152 62.6799 94.2929 63.3656 94.2929C64.0514 94.2929 64.7299 94.152 65.359 93.8789C65.988 93.6058 66.5542 93.2063 67.0225 92.7053C67.4908 92.2043 67.8511 91.6124 68.0811 90.9663C68.3111 90.3202 68.4059 89.6338 68.3595 88.9496C68.4074 88.2698 68.3129 87.5874 68.0822 86.9462C67.8515 86.3049 67.4897 85.7188 67.0198 85.2252C66.5499 84.7316 65.9822 84.3415 65.353 84.0796C64.7239 83.8177 64.047 83.6899 63.3656 83.7043V83.7043Z" fill="#2E2D2C"/>
<path d="M79.8787 95.669L76.3818 89.9552H74.942V95.669H73.0564V82.2644H76.8504C79.2388 82.2644 81.4215 83.4071 81.4215 86.0355C81.4534 86.9153 81.1598 87.7759 80.5969 88.4527C80.0339 89.1296 79.2411 89.575 78.3703 89.7038L82.1985 95.669H79.8787ZM78.5531 84.2871C77.8675 83.8727 77.0629 83.6998 76.2676 83.7957H74.942V88.3668H76.3247C77.1172 88.4635 77.9197 88.299 78.6102 87.8982C78.8981 87.6981 79.1286 87.4261 79.2789 87.1094C79.4293 86.7927 79.4942 86.4422 79.4673 86.0926C79.493 85.7371 79.4215 85.3812 79.2605 85.0632C79.0994 84.7451 78.8549 84.4768 78.5531 84.2871V84.2871Z" fill="#2E2D2C"/>
<path d="M96.9288 95.6919H95.0889L91.8663 84.847L88.6551 95.6919H86.8153L82.9413 82.2644H84.9297L87.8209 92.835L90.9064 82.2644H92.8377L95.9231 92.835L98.8143 82.2644H100.803L96.9288 95.6919Z" fill="#2E2D2C"/>
<path d="M103.34 95.669V82.2644H111.191V83.8414H105.225V87.8411H110.859V89.4295H105.225V94.0806H111.351V95.669H103.34Z" fill="#2E2D2C"/>
<path d="M120.321 95.8976C118.488 95.8976 116.729 95.1692 115.432 93.8726C114.136 92.576 113.407 90.8175 113.407 88.9838C113.407 87.1502 114.136 85.3917 115.432 84.0951C116.729 82.7985 118.488 82.0701 120.321 82.0701C121.34 82.0181 122.357 82.1966 123.297 82.5923C124.236 82.9881 125.075 83.5908 125.749 84.3556L124.458 85.4984C123.963 84.8826 123.331 84.3898 122.614 84.0587C121.896 83.7276 121.111 83.5672 120.321 83.59C117.567 83.59 115.453 85.567 115.453 88.8696C115.399 89.553 115.488 90.2404 115.716 90.8871C115.943 91.5339 116.304 92.1257 116.775 92.6243C117.245 93.1229 117.815 93.5173 118.448 93.7819C119.08 94.0465 119.761 94.1755 120.447 94.1606C123.224 94.1606 124.207 92.9378 124.207 92.9378V89.9666H120.595V88.5153H126.035V93.7263C125.296 94.479 124.402 95.0627 123.416 95.4375C122.43 95.8123 121.374 95.9692 120.321 95.8976Z" fill="#2E2D2C"/>
<path d="M129.143 95.669V82.2644H131.029V95.669H129.143Z" fill="#2E2D2C"/>
<path d="M143.988 95.669L142.605 92.1722H136.891L135.509 95.669H133.532L138.983 82.2301H140.64L146.113 95.669H143.988ZM139.725 84.5727L137.44 90.5951H142.137L139.725 84.5727Z" fill="#2E2D2C"/>
<path d="M158.124 95.669L150.399 84.9842C150.399 84.9842 150.399 86.7897 150.399 88.5382V95.669H148.536V82.2644H150.547L158.147 92.7893C158.147 92.7893 158.147 91.1437 158.147 89.361V82.2644H159.998V95.669H158.124Z" fill="#2E2D2C"/>
<path d="M174.831 95.8976C172.998 95.8976 171.239 95.1692 169.942 93.8726C168.646 92.576 167.917 90.8175 167.917 88.9838C167.917 87.1502 168.646 85.3917 169.942 84.0951C171.239 82.7985 172.998 82.0701 174.831 82.0701C175.701 82.0375 176.569 82.1772 177.385 82.4811C178.201 82.7851 178.949 83.2474 179.585 83.8414L178.797 85.3498C178.295 84.8268 177.691 84.4121 177.023 84.131C176.355 83.85 175.636 83.7087 174.911 83.7157C174.235 83.706 173.564 83.8371 172.94 84.1006C172.317 84.3642 171.756 84.7544 171.291 85.2466C170.827 85.7388 170.47 86.3222 170.244 86.9596C170.017 87.5971 169.925 88.2748 169.974 88.9496C169.928 89.6279 170.024 90.3085 170.255 90.9478C170.487 91.5871 170.849 92.1711 171.319 92.6626C171.789 93.154 172.356 93.542 172.985 93.8019C173.613 94.0618 174.289 94.1879 174.968 94.172C175.712 94.1964 176.453 94.0634 177.143 93.7818C177.832 93.5002 178.454 93.0763 178.968 92.5379L179.779 93.9206C179.147 94.5893 178.377 95.1126 177.523 95.4539C176.669 95.7953 175.75 95.9467 174.831 95.8976V95.8976Z" fill="#2E2D2C"/>
<path d="M191.287 94.2749C190.209 95.3032 188.777 95.8769 187.287 95.8769C185.798 95.8769 184.365 95.3032 183.288 94.2749C182.412 93.1005 182.004 91.6421 182.145 90.1838V82.2644H184.053V90.0123C183.93 91.0581 184.146 92.116 184.67 93.0292C184.992 93.3979 185.389 93.6933 185.835 93.8958C186.28 94.0982 186.764 94.203 187.253 94.203C187.742 94.203 188.226 94.0982 188.671 93.8958C189.117 93.6933 189.514 93.3979 189.836 93.0292C190.362 92.1164 190.582 91.0593 190.464 90.0123V82.2644H192.35V90.1838C192.508 91.6315 192.13 93.087 191.287 94.2749V94.2749Z" fill="#2E2D2C"/>
<path d="M199.218 95.8976C198.37 95.8704 197.539 95.6505 196.789 95.2545C196.038 94.8585 195.388 94.2968 194.887 93.612L196.029 92.355C196.422 92.9098 196.934 93.37 197.527 93.7021C198.12 94.0342 198.78 94.2299 199.458 94.2748C199.784 94.315 200.115 94.2861 200.429 94.19C200.743 94.094 201.033 93.933 201.281 93.7175C201.529 93.502 201.729 93.2367 201.867 92.939C202.006 92.6413 202.081 92.3177 202.086 91.9893C202.086 90.5837 200.589 90.0466 199.903 89.7723C199.218 89.4981 198.269 89.1324 197.767 88.881C197.101 88.63 196.531 88.1784 196.133 87.5888C195.736 86.9991 195.532 86.3006 195.55 85.5898C195.55 83.2014 197.732 82.0244 199.869 82.0244C200.594 82.0284 201.31 82.184 201.971 82.4812C202.633 82.7784 203.225 83.2106 203.709 83.75L202.726 85.0299C202.344 84.6006 201.876 84.2567 201.352 84.0204C200.829 83.7841 200.261 83.6608 199.686 83.6585C198.372 83.6585 197.401 84.2871 197.401 85.5327C197.401 86.7783 198.315 87.2354 199.138 87.5668L201.595 88.5953C202.267 88.8606 202.844 89.3215 203.252 89.9185C203.659 90.5154 203.878 91.2209 203.88 91.9436C203.892 94.5377 201.56 95.8976 199.218 95.8976Z" fill="#2E2D2C"/>
<path d="M211.571 83.8414V95.669H209.686V83.8414H205.903V82.2644H215.342V83.8414H211.571Z" fill="#2E2D2C"/>
<path d="M222.839 95.8976C221.488 95.8863 220.17 95.476 219.051 94.7183C217.932 93.9605 217.062 92.8891 216.551 91.6386C216.039 90.3881 215.908 89.0142 216.174 87.6895C216.44 86.3648 217.092 85.1483 218.048 84.1929C219.003 83.2374 220.22 82.5856 221.544 82.3192C222.869 82.0528 224.243 82.1838 225.494 82.6956C226.744 83.2075 227.815 84.0774 228.573 85.1962C229.331 86.315 229.741 87.6327 229.753 88.9839C229.79 89.9017 229.636 90.8172 229.302 91.6728C228.967 92.5284 228.459 93.3055 227.81 93.955C227.16 94.6045 226.383 95.1125 225.528 95.4468C224.672 95.7812 223.757 95.9346 222.839 95.8976V95.8976ZM222.839 83.7043C222.157 83.6899 221.481 83.8177 220.851 84.0796C220.222 84.3415 219.655 84.7316 219.185 85.2252C218.715 85.7188 218.353 86.3049 218.122 86.9462C217.892 87.5874 217.797 88.2698 217.845 88.9496C217.799 89.6338 217.893 90.3202 218.123 90.9663C218.353 91.6124 218.714 92.2043 219.182 92.7053C219.65 93.2063 220.216 93.6058 220.845 93.8789C221.475 94.152 222.153 94.2929 222.839 94.2929C223.525 94.2929 224.203 94.152 224.832 93.8789C225.461 93.6058 226.027 93.2063 226.496 92.7053C226.964 92.2043 227.324 91.6124 227.554 90.9663C227.784 90.3202 227.879 89.6338 227.833 88.9496C227.88 88.2698 227.786 87.5874 227.555 86.9462C227.325 86.3049 226.963 85.7188 226.493 85.2252C226.023 84.7316 225.455 84.3415 224.826 84.0796C224.197 83.8177 223.52 83.6899 222.839 83.7043V83.7043Z" fill="#2E2D2C"/>
<path d="M244.517 95.669L243.649 85.087H243.58L239.489 95.7833H238.415L234.324 85.087H234.267L233.409 95.669H231.547L232.747 82.2644H235.032L238.895 92.6179L242.757 82.2644H245.043L246.266 95.669H244.517Z" fill="#2E2D2C"/>
<path d="M252.928 95.8976C252.08 95.8688 251.25 95.6481 250.5 95.2522C249.75 94.8564 249.099 94.2956 248.597 93.612L249.74 92.355C250.132 92.9098 250.644 93.37 251.237 93.7021C251.83 94.0342 252.49 94.2299 253.168 94.2748C253.479 94.3063 253.793 94.2736 254.092 94.1786C254.39 94.0837 254.665 93.9286 254.901 93.7229C255.136 93.5172 255.327 93.2653 255.462 92.9829C255.596 92.7004 255.671 92.3934 255.682 92.0807C255.682 90.6751 254.185 90.138 253.511 89.8638C252.837 89.5895 251.877 89.2238 251.374 88.9724C250.709 88.7214 250.138 88.2698 249.741 87.6802C249.343 87.0905 249.139 86.392 249.157 85.6812C249.157 83.2929 251.328 82.1158 253.465 82.1158C254.191 82.1218 254.909 82.2782 255.571 82.5752C256.234 82.8722 256.828 83.3033 257.316 83.8414L256.322 85.1213C255.961 84.6894 255.515 84.3365 255.012 84.0848C254.508 83.8332 253.958 83.688 253.396 83.6586C252.071 83.6586 251.111 84.2871 251.111 85.5327C251.111 86.7783 252.025 87.2354 252.836 87.5668L255.305 88.5953C255.977 88.8606 256.554 89.3215 256.962 89.9185C257.369 90.5154 257.588 91.2209 257.59 91.9436C257.613 94.5377 255.282 95.8976 252.928 95.8976Z" fill="#2E2D2C"/>
</svg>
