<?xml version="1.0" encoding="utf-8"?>
<!-- Generator: Adobe Illustrator 23.0.3, SVG Export Plug-In . SVG Version: 6.00 Build 0)  -->
<svg version="1.1" id="Layer_1" xmlns="http://www.w3.org/2000/svg" xmlns:xlink="http://www.w3.org/1999/xlink" x="0px" y="0px"
	 viewBox="0 0 283.5 110.4" style="enable-background:new 0 0 283.5 110.4;" xml:space="preserve">
<style type="text/css">
	.st0{fill:#424141;}
</style>
<g>
	<rect x="134.1" y="22.5" width="7.7" height="7.7"/>
	<path class="st0" d="M41.9,72.4c10.6,0,19.2-8.6,19.2-19.2V34h-7.7v19.2c0,6.4-5.2,11.5-11.5,11.5c-6.4,0-11.5-5.2-11.5-11.5V34
		h-7.7v19.2C22.7,63.8,31.3,72.4,41.9,72.4z"/>
	<path class="st0" d="M84.1,64.8v7.7c10.6,0,19.2-8.6,19.2-19.2c0-10.6-8.6-19.2-19.2-19.2c-10.6,0-19.2,8.6-19.2,19.2V84h7.7V53.2
		c0-6.4,5.2-11.5,11.5-11.5c6.4,0,11.5,5.2,11.5,11.5C95.7,59.6,90.5,64.8,84.1,64.8z"/>
	<path d="M126.4,72.4L126.4,72.4l0-7.7c-6.4,0-11.5-5.2-11.5-11.5V41.7h11.5V34h-11.5V22.5h-7.7v30.7
		C107.2,63.8,115.8,72.4,126.4,72.4z"/>
	<rect x="134.1" y="34" width="7.7" height="38.4"/>
	<path d="M187.8,72.4V53.2c0-6.4,5.2-11.5,11.5-11.5c6.4,0,11.5,5.2,11.5,11.5h0v19.2h7.7V53.2c0-10.6-8.6-19.2-19.2-19.2
		c-6.3,0-11.9,3-15.4,7.7c-3.5-4.7-9.1-7.7-15.4-7.7c-10.6,0-19.2,8.6-19.2,19.2v19.2h7.7V53.2c0-6.4,5.2-11.5,11.5-11.5
		c6.4,0,11.5,5.2,11.5,11.5v19.2H187.8z"/>
	<path d="M241.6,34c-10.6,0-19.2,8.6-19.2,19.2c0,10.6,8.6,19.2,19.2,19.2v-7.7c-6.4,0-11.5-5.2-11.5-11.5c0-6.4,5.2-11.5,11.5-11.5
		c5,0,9.3,3.2,10.9,7.7h-10.9v7.7h18.8c0.3-1.2,0.4-2.5,0.4-3.8C260.8,42.6,252.2,34,241.6,34z"/>
	<path d="M183.6,83.9c0-2.4-1.6-3.9-4-3.9c-2.3,0-4,1.6-4,4c0,2.3,1.6,3.9,4,3.9C182,87.9,183.6,86.3,183.6,83.9z M179.6,86.7
		c-1.5,0-2.6-1.2-2.6-2.8c0-1.5,1-2.7,2.6-2.7c1.6,0,2.6,1.2,2.6,2.7C182.2,85.5,181.2,86.7,179.6,86.7z"/>
	<rect x="107.6" y="80.1" width="1.4" height="7.7"/>
	<polygon points="126.7,87.8 126.7,81.4 129.1,81.4 129.1,80.1 123.1,80.1 123.1,81.4 125.4,81.4 125.4,87.8 	"/>
	<polygon points="157.6,81.9 157.6,81.9 159.3,87.8 160.6,87.8 162.9,80.1 161.5,80.1 160,85.6 160,85.6 158.3,80.1 157,80.1 
		155.2,85.6 155.2,85.6 153.8,80.1 152.3,80.1 154.6,87.8 155.8,87.8 	"/>
	<path d="M203.7,82.3c0-1.7-1.4-2.2-2.8-2.2h-2.6v7.7h1.4v-3.3h1l1.8,3.3h1.6l-2-3.4C203.1,84.2,203.7,83.4,203.7,82.3z M200.6,83.4
		h-1.1v-2.1h1.2c0.7,0,1.5,0.1,1.5,1C202.3,83.3,201.4,83.4,200.6,83.4z"/>
	<polygon points="222.6,80.1 219.5,83.4 219.4,83.4 219.4,80.1 218.1,80.1 218.1,87.8 219.4,87.8 219.4,84 219.5,84 222.8,87.8 
		224.7,87.8 220.9,83.7 224.4,80.1 	"/>
	<path d="M242,85.5c0-2.7-3.6-1.8-3.6-3.3c0-0.7,0.6-1,1.2-1c0.5,0,1,0.2,1.3,0.6l1-1c-0.6-0.6-1.4-0.8-2.1-0.8
		c-1.4,0-2.8,0.7-2.8,2.3c0,2.7,3.6,1.7,3.6,3.4c0,0.7-0.7,1-1.3,1c-0.6,0-1.2-0.3-1.5-0.8l-1,1c0.6,0.7,1.5,1,2.5,1
		C240.7,87.9,242,87.1,242,85.5z"/>
</g>
</svg>
