<svg width="300" height="125" viewBox="0 0 300 125" fill="none" xmlns="http://www.w3.org/2000/svg">
<path d="M109.981 19.9915L109.944 39.9956L102.234 40.0586L94.5375 40.1216L94.2099 40.4239C93.7942 40.8144 93.6179 41.4443 93.769 41.9859C93.8446 42.2757 95.5074 44.2408 99.085 48.2593C103.141 52.832 104.401 54.1673 104.842 54.3814C105.358 54.646 105.56 54.6712 107.701 54.6712H110.007V67.3312V79.9912H150.002H189.998V67.3312V54.6712H192.24C194.356 54.6712 194.533 54.6586 195.049 54.3814C195.465 54.1547 196.851 52.6808 200.68 48.36C203.477 45.2108 205.845 42.4898 205.946 42.3009C206.185 41.8474 206.172 41.0664 205.92 40.7136C205.454 40.046 205.58 40.0586 197.493 40.0586H189.998V20.0293V5.20237e-06H150.002H110.007L109.981 19.9915ZM188.713 20.6214L188.675 39.9956L181.243 40.0586L173.811 40.1216L173.408 40.4113C172.941 40.7388 171.808 42.5654 170.661 44.8203C170.145 45.8532 170.057 46.7224 170.397 47.5538C170.51 47.8184 171.48 49.5442 172.551 51.3959C173.622 53.2477 174.503 54.8223 174.503 54.8979C174.503 54.9861 172.916 55.0491 169.439 55.0743C163.884 55.1121 164.01 55.0995 163.267 55.8931C162.99 56.1954 159.211 62.7207 158.291 64.4969C157.296 66.4242 157.838 68.3767 159.614 69.2459C160.269 69.5735 160.445 69.5987 161.717 69.5987C162.864 69.5987 163.204 69.5483 163.695 69.3215C164.993 68.7295 165.774 67.432 165.9 65.6306C165.975 64.7362 166.013 64.6228 166.681 63.6528L167.386 62.6199L174.189 62.5821C180.739 62.5443 181.016 62.5317 181.596 62.2798C183.649 61.4106 184.14 59.7982 183.145 57.178C182.629 55.7923 182.603 55.5152 182.931 55.1876C183.309 54.8097 184.304 54.6712 186.597 54.6712H188.738V66.7013V78.7315H150.002H111.266V66.7013V54.6712H113.383C115.675 54.6838 116.469 54.7971 116.91 55.2002C117.275 55.553 117.263 55.7041 116.746 57.0646C115.927 59.1683 116.015 60.4406 117.048 61.4736C118.132 62.5569 117.93 62.5317 125.69 62.6073L132.492 62.6703L133.147 63.6277C133.777 64.5346 133.815 64.648 133.928 65.7062C134.231 68.3389 135.642 69.6616 138.161 69.6616C141.436 69.6616 142.973 67.1548 141.449 64.3079C139.572 60.8059 136.75 56.0064 136.397 55.6915C135.73 55.1121 135.138 55.0491 129.96 55.0491H125.236L125.451 54.6334C125.564 54.4192 126.484 52.8068 127.491 51.081C128.486 49.3426 129.393 47.7176 129.482 47.4405C129.759 46.6594 129.708 45.8784 129.293 45.0218C128.839 44.0519 127.479 41.6836 126.975 40.9782C126.295 40.0208 126.66 40.0586 118.522 40.0586H111.266V20.6592V1.25971H150.002H188.738L188.713 20.6214ZM125.778 41.4695C125.967 41.6206 127.517 44.2282 128.134 45.4627C128.474 46.1178 128.474 46.735 128.134 47.4027C127.983 47.6924 127.05 49.3174 126.068 51.018C123.851 54.8727 123.687 55.2884 124.229 55.9435L124.468 56.2458L129.897 56.3088L135.327 56.3718L135.616 56.6867C135.894 56.9764 139.534 63.3001 140.403 65.0259C141.046 66.2856 140.857 67.4446 139.912 68.0366C139.547 68.2508 139.194 68.3389 138.388 68.3767C137.443 68.4271 137.279 68.4019 136.649 68.0996C135.667 67.6083 135.327 66.9911 135.15 65.3786L135.012 64.1567L134.08 62.7585L133.16 61.3602L126.08 61.3224L119.014 61.2846L118.472 60.9949C117.3 60.3776 117.174 59.3951 117.993 57.3543C118.661 55.6663 118.585 54.8979 117.666 54.1799C116.822 53.5122 116.633 53.487 110.813 53.4115C106.517 53.3611 105.346 53.3107 105.182 53.1721C105.069 53.0839 104.376 52.3281 103.633 51.5093L102.31 50.0103H110.536C116.771 50.0103 118.812 49.9725 118.925 49.8591C119.165 49.6197 119.114 49.0277 118.837 48.8765C118.673 48.8009 115.65 48.7506 109.893 48.7506H101.201L99.929 47.3271L98.6693 45.9162L109.792 45.8532C118.976 45.8028 120.966 45.7651 121.13 45.6139C121.42 45.3871 121.394 44.8833 121.105 44.7195C120.941 44.6313 116.973 44.5935 109.163 44.5935L97.4726 44.5809L96.4648 43.4472C95.2681 42.0867 94.8776 41.5702 94.9658 41.4191C95.0035 41.3687 101.907 41.3183 110.309 41.3183C122.327 41.3183 125.627 41.3561 125.778 41.4695ZM204.837 41.5702C204.812 41.7088 204.258 42.4394 203.603 43.1953L202.406 44.5809H190.628C181.633 44.5935 178.799 44.6313 178.686 44.7447C178.472 44.9588 178.497 45.4123 178.749 45.6139C178.912 45.7651 180.903 45.8028 190.061 45.8532L201.184 45.9162L199.924 47.3271L198.665 48.7506H189.922C181.344 48.7506 181.18 48.7506 180.928 49.0025C180.626 49.3048 180.626 49.3678 180.878 49.7331L181.067 50.0103H189.255C193.752 50.0103 197.43 50.0354 197.43 50.0732C197.43 50.2748 194.734 53.1469 194.432 53.2729C194.218 53.3611 192.253 53.4241 188.864 53.4492C184.178 53.487 183.573 53.5122 183.032 53.7138C182.238 54.0161 181.621 54.6082 181.432 55.2758C181.268 55.7797 181.293 55.8679 181.822 57.2158C182.704 59.458 182.578 60.4406 181.331 61.0075C180.752 61.2846 180.6 61.2846 173.735 61.3224L166.719 61.3602L165.698 62.8718L164.678 64.3835V65.2401C164.678 66.3738 164.401 67.1548 163.796 67.6965C163.217 68.213 162.624 68.4019 161.529 68.4019C159.689 68.3893 158.644 67.1926 159.16 65.6936C159.412 64.9755 163.884 57.0646 164.249 56.6867L164.552 56.3718L169.981 56.3088L175.41 56.2458L175.65 55.9435C175.952 55.5781 175.952 55.0113 175.65 54.3562C175.524 54.0791 174.566 52.3785 173.534 50.5771C172.488 48.7757 171.581 47.1003 171.505 46.8484C171.417 46.5209 171.43 46.2689 171.543 45.9288C171.72 45.4375 172.992 43.0945 173.697 41.9733L174.126 41.3183H189.507C204.774 41.3183 204.875 41.3183 204.837 41.5702Z" fill="black"/>
<path d="M148.264 3.36348C148.213 3.40127 148.176 3.82957 148.176 4.30826V5.16486H147.294H146.412V6.86546V8.56606H147.294H148.176V9.06994C148.176 9.34708 148.125 9.57382 148.062 9.57382C147.798 9.57382 146.626 10.7957 146.311 11.3878C146.034 11.9295 145.984 12.194 145.971 13.101C145.971 13.6931 146.021 14.3103 146.072 14.4615C146.185 14.7638 146.185 14.7638 145.442 14.663C143.754 14.4237 142.066 14.663 140.97 15.2803L140.491 15.5448L139.08 15.2047C135.553 14.3859 133.374 14.4741 131.396 15.5196C129.859 16.3384 128.663 18.1272 128.562 19.7774C128.524 20.4955 128.726 21.4276 130.137 27.2097L131.749 33.8231L149.952 33.8609L168.154 33.8861L169.805 27.0585C171.669 19.3617 171.619 19.7144 170.838 18.0138C170.145 16.5022 168.734 15.3811 166.907 14.9024C165.383 14.4993 162.309 14.726 160.029 15.4063C159.513 15.57 159.437 15.5574 158.959 15.2929C157.812 14.663 156.313 14.4489 154.524 14.663L153.743 14.7638L153.932 14.0836C154.335 12.5215 153.504 10.4934 152.156 9.76278C151.753 9.54863 151.703 9.46045 151.703 9.04475V8.56606H152.647H153.592V6.86546V5.16486H152.647H151.703V4.22008V3.2753H150.027C149.095 3.2753 148.301 3.31309 148.264 3.36348ZM150.695 5.16486V6.04665H151.64H152.584V6.80247V7.5457L151.677 7.58349L150.758 7.62128L150.72 8.95657L150.682 10.2919L151.199 10.5186C151.929 10.8461 152.534 11.5768 152.773 12.3956C153.088 13.4663 152.799 14.5119 151.967 15.2929C151.539 15.696 151.463 16.0865 151.778 16.2125C151.892 16.2503 152.647 16.1621 153.466 15.9983C154.638 15.7716 155.23 15.7212 156.225 15.7716C157.371 15.822 157.585 15.8849 158.442 16.3006L159.387 16.7667L160.672 16.4518C162.725 15.9479 163.569 15.8471 165.156 15.8975C167.109 15.9731 167.852 16.2503 168.923 17.321C169.565 17.976 169.729 18.228 169.956 18.946C170.107 19.4247 170.22 19.9538 170.22 20.1427C170.208 20.3191 169.54 23.2164 168.734 26.5798L167.247 32.6894L149.977 32.7272C133.601 32.7524 132.694 32.7398 132.631 32.5382C132.593 32.4123 131.9 29.5905 131.107 26.2649C129.721 20.5584 129.645 20.1805 129.771 19.5633C129.96 18.6059 130.439 17.7493 131.17 17.0943C132.732 15.6834 135.201 15.4566 138.98 16.3762L140.517 16.7541L141.474 16.288C142.381 15.8346 142.507 15.8094 143.842 15.759C144.951 15.7338 145.543 15.7842 146.588 15.9983C148.453 16.3888 148.73 16.1999 147.823 15.1795C146.979 14.2221 146.802 12.9876 147.357 11.8791C147.684 11.224 148.251 10.6824 148.868 10.4556L149.196 10.3296L149.158 8.98176L149.12 7.62128L148.213 7.58349L147.294 7.5457V6.80247V6.04665H148.238H149.183V5.16486V4.28307H149.939H150.695V5.16486Z" fill="black"/>
<path d="M143.313 17.3084C142.016 17.6107 141.436 18.0138 141.058 18.9208C140.807 19.5381 140.819 19.6136 141.159 19.727C141.575 19.853 141.877 20.1553 141.877 20.4702C141.877 20.6088 141.713 20.9867 141.525 21.3016C141.058 22.0323 141.008 22.1834 141.147 22.448C141.298 22.7629 141.499 22.7377 142.167 22.2842C143.175 21.6166 143.641 21.9567 143.641 23.355C143.641 23.8588 143.578 24.073 143.389 24.2493C143.137 24.4761 143.112 24.4761 142.469 24.199C141.184 23.6321 140.958 23.7329 140.958 24.8792C140.958 25.761 141.449 26.605 142.306 27.1719C144.258 28.4946 147.659 28.0788 148.856 26.3657C149.284 25.7484 149.448 24.5643 149.184 24.0604C149.007 23.7455 148.831 23.7581 147.823 24.199L147.168 24.4887L146.903 24.2242C146.702 24.0226 146.639 23.8085 146.639 23.355C146.639 21.9945 147.168 21.604 148.113 22.2842C148.73 22.7251 148.995 22.7755 149.158 22.448C149.297 22.1834 149.247 22.0323 148.78 21.3016C148.591 20.9867 148.428 20.6088 148.428 20.4702C148.428 20.1553 148.73 19.853 149.158 19.727C149.498 19.6136 149.498 19.4877 149.196 18.8326C148.894 18.165 148.327 17.6863 147.508 17.4343C146.601 17.1572 144.283 17.0942 143.313 17.3084ZM146.715 18.3287C147.218 18.4295 147.71 18.6311 147.861 18.7696L148.138 19.0342L147.785 19.3995C147.483 19.6892 147.42 19.8656 147.42 20.3695V20.9741L146.979 20.9867C146.122 20.9993 145.631 21.8055 145.631 23.1786C145.631 23.5817 145.694 24.1108 145.77 24.3501C146.072 25.2571 146.941 25.6476 147.848 25.2697L148.327 25.0682L148.012 25.6098C147.533 26.416 146.777 26.7562 145.341 26.8065C143.603 26.8695 142.457 26.3405 142.091 25.2949C142.028 25.1059 142.054 25.1059 142.444 25.2697C143.024 25.5091 143.376 25.4965 143.842 25.2067C144.397 24.8666 144.649 24.2493 144.649 23.1912C144.649 21.7677 144.183 20.9993 143.326 20.9867L142.885 20.9741V20.3695C142.885 19.8656 142.822 19.6892 142.52 19.3869L142.142 19.0216L142.406 18.7696C142.557 18.6437 142.986 18.4673 143.376 18.3791C143.767 18.3035 144.145 18.2154 144.208 18.2028C144.548 18.0894 145.946 18.165 146.715 18.3287Z" fill="black"/>
<path d="M153.403 17.2077C151.69 17.4722 150.808 18.1147 150.519 19.2988C150.456 19.6011 150.493 19.6515 150.884 19.7775C151.539 19.9916 151.589 20.3947 151.085 21.3521C150.418 22.5992 150.745 23.0401 151.791 22.2969C152.71 21.6293 153.227 21.9694 153.265 23.2543C153.277 23.796 153.227 23.9849 153 24.2117L152.71 24.4888L152.055 24.1991C151.048 23.7582 150.934 23.7456 150.745 23.9975C150.481 24.3502 150.531 25.4084 150.834 26.0382C151.312 27.046 152.32 27.6506 153.844 27.8648C155.494 28.1041 157.107 27.7136 158.039 26.8444C158.732 26.2146 159.11 25.106 158.908 24.388C158.732 23.7708 158.48 23.7078 157.686 24.0983C157.308 24.2872 156.905 24.4384 156.805 24.4384C156.313 24.4384 156.049 23.1031 156.389 22.3599C156.616 21.856 157.019 21.8308 157.711 22.2843C158.379 22.7252 158.53 22.7504 158.77 22.4733C158.908 22.2969 158.896 22.2087 158.694 21.8686C158.064 20.8105 157.963 20.5333 158.115 20.2058C158.19 20.0294 158.43 19.8279 158.644 19.7523C159.047 19.6137 159.059 19.5004 158.77 18.7319C158.593 18.2658 157.812 17.6612 157.094 17.447C156.439 17.2455 154.147 17.0943 153.403 17.2077ZM156.616 18.3918C156.93 18.4674 157.321 18.6312 157.472 18.7571L157.774 18.9839L157.371 19.387C156.993 19.7523 156.968 19.8405 157.019 20.4073C157.082 20.9868 157.069 21.0246 156.817 20.9742C156.414 20.8734 155.721 21.3017 155.457 21.793C155.129 22.4229 155.142 23.8967 155.482 24.5644C155.898 25.3706 156.59 25.6225 157.434 25.2698C157.976 25.0431 157.989 25.1312 157.51 25.7989C156.653 26.9578 153.983 27.2349 152.471 26.3028C152.181 26.1264 151.627 25.3454 151.728 25.2446C151.766 25.2194 151.967 25.2572 152.194 25.3328C152.962 25.6099 153.668 25.2824 154.109 24.4384C154.335 23.9849 154.31 22.3221 154.071 21.856C153.769 21.2891 153.416 21.0246 152.912 20.9994C152.496 20.9742 152.446 20.9364 152.471 20.6593C152.509 19.9664 152.446 19.7397 152.093 19.387L151.728 19.0217L152.043 18.7697C152.358 18.5304 152.899 18.3414 153.655 18.2155C154.247 18.1273 155.986 18.2281 156.616 18.3918Z" fill="black"/>
<path d="M133.311 17.5856C132.366 17.8375 131.611 18.3162 131.17 18.9208C130.956 19.2106 130.792 19.4751 130.792 19.5255C130.792 19.5759 130.993 19.6515 131.245 19.6893C131.774 19.7774 132.303 20.2183 132.303 20.5585C132.303 20.6844 132.127 21.1379 131.913 21.5536C131.611 22.1583 131.56 22.3598 131.686 22.4984C131.9 22.7503 132.089 22.7251 132.782 22.2842C133.311 21.9567 133.45 21.9189 133.676 22.0449C134.017 22.2213 134.193 22.6622 134.193 23.3424C134.193 23.9093 133.916 24.4383 133.639 24.4383C133.538 24.4383 133.223 24.325 132.921 24.1864C131.8 23.6825 131.472 23.8967 131.686 25.0052C132.026 26.8066 133.425 27.8395 135.566 27.8647C137.733 27.8899 139.232 26.9577 139.597 25.3327C139.887 24.0478 139.458 23.5565 138.501 24.0478C137.884 24.3628 137.43 24.388 137.216 24.1234C136.964 23.8085 136.914 22.9015 137.128 22.385C137.292 22.0071 137.393 21.9189 137.67 21.9189C137.871 21.9189 138.237 22.0701 138.489 22.2465C139.471 22.9141 139.925 22.3598 139.244 21.3269C139.03 20.9994 138.854 20.6214 138.854 20.4829C138.854 20.105 139.194 19.6515 139.484 19.6515C139.736 19.6515 139.799 19.5129 139.925 18.6185L140 18.0264L139.458 17.8753C137.582 17.3714 134.634 17.2328 133.311 17.5856ZM137.619 18.5303C138.224 18.6185 138.728 18.7193 138.728 18.7697C138.728 18.8327 138.526 19.072 138.287 19.3113C137.909 19.6893 137.846 19.8404 137.846 20.3317C137.846 20.886 137.833 20.9112 137.481 20.9112C136.574 20.9112 135.831 22.2591 136.02 23.6069C136.108 24.2998 136.473 24.9926 136.838 25.1942C137.141 25.3579 138.048 25.3579 138.363 25.1942C138.677 25.0178 138.665 25.1816 138.312 25.7106C138.161 25.9374 137.733 26.2901 137.355 26.4791C136.801 26.7688 136.523 26.8318 135.78 26.8318C134.483 26.8318 133.979 26.6554 133.261 25.9374C132.644 25.3201 132.555 25.043 133.034 25.3075C133.45 25.5343 134.13 25.4713 134.495 25.1816C135.024 24.7659 135.251 24.2116 135.251 23.3046C135.251 21.9819 134.659 21.0749 133.727 21.0119C133.336 20.9868 133.324 20.9616 133.336 20.4451C133.349 19.8404 133.072 19.3365 132.656 19.2106C132.392 19.1224 132.392 19.1098 132.757 18.9208C133.727 18.3918 135.465 18.2532 137.619 18.5303Z" fill="black"/>
<path d="M161.843 17.5603C160.621 17.7996 159.891 18.0012 159.891 18.1271C159.891 18.1775 159.954 18.5428 160.029 18.9333C160.143 19.4876 160.231 19.6514 160.407 19.6514C160.684 19.6514 161.025 20.1049 161.025 20.4828C161.025 20.6213 160.848 20.9992 160.634 21.3268C159.954 22.3597 160.407 22.914 161.39 22.2464C161.642 22.07 162.007 21.9188 162.209 21.9188C162.486 21.9188 162.587 22.007 162.75 22.3849C162.965 22.9014 162.914 23.8084 162.662 24.1233C162.448 24.3879 161.995 24.3627 161.44 24.0603C160.571 23.5942 160.244 23.8084 160.244 24.8036C160.256 26.1136 161.214 27.2474 162.65 27.6757C163.557 27.9402 164.967 27.915 165.874 27.6379C166.655 27.3859 167.588 26.6679 167.903 26.0633C168.142 25.5972 168.356 24.4634 168.255 24.1611C168.167 23.8588 167.663 23.8714 166.958 24.1863C166.655 24.3249 166.341 24.4382 166.24 24.4382C165.963 24.4382 165.686 23.9092 165.686 23.3423C165.686 22.6621 165.862 22.2212 166.202 22.0448C166.429 21.9188 166.567 21.9566 167.096 22.2841C168.23 22.9896 168.608 22.6621 167.953 21.5031C167.751 21.1378 167.575 20.7095 167.575 20.5709C167.575 20.2182 168.092 19.7773 168.633 19.6892C168.885 19.6514 169.087 19.5884 169.087 19.538C169.087 19.3238 168.558 18.631 168.155 18.3287C167.26 17.6484 166.542 17.4721 164.552 17.4343C163.393 17.4091 162.398 17.4595 161.843 17.5603ZM166.24 18.5806C166.643 18.6814 167.084 18.8326 167.222 18.9081C167.487 19.0467 167.487 19.0593 167.248 19.1853C166.794 19.4246 166.567 19.8277 166.567 20.4072C166.567 20.9615 166.555 20.9866 166.164 21.0118C165.358 21.0748 164.879 21.6039 164.678 22.6495C164.501 23.6068 164.716 24.5012 165.257 25.0429C165.635 25.4208 165.748 25.4712 166.227 25.4208C166.517 25.383 166.87 25.32 166.996 25.257C167.449 25.0555 166.807 25.9247 166.202 26.3278C164.829 27.2474 162.259 26.8821 161.516 25.6602C161.214 25.1563 161.214 25.0303 161.516 25.1941C161.654 25.257 162.032 25.32 162.347 25.32C163.078 25.32 163.569 24.8791 163.796 24.0477C163.972 23.4053 163.884 22.3219 163.607 21.7929C163.355 21.3016 162.826 20.9111 162.398 20.9111C162.045 20.9111 162.032 20.8859 162.032 20.3316C162.032 19.8403 161.969 19.6892 161.591 19.3112C161.352 19.0719 161.151 18.82 161.151 18.7696C161.151 18.442 165.131 18.2909 166.24 18.5806Z" fill="black"/>
<path d="M131.346 37.0605C131.019 37.2872 130.641 37.6777 130.515 37.9171C130.238 38.4461 130.212 39.6303 130.464 40.2349C130.729 40.8648 147.155 70.5434 147.521 71.0473C148.755 72.7605 150.884 72.9116 152.131 71.3874C152.534 70.8835 169.099 41.0915 169.465 40.2097C169.679 39.6554 169.666 38.4335 169.427 37.9674C169.2 37.5265 168.772 37.136 168.243 36.8589C167.878 36.6825 166.177 36.6574 149.902 36.6574H131.951L131.346 37.0605ZM167.978 38.169C168.381 38.4839 168.495 39.0508 168.293 39.6554C168.104 40.1845 152.572 68.4271 151.804 69.6238C150.506 71.6393 149.473 71.7149 148.264 69.8757C148.012 69.4978 144.17 62.6073 139.723 54.5326C132.518 41.4694 131.623 39.794 131.573 39.2146C131.522 38.6225 131.548 38.5343 131.863 38.2446L132.215 37.9171H149.939C167.386 37.9171 167.676 37.9171 167.978 38.169Z" fill="black"/>
<path d="M141.902 43.674C141.285 43.9763 140.97 44.5054 140.97 45.2234C140.97 45.7903 141.222 46.3068 144.397 52.051C146.286 55.4648 148.012 58.5511 148.239 58.9038C148.906 59.9368 149.876 60.2265 150.834 59.6848C151.111 59.5337 151.413 59.2817 151.527 59.1054C151.627 58.9416 153.315 55.9435 155.255 52.4289C158.468 46.6217 158.795 45.9792 158.845 45.3494C158.908 44.5054 158.631 43.9889 157.964 43.674C157.561 43.485 156.767 43.4598 149.914 43.4598C143.175 43.4598 142.268 43.485 141.902 43.674ZM157.422 44.7951C157.535 44.8329 157.624 45.0219 157.624 45.1982C157.624 45.5383 150.985 57.7323 150.468 58.3495C150.103 58.7778 149.813 58.7904 149.461 58.4125C149.196 58.1354 142.343 45.8407 142.205 45.3746C142.154 45.2234 142.192 45.0471 142.318 44.9211C142.507 44.7447 143.301 44.7195 149.876 44.7195C153.92 44.7195 157.309 44.7573 157.422 44.7951Z" fill="black"/>
<path d="M36.8933 100.033C32.7615 100.638 30.7208 102.691 30.9349 106.017C31.0105 107.377 31.4514 108.36 32.3458 109.204C33.1898 110.01 33.9079 110.363 36.2005 111.106C38.9719 112 39.5891 112.454 39.5891 113.562C39.5891 114.243 39.2868 114.696 38.6191 115.024C38.0775 115.288 37.8507 115.326 36.4399 115.301C34.7393 115.288 33.467 115.036 32.2073 114.457L31.5396 114.142L31.464 114.545C31.3632 115.213 31.1491 117.367 31.1491 117.82C31.1491 118.198 31.1995 118.261 31.6278 118.387C31.8797 118.463 32.5978 118.614 33.2024 118.715C36.8934 119.357 40.4205 118.941 42.3857 117.619C43.9729 116.548 44.6783 115.099 44.6783 112.933C44.6657 111.333 44.3634 110.464 43.469 109.519C42.6502 108.65 41.5417 108.083 39.4002 107.44C36.5154 106.584 35.9864 106.231 36.0116 105.236C36.0242 104.568 36.2887 104.241 37.0571 103.888C38.2034 103.384 40.8488 103.485 42.562 104.102L43.3556 104.392L43.4186 104.064C43.4564 103.888 43.5068 103.22 43.5572 102.603C43.595 101.973 43.658 101.268 43.6958 101.016L43.7587 100.55L42.9021 100.348C41.1008 99.9198 38.6065 99.7812 36.8933 100.033Z" fill="black"/>
<path d="M51.3044 101.066C50.1581 101.431 49.1503 101.772 49.0748 101.822C48.9614 101.898 48.911 102.364 48.911 103.434V104.933H47.5253H46.1396V106.571V108.209H47.5127H48.8858L48.9362 111.95C48.9992 116.271 49.0622 116.598 49.9817 117.631C51.0399 118.803 52.8161 119.218 55.6126 118.941C56.4566 118.853 57.1621 118.778 57.1747 118.752C57.1873 118.74 57.1621 118.047 57.1243 117.215C57.0361 115.805 57.0235 115.704 56.7841 115.729C55.8646 115.842 54.8064 115.779 54.5167 115.59C53.7861 115.112 53.7609 114.986 53.7231 111.459L53.6853 108.209H55.3229H56.9731V106.571V104.933H55.3355H53.6979V102.666C53.6979 100.928 53.6601 100.398 53.5467 100.411C53.4585 100.411 52.4508 100.713 51.3044 101.066Z" fill="black"/>
<path d="M79.7736 100.915C78.9044 101.192 77.8967 101.494 77.544 101.608L76.8763 101.797V103.371V104.933H75.4907H74.105V106.571V108.209H75.4781H76.8511L76.9015 112.013C76.9519 115.616 76.9645 115.868 77.229 116.535C77.9597 118.387 79.824 119.181 82.9229 118.992C83.6535 118.941 84.4345 118.866 84.6739 118.815L85.1022 118.727L85.077 117.467C85.0392 115.868 84.9888 115.603 84.6739 115.704C84.5353 115.754 84.0566 115.792 83.6031 115.792C82.671 115.817 82.2427 115.591 81.8899 114.873C81.6884 114.495 81.6632 114.041 81.6632 111.32V108.209H83.3008H84.9384V106.571V104.933H83.3008H81.6632V102.666C81.6632 100.928 81.6254 100.399 81.512 100.411C81.4239 100.411 80.6428 100.638 79.7736 100.915Z" fill="black"/>
<path d="M63.662 104.694C62.7676 104.795 61.3315 105.148 60.6009 105.425L60.2482 105.563V107.138C60.2482 108.158 60.2986 108.713 60.3742 108.713C60.4498 108.713 60.6891 108.624 60.8907 108.511C62.1504 107.869 65.3248 107.579 66.3704 108.02C66.9876 108.272 67.4159 108.662 67.6301 109.179C68.008 110.06 68.0584 110.035 65.5767 110.035C63.6368 110.035 63.1959 110.073 62.3519 110.325C60.475 110.867 59.4798 111.585 58.8751 112.87C58.598 113.449 58.5476 113.739 58.5476 114.696C58.5476 115.691 58.598 115.918 58.9003 116.548C59.7191 118.223 61.7976 119.193 64.1407 118.992C65.4634 118.878 66.3704 118.437 67.2899 117.455L68.0332 116.661L68.1213 117.669L68.2095 118.664H70.3762H72.5555L72.4547 118.072C72.4043 117.732 72.3539 115.817 72.3413 113.814C72.3413 111.799 72.2784 109.758 72.2154 109.279C71.8879 107.025 70.4896 105.488 68.1717 104.858C67.3151 104.631 64.8839 104.53 63.662 104.694ZM67.3529 112.58L67.8316 112.655L67.756 113.21C67.5545 114.696 66.3704 115.792 64.9217 115.805C63.7124 115.817 62.944 115.2 62.9818 114.243C63.0321 113.084 63.9895 112.542 66.0428 112.504C66.4963 112.504 67.0758 112.529 67.3529 112.58Z" fill="black"/>
<path d="M92.1818 104.732C88.5287 105.437 86.4502 108.007 86.4502 111.799C86.4502 113.839 87.0926 115.439 88.4531 116.775C89.8262 118.135 91.5268 118.828 93.832 118.992C95.4445 119.105 97.9513 118.765 99.211 118.274L99.5511 118.135V116.447V114.759L99.0724 114.998C97.2458 115.931 94.1596 116.082 92.7235 115.301C92.0055 114.91 91.678 114.545 91.426 113.802L91.2623 113.31L96.0491 113.273L100.849 113.247L100.773 111.824C100.534 107.264 98.304 104.795 94.2603 104.618C93.5423 104.581 92.7109 104.631 92.1818 104.732ZM95.3311 108.007C95.9231 108.36 96.3263 109.027 96.4648 109.934L96.553 110.476H93.8824H91.1993L91.2874 109.96C91.3882 109.317 91.7409 108.612 92.1566 108.234C92.9251 107.516 94.3107 107.415 95.3311 108.007Z" fill="black"/>
<path d="M111.354 104.694C109.931 104.984 108.696 105.815 107.966 106.936L107.613 107.503V106.218V104.933H105.472H103.33V111.799V118.664H105.711H108.104L108.142 114.784C108.18 111.03 108.193 110.904 108.482 110.249C109.011 109.065 109.944 108.511 111.216 108.612C111.783 108.662 111.984 108.75 112.35 109.103C113.093 109.821 113.156 110.249 113.156 114.721V118.664H115.562H117.955L117.917 113.525C117.88 108.574 117.867 108.372 117.603 107.717C117.023 106.319 116.141 105.425 114.831 104.933C114.025 104.631 112.249 104.505 111.354 104.694Z" fill="black"/>
<path d="M124.808 104.681C121.823 105.223 120.198 106.936 120.361 109.393C120.5 111.383 121.445 112.24 124.556 113.134C126.32 113.638 126.811 113.89 127.013 114.394C127.164 114.734 127.151 114.847 127 115.124C126.71 115.628 126.219 115.805 125.06 115.792C123.826 115.779 122.767 115.603 121.596 115.213L120.727 114.91L120.664 115.25C120.626 115.427 120.563 116.208 120.513 116.976L120.437 118.362L120.916 118.513C122.037 118.84 123.284 118.966 125.186 118.966C128.134 118.966 129.507 118.563 130.741 117.341C131.548 116.548 131.85 115.729 131.837 114.381C131.825 112.756 131.144 111.648 129.708 110.93C129.356 110.753 128.323 110.413 127.403 110.161C126.496 109.922 125.577 109.632 125.362 109.531C124.569 109.116 124.607 108.36 125.438 108.007C126.395 107.616 128.927 107.843 130.162 108.448L130.653 108.687L130.729 108.284C130.804 107.818 131.044 105.689 131.044 105.488C131.044 105.349 130.111 105.034 128.99 104.807C128.134 104.618 125.551 104.543 124.808 104.681Z" fill="black"/>
<path d="M163.695 104.681C160.685 105.223 158.556 107.239 158.001 110.06C157.775 111.194 157.901 113.361 158.241 114.318C158.82 115.931 160.03 117.266 161.592 118.034C163.393 118.929 165.219 119.193 167.537 118.929C168.873 118.778 170.535 118.374 170.813 118.135C170.926 118.047 170.976 117.556 170.976 116.434C170.976 114.986 170.964 114.86 170.762 114.923C170.636 114.961 170.132 115.137 169.641 115.313C168.054 115.893 165.572 115.968 164.413 115.477C163.557 115.124 162.675 114.079 162.662 113.399C162.662 113.285 163.695 113.247 167.386 113.247C171.72 113.247 172.123 113.235 172.198 113.033C172.337 112.681 172.009 109.96 171.72 109.09C171.014 106.899 169.515 105.425 167.411 104.858C166.567 104.631 164.552 104.53 163.695 104.681ZM166.542 107.881C167.273 108.259 167.827 109.191 167.827 110.035V110.476H165.245H162.662V110.186C162.662 109.204 163.443 108.095 164.363 107.755C164.942 107.554 166.013 107.604 166.542 107.881Z" fill="black"/>
<path d="M178.711 104.732C176.443 105.248 174.982 106.735 174.302 109.216C174.025 110.237 173.987 112.857 174.239 113.877C174.529 115.074 175.209 116.308 176.002 117.064C177.287 118.299 178.509 118.727 180.487 118.639C181.583 118.589 181.885 118.526 182.616 118.185C183.132 117.946 183.712 117.53 184.14 117.102L184.833 116.409V117.115C184.833 118.185 184.493 119.206 183.939 119.848C183.233 120.642 182.414 120.969 180.903 121.032C179.429 121.095 178.32 120.919 176.985 120.403C176.443 120.201 175.977 120.05 175.952 120.075C175.927 120.088 175.876 120.919 175.826 121.902L175.725 123.703L176.091 123.842C177.59 124.421 181.041 124.723 183.132 124.459C186.017 124.106 187.667 123.098 188.549 121.158C189.204 119.722 189.242 119.294 189.242 111.824V104.933H187.1H184.971L184.934 106.143L184.896 107.352L184.493 106.785C183.964 106.017 182.981 105.261 182.099 104.933C181.18 104.581 179.731 104.505 178.711 104.732ZM183.069 108.587C184.115 109.116 184.619 110.098 184.619 111.547C184.619 113.121 184.09 114.104 182.918 114.683C181.847 115.225 180.563 115.036 179.832 114.243C179.441 113.814 179.076 112.92 178.975 112.164C178.799 110.917 179.366 109.292 180.147 108.725C180.928 108.171 182.137 108.108 183.069 108.587Z" fill="black"/>
<path d="M213.617 104.732C211.312 105.185 209.712 106.306 208.742 108.158C207.52 110.501 207.634 113.6 209.019 115.767C209.876 117.102 211.577 118.261 213.391 118.727C215.406 119.231 218.757 119.029 220.646 118.274L220.987 118.135V116.447V114.759L220.521 114.998C218.719 115.918 215.834 116.069 214.235 115.339C213.542 115.024 213.025 114.406 212.798 113.651L212.685 113.247H217.485H222.284L222.209 111.761C222.171 110.955 222.045 109.947 221.931 109.531C221.276 107.125 219.802 105.551 217.585 104.883C216.628 104.593 214.701 104.518 213.617 104.732ZM216.729 107.982C217.359 108.322 217.8 109.04 217.913 109.897L218.001 110.476H215.331C212.295 110.476 212.458 110.552 212.924 109.305C213.365 108.12 214.285 107.528 215.545 107.629C215.897 107.667 216.439 107.818 216.729 107.982Z" fill="black"/>
<path d="M228.986 104.631C228.847 104.656 228.419 104.744 228.041 104.82C226.907 105.047 225.874 105.614 225.169 106.382C224.337 107.289 224.085 108.032 224.161 109.33C224.287 111.383 225.232 112.252 228.293 113.109C229.086 113.336 229.956 113.638 230.207 113.789C230.9 114.167 231.077 114.986 230.573 115.439C229.905 116.044 226.756 115.83 224.929 115.074C224.438 114.872 224.438 114.872 224.312 116.913L224.236 118.362L224.715 118.5C226.479 119.017 230.27 119.155 231.858 118.752C233.508 118.337 234.541 117.631 235.158 116.497C235.46 115.943 235.536 115.641 235.574 114.746C235.7 112.177 234.642 111.068 231.228 110.174C229.2 109.645 228.986 109.557 228.721 109.166C228.431 108.712 228.57 108.284 229.099 108.032C230.019 107.591 232.739 107.843 233.987 108.473C234.251 108.612 234.465 108.675 234.465 108.612C234.465 108.561 234.553 107.818 234.654 106.962C234.768 106.105 234.831 105.387 234.818 105.374C234.717 105.299 233.445 104.933 232.84 104.82C232.11 104.669 229.389 104.53 228.986 104.631Z" fill="black"/>
<path d="M243.182 104.694C240.839 105.085 238.937 106.458 238.043 108.398C237.526 109.531 237.363 110.338 237.363 111.774C237.363 113.915 237.917 115.339 239.328 116.737C240.701 118.123 242.376 118.828 244.669 119.004C245.966 119.092 247.982 118.878 249.305 118.5L250.275 118.223L250.312 116.535C250.337 114.961 250.325 114.86 250.123 114.948C248.435 115.653 246.773 115.931 245.248 115.767C243.51 115.565 242.527 114.872 242.225 113.6L242.149 113.247L246.899 113.222L251.66 113.184L251.622 111.874C251.572 109.481 250.917 107.68 249.632 106.395C248.171 104.933 245.689 104.278 243.182 104.694ZM246.029 107.881C246.76 108.259 247.314 109.191 247.314 110.035V110.476H244.732H242.149V110.186C242.149 109.204 242.93 108.095 243.85 107.755C244.429 107.554 245.5 107.604 246.029 107.881Z" fill="black"/>
<path d="M262.091 104.744C260.743 105.034 259.357 105.992 258.79 107.012C258.589 107.39 258.589 107.377 258.551 106.155L258.513 104.933H256.321H254.117V111.799V118.664H256.51H258.904V115.653C258.904 112.202 259.03 110.942 259.483 109.997C259.937 109.078 260.529 108.7 261.65 108.624C262.38 108.574 262.557 108.599 262.935 108.864C263.187 109.027 263.514 109.431 263.69 109.783C264.005 110.413 264.005 110.426 264.043 114.532L264.081 118.664H266.474H268.855V113.965C268.855 108.927 268.792 108.322 268.175 107.1C267.847 106.445 266.865 105.462 266.222 105.122C265.668 104.845 264.283 104.555 263.501 104.568C263.161 104.568 262.519 104.656 262.091 104.744Z" fill="black"/>
<path d="M141.159 105.085C141.184 105.173 142.205 107.944 143.427 111.232C144.636 114.52 145.757 117.543 145.908 117.934L146.173 118.664H148.906H151.64L154.184 111.824L156.716 104.996L154.373 104.959C153.101 104.946 152.03 104.946 152.005 104.971C151.98 104.984 151.325 107.176 150.556 109.821C149.775 112.466 149.095 114.595 149.057 114.545C149.007 114.482 148.352 112.303 147.596 109.695L146.223 104.933H143.653C141.663 104.933 141.109 104.971 141.159 105.085Z" fill="black"/>
<path d="M191.295 105.337C191.384 105.563 192.542 108.662 193.853 112.215L196.233 118.664L198.98 118.639L201.738 118.601L204.17 112.038C205.505 108.423 206.639 105.337 206.689 105.198C206.765 104.933 206.765 104.933 204.409 104.959L202.041 104.996L200.642 109.745C199.874 112.366 199.219 114.532 199.181 114.57C199.131 114.621 197.014 107.617 196.322 105.148C196.271 104.959 196.032 104.933 193.701 104.933H191.132L191.295 105.337Z" fill="black"/>
</svg>
